<svg id="Component_41_1" data-name="Component 41 – 1" xmlns="http://www.w3.org/2000/svg" width="34.6" height="34.6" viewBox="0 0 34.6 34.6">
  <circle id="Ellipse_38" data-name="Ellipse 38" cx="17.3" cy="17.3" r="17.3" fill="#1c4388"/>
  <path id="Path_262" data-name="Path 262" d="M-1597.511,107.6V97.156H-1601V93.1h3.491V90a5.718,5.718,0,0,1,.776-2.99,4.787,4.787,0,0,1,4.507-2.313,26.4,26.4,0,0,1,3.11.174V88.5h-1.866q-1.635,0-2.029.71a1.329,1.329,0,0,0-.174.413,3.7,3.7,0,0,0-.11,1.191V93.1h4.037l-.513,4.06h-3.525V107.6Z" transform="translate(1612.36 -78.847)" fill="#fff"/>
</svg>
