<svg xmlns="http://www.w3.org/2000/svg" width="104.809" height="132.324" viewBox="0 0 104.809 132.324">
  <g id="Group_47" data-name="Group 47" transform="translate(-2970.451 -1960)">
    <g id="Group_41" data-name="Group 41" transform="translate(2970.451 1960)">
      <path id="Path_137" data-name="Path 137" d="M914.336,165.937c-.756-.525-1.4-1.266-1.02-2.039.793-1.606.567-2.873-1.1-4.046a.879.879,0,0,1-.076-1.452,1.794,1.794,0,0,1,1.738-.556c.265.031.529.371.793.031a.589.589,0,0,0-.151-.71c-.189-.247-.416-.463-.6-.71-.113-.154-.227-.309-.038-.494a.491.491,0,0,1,.567-.062c.68.432.718-.062.756-.371a7.225,7.225,0,0,0,.189-1.791c-.038-.432,0-.865,0-1.3.076-2.347.6-4.695.076-7.042a1.27,1.27,0,0,1,.113-.834,2.614,2.614,0,0,0,.038-1.7c-.831-3.089-.944-6.239-1.625-9.359-.491-2.347-1.7-4.541-2.04-6.919-.227-1.544-1.285-2.842-1.738-4.324a5.1,5.1,0,0,0-1.247-2.193c-1.4-1.483-1.4-2.5.038-3.954,2.494-2.471,2.531-5.313,1.474-8.062-1.889-4.818-6.461-7.32-12.317-8.247a41,41,0,0,0-11.825.062c-2.418.34-2.342.154-2.116,2.131a10.81,10.81,0,0,1-.076,4.664c-.529,1.668.264,2.286,2.38,2.625a39.068,39.068,0,0,0,16.057-1.112c.34-.093.718-.216.944.093.189.247-.113.463-.3.649a5,5,0,0,1-.68.494c-3.476,2.008-7.443,2.687-11.561,3-1.965.124-3.854-.587-5.818-.4a8.554,8.554,0,0,1-2.342-.154c-4.194-.71-8.2-1.946-12.279-2.934-2.267-.556-4.458-1.328-6.649-2.069-1.322-.432-2.569-1.05-3.891-1.452-2.871-.9-5.781-1.7-8.614-2.625-1.36-.463-2.834-.4-4.156-.8a23.593,23.593,0,0,0-6.347-.988,27.041,27.041,0,0,0-11.523,2.039,18.71,18.71,0,0,0-6.423,4.386,15.922,15.922,0,0,0-3.174,5.529,8.569,8.569,0,0,0-.264,5.745,30.224,30.224,0,0,1,3.136-3.12,7.944,7.944,0,0,1,3.1-2.039,35.014,35.014,0,0,1,7.405-1.483,17.1,17.1,0,0,1,4.534.062c2.267.463,4.572.741,6.876,1.112a76.176,76.176,0,0,1,11.9,3.181c3.891,1.3,7.783,2.564,11.674,3.892,1.625.556,3.363.741,4.949,1.3a34.74,34.74,0,0,0,9.143,1.884,18.75,18.75,0,0,1,3.967.525,4.742,4.742,0,0,0,2.078.124c2.078-.4,4.307.124,6.347-.556a.669.669,0,0,1,.793.216,18.491,18.491,0,0,1-7.707,2.687,40.3,40.3,0,0,1-13.072-.68c-3.552-.834-7.1-1.7-10.579-2.842-3.136-1.05-6.309-2.131-9.483-3.181-3.74-1.2-7.632-1.853-11.41-2.842a25.415,25.415,0,0,0-7.481-.556c-3.211.093-6.461-.093-9.521,1.359a15.963,15.963,0,0,0-5.592,4.263,14.209,14.209,0,0,0-2.229,4.633,56.463,56.463,0,0,0-2.682,9.112,38.431,38.431,0,0,0-.869,9.019c.113,2.409-.3,4.818.076,7.259s.567,4.88.945,7.32a18.732,18.732,0,0,0,3.816,9.3c.264.34,1.171.68.68,1.081-.453.371-1.247-.062-1.776-.278a3.6,3.6,0,0,1-1.4-.927,10.611,10.611,0,0,0-1.322-1.174c-.567-.494-1.058-.463-1.4.185a26.611,26.611,0,0,0-1.662,3c-1.1,2.749,1.171,4.849,4.647,4.324,1.36-.216,2.758-.371,4.08-.649a16.331,16.331,0,0,1,8.2.309c3.362.988,6.876,1.081,10.314,1.575a27.653,27.653,0,0,0,5.063.154c4.345-.154,8.576.618,12.883.618,4.911,0,9.861.093,14.772-.062,4.76-.154,9.559,0,14.281-.432h.151c.567-.062,1.133-.093,1.7-.154,2.38-.247,4.723-.556,7.1-.71a10.78,10.78,0,0,0,3.136-.618c2.078-.8,4.383-.834,6.612-1.081a10.6,10.6,0,0,1,4.8.834,9.439,9.439,0,0,0,4.723.309,2,2,0,0,0,1.814-1.637A6.4,6.4,0,0,0,914.336,165.937Zm-26.56-58.1c-.227.093-.453-.309-.453-.525-.038-.432.227-.649.718-.71.34.031.68.062.68.371C888.645,107.4,888.191,107.682,887.776,107.837Zm4.8-2.564a.571.571,0,0,1-.529-.494c0-.309.227-.525.642-.494.378,0,.491.216.529.494C893.1,105.026,892.989,105.3,892.574,105.273Zm6.045,1.977c-.076.34-.453.494-.793.587-.453-.093-.491-.371-.491-.68,0-.34.189-.556.6-.525S898.732,106.848,898.619,107.25Zm1.814-1.3c-.416.093-.68-.216-.6-.494a.864.864,0,0,1,.793-.741.714.714,0,0,1,.756.4A1.1,1.1,0,0,1,900.432,105.952Zm-75.94,2.934c.076-.278.113-.649.491-.68.529-.031.529.371.6.649,0,.34-.038.649-.529.618C824.681,109.443,824.417,109.227,824.492,108.887Zm.68,2.934c-.416,0-.68-.247-.642-.525a.619.619,0,0,1,.756-.556.865.865,0,0,1,.756.525C825.928,111.7,825.588,111.821,825.172,111.821Zm2.493-4.263c-.076,0-.567.185-.869-.185a.334.334,0,0,1,.076-.494,1.143,1.143,0,0,1,1.209-.154,3.158,3.158,0,0,0,1.511.124.815.815,0,0,1,.945.371c.113.216.151.432-.076.587a.763.763,0,0,1-1.02-.093C829.026,107.373,828.5,107.528,827.666,107.559Zm2.607,2.44c-.3.031-.68-.093-.68-.371,0-.432.6-.278.793-.432.378,0,.642.062.642.34C830.991,109.906,830.651,110,830.273,110Zm2.418.062a1.1,1.1,0,0,1-.831-.865c-.113-.4.34-.432.718-.432.6,0,.6.432.756.68C833.22,109.783,833.182,110.122,832.691,110.061Zm2.645-.216c-.453-.031-.378-.4-.416-.649,0-.216.038-.463.378-.432.453,0,.491.309.529.556C835.789,109.6,835.713,109.875,835.335,109.844Zm2.116-3.768c-.567-.031-.68-.4-.756-.741a.317.317,0,0,1,.378-.34,1.748,1.748,0,0,1,1.058.649C838.093,106.045,837.791,106.076,837.451,106.076Zm5.063-1.822c-.567,0-.869-.278-.869-.741,0-.34.265-.525.68-.494.529.031.907.216.982.649C843.269,104.068,842.929,104.254,842.514,104.254Zm5.4,1.946c-.453.031-.945,0-1.436,0-.642,0-1.322.124-1.813-.34-.151-.124-.34-.278-.151-.463a.616.616,0,0,1,.453-.154c.982.309,2.078-.124,3.06.247.227.093.6,0,.567.309C848.559,106.138,848.181,106.2,847.917,106.2Zm1.473-.494a.7.7,0,0,1,.756-.587.689.689,0,0,1,.567.649.751.751,0,0,1-.831.463C849.466,106.2,849.352,105.952,849.39,105.705Zm.945,2.44c-.416.062-.68-.124-.718-.463s.227-.525.6-.618c.378.124.756.278.793.649C851.015,107.991,850.674,108.084,850.334,108.146Zm2.494,2.5c-.529-.093-.831-.371-.869-.8-.038-.34.189-.649.68-.587a.927.927,0,0,1,.831.834C853.508,110.462,853.206,110.586,852.828,110.647Zm.076-2.039a.6.6,0,0,1-.718-.587c-.038-.309.076-.556.529-.587a.6.6,0,0,1,.718.587C853.47,108.331,853.357,108.578,852.9,108.609Zm2.342-.309c-.453.031-.491-.34-.491-.587a.7.7,0,0,1,.529-.741.825.825,0,0,1,.68.71C856,108.053,855.624,108.269,855.246,108.3Zm5.289.4c-.34-.062-.718-.154-.68-.494.038-.371.491-.556.793-.556.3-.031.491.309.6.556A.564.564,0,0,1,860.535,108.7Zm2.342,2.069c-.416,0-.756-.154-.793-.587a.873.873,0,0,1,.793-.71.731.731,0,0,1,.831.649C863.747,110.586,863.369,110.771,862.878,110.771Zm4.987,2.255c-.416,0-.68-.185-.718-.494s.227-.525.642-.525a.562.562,0,0,1,.68.587C868.432,112.779,868.318,113.026,867.865,113.026ZM873,117.443c-.378-.185-.756-.371-.718-.8.038-.34.3-.494.718-.494.416.031.756.216.718.618A.762.762,0,0,1,873,117.443Zm15.075-1.822c-.453,0-.68-.216-.68-.463,0-.34.3-.587.756-.618.34-.031.6.154.567.432C888.72,115.342,888.456,115.559,888.078,115.62ZM823.208,123a1.2,1.2,0,0,1,.793.494.64.64,0,0,1-.642.525.593.593,0,0,1-.642-.649C822.754,123.126,822.868,122.91,823.208,123Zm.151,3.151c-.491-.031-.642-.247-.6-.587a.5.5,0,0,1,.642-.494c.3.062.718.185.718.525C824.114,126,823.7,126.06,823.359,126.153Zm42.466.031c.189-.34-.264-.865.416-.9.491-.031.529.4.529.71-.038.371-.189.772-.68.772C865.371,126.771,866.089,126.338,865.825,126.184Zm1.965,1.2c.416,0,.793.031.831.463.038.4-.227.587-.68.618-.642.031-1.058.216-1.058.8,0,.4.076.927-.718.865-.869-.031-.453-.618-.6-.927C865.522,128.006,866.391,127.327,867.789,127.389Zm-15.944,1.019a2.871,2.871,0,0,0,.038,1.946c.076.216.113.525-.264.649s-.529-.154-.718-.34a2.444,2.444,0,0,1-.038-2.625c.113-.093.264-.154.34-.216C851.657,127.852,851.959,128.1,851.846,128.408Zm-1.662-4.17a.718.718,0,0,1,.756-.463c.34,0,.68.185.642.556-.038.34-.416.371-.68.463C850.486,124.671,850.108,124.64,850.183,124.238Zm.68,1.575c.378.031.869,0,.831.432,0,.371-.453.371-.793.4s-.68-.031-.756-.34C850.146,125.875,850.486,125.813,850.863,125.813Zm-11.712-.031c-.038.309-.227.618-.529.587-.264-.031-.642-.247-.642-.587-.038-.309.265-.463.567-.494C839.038,125.257,839.076,125.566,839.151,125.782Zm-1.4-6.641c.378.154.68.309.718.618.038.4-.378.463-.718.494a.461.461,0,0,1-.567-.463C837.187,119.45,837.451,119.3,837.753,119.142Zm-2.38,10.811c.038-.278.113-.587.529-.618.453-.031.491.309.642.494-.189.34-.265.649-.793.649C835.373,130.447,835.335,130.2,835.373,129.952Zm-.6-6.147c-.038-.4.416-.463.68-.556.491,0,.718.154.756.494a.558.558,0,0,1-.642.649C835.26,124.362,834.806,124.207,834.769,123.806Zm.831-4.788c.378,0,.718.093.718.432,0,.4-.227.649-.756.68-.491.031-.793-.216-.793-.525C834.731,119.2,835.109,119.049,835.6,119.018Zm-2.191,6.208c.453-.031.945.062,1.02.463s-.529.494-.831.71c-.453-.093-.869-.278-.944-.649C832.54,125.35,833.031,125.257,833.409,125.227Zm1.02,6.579a.635.635,0,0,1-.642.556c-.416.031-.793-.031-.793-.463,0-.34.113-.649.6-.649A.951.951,0,0,1,834.429,131.806Zm-2.72-6.116c.038.247-.151.463-.491.494a1,1,0,0,1-.869-.71c-.076-.278.227-.4.453-.4C831.255,125.1,831.671,125.288,831.708,125.69Zm-.907-2.224c.3-.031.642-.062.68.309.038.4-.34.587-.68.649a.623.623,0,0,1-.642-.4C830.159,123.682,830.424,123.528,830.8,123.466Zm-2.494-.525c.567.093.453.525.6.741-.076.278-.151.556-.491.463-.453-.124-.529-.494-.567-.834C827.817,123.064,827.968,122.879,828.308,122.941Zm7.178,32.71c-.416,1.3-.567,1.328-1.965.649a12.251,12.251,0,0,1-6.234-5.992,11.827,11.827,0,0,1-.6-8.649c.151-.463.491-.432.869-.371a4.639,4.639,0,0,1,2.229,1.081,33.164,33.164,0,0,1,5.1,5.313,9.177,9.177,0,0,1,1.247,3.151C835.789,152.439,836.015,154.076,835.487,155.651Zm2.191,11.984c-.453-.031-.68-.278-.68-.618a.509.509,0,0,1,.6-.556.637.637,0,0,1,.642.587C838.282,167.358,838.093,167.574,837.678,167.635Zm.3-22.425c-1.889-2.533-1.965-5.282-1.776-8.124.151-2.533,1.662-4.695,2.569-6.981.416-1.05,1.738-1.637,2.607-2.5.416-.4.756,0,1.058.247a6.854,6.854,0,0,1,1.965,4.417,23.082,23.082,0,0,1,.227,3c-.227,1.853.264,3.4-.491,4.973a17.612,17.612,0,0,1-4.383,5.467C838.811,146.446,838.4,145.767,837.98,145.211Zm11.448,7.691c-1.7,2.44-4.534,3.614-7.594,4.386-1.171.309-2.04-.309-1.738-1.112a16.483,16.483,0,0,0,.529-3.583c.227-1.575,1.625-2.625,2.682-3.83a11.357,11.357,0,0,1,5.1-3.8,28.357,28.357,0,0,1,3.325-.834c.831-.154,1.36.463,1.36,1.575a13.04,13.04,0,0,1-2.342,5.22C850.3,151.6,849.881,152.253,849.428,152.9Zm3.06.772a.452.452,0,0,1-.6-.494c.038-.371.113-.71.718-.772.416.093.831.309.831.68C853.47,153.551,852.866,153.582,852.488,153.674Zm1.171-26.286c-.453-.062-.642-.247-.68-.556a.51.51,0,0,1,.491-.618c.453-.062.567.278.6.556C854.15,127.049,853.961,127.265,853.659,127.389Zm1.511,40.834a1.075,1.075,0,0,1-.869-.618c-.151-.309.113-.494.416-.556.491-.093.642.278.793.556C855.586,167.914,855.4,168.068,855.17,168.222Zm1.436-26.965c-.416.062-.491-.185-.529-.463,0-.278.076-.556.416-.587.529.031.793.247.793.525S856.946,141.226,856.606,141.257Zm1.36,28.88a.6.6,0,0,1-.6-.587c-.038-.34.264-.525.642-.525a.582.582,0,0,1,.6.587C858.533,169.921,858.382,170.2,857.966,170.137Zm1.02-43.027c-.567-.031-1.133-.185-1.285-.68-.113-.371.378-.4.718-.432a.97.97,0,0,1,1.209.587A.641.641,0,0,1,858.986,127.111Zm2.985,22.7c-.453-.062-.718-.247-.68-.649,0-.371.189-.618.68-.649.416,0,.6.216.567.556S862.424,149.721,861.971,149.813Zm.869-19.027c.038-.432.529-.587.945-.556a.778.778,0,0,1,.831.71c-.151.34-.378.71-.869.618C863.331,131.5,862.8,131.281,862.84,130.786Zm2.04,27.243c-.491.031-.68-.247-.642-.525a.6.6,0,0,1,.756-.556.674.674,0,0,1,.6.587C865.522,157.875,865.3,158.029,864.88,158.029Zm1.4-24.988c-.642.432-1.511-.062-2.078.34-.3.031-.453,0-.491-.185-.076-.185.113-.247.264-.278.038,0,.076-.031.113,0,.718.124,1.322-.618,2.078-.154A.516.516,0,0,1,866.278,133.041Zm1.247,10.224c-.113.247-.113.618-.642.618a.425.425,0,0,1-.453-.525c.038-.309.189-.649.642-.649C867.411,142.709,867.525,142.956,867.525,143.265Zm.189-11.151c-.038-.494.34-.618.831-.618.642-.031.907-.309.907-.834,0-.432-.038-.927.756-.834.756.062.453.587.529.9,0,1.236-.718,1.853-2.078,1.884C868.2,132.578,867.752,132.64,867.714,132.114Zm1.171,15.475c0-.371.34-.556.718-.587.416,0,.6.185.529.494-.076.278-.151.556-.6.556C869.149,148.022,868.885,147.836,868.885,147.589ZM870.4,166.4c-.453,0-.756-.154-.793-.525,0-.247.189-.556.491-.525a1.359,1.359,0,0,1,.982.71C871.039,166.462,870.7,166.4,870.4,166.4Zm30.225-40.463a.728.728,0,0,1,.718-.741c.378-.031.491.216.567.463.038.34-.189.525-.6.525C901.037,126.215,900.621,126.277,900.621,125.937Zm8.652,9.791c.68.031.907.278.869.618,0,.309-.227.525-.68.494-.453,0-.756-.247-.756-.587A.566.566,0,0,1,909.273,135.728Zm-1.02-22.579c.378-.062.718.031.642.247a1.15,1.15,0,0,1-1.02.834c-.3.031-.6-.278-.567-.463C907.346,113.3,907.837,113.211,908.253,113.149Zm-.831,37c.378-.031.529.278.68.463-.038.432-.378.525-.718.556s-.6-.093-.567-.4A.657.657,0,0,1,907.422,150.153Zm-1.927-39.506a1.485,1.485,0,0,1,.982.958c.113.371-.3.463-.68.432-.529-.031-.944-.185-.944-.68C904.815,110.987,905.042,110.74,905.495,110.647Zm-.642,23.289c0,.371-.416.525-.831.525-.416.031-.453-.278-.416-.525.038-.309.076-.649.6-.71C904.55,133.381,904.853,133.6,904.853,133.937Zm-.982-3.8c-.34-.062-.793-.216-.718-.618.076-.34.378-.463.756-.432.416.031.6.216.6.556A.5.5,0,0,1,903.87,130.138Zm-.227-8.062c-.378,0-.718-.124-.718-.494a.5.5,0,0,1,.68-.463c.34.093.756.185.831.556C904.361,122.107,903.984,122.107,903.644,122.076Zm-.453-10.965c.453-.062.6.216.567.525,0,.185-.038.34-.076.68.038.185.038.494.113.8.113.371.189.772-.416.834a.693.693,0,0,1-.793-.8,1.859,1.859,0,0,0-.075-1.421C902.321,111.358,902.775,111.142,903.19,111.111Zm.907,8.247c.265.247.378.587,0,.741a1.477,1.477,0,0,1-1.7-.556C903,119.234,903.492,118.833,904.1,119.358Zm-3.136-6.27c.378-.031.756.031.793.371.038.371-.453.463-.68.618-.453.093-.529-.154-.529-.371A.439.439,0,0,1,900.961,113.088Zm.038,7.876c.34.432,1.171.4,1.133.927-.038.432-.68.68-1.133.68a.879.879,0,0,1-.831-.8C900.168,121.4,900.583,121.18,901,120.964Zm-.831,17.143a1.2,1.2,0,0,1-1.133.9c-.529.062-.68-.278-.718-.618-.038-.556.453-.68.907-.71C899.752,137.674,900.243,137.674,900.168,138.107Zm-.491-10.378c0,.34-.3.525-.642.525a.687.687,0,0,1-.718-.618.477.477,0,0,1,.567-.463A.717.717,0,0,1,899.677,127.728Zm-1.587-12.849c.416.031.869.093.907.4.038.556-.264.68-.642.68-.453,0-.869-.124-.907-.587C897.41,115,897.75,114.879,898.09,114.879Zm1.02,4.726c-.038.34-.189.649-.68.618-.453-.031-.718-.278-.718-.649-.038-.4.3-.556.756-.556C899,118.956,899.148,119.234,899.11,119.6Zm-1.776,1.483c.718,0,1.965.093,1.927.649-.076.865-1.209.124-1.7.309-.227,0-.3.031-.378,0-.491-.124-1.36.34-1.4-.309C895.785,121.118,896.73,121.088,897.334,121.088Zm-3.1,16.556c.151-.309.491-.216.756-.185.567.062,1.1.154,1.662.216.416.031.869.062.793.494-.076.4-.567.154-.869.216a1.546,1.546,0,0,1-.378,0,2.348,2.348,0,0,0-1.133.031c-.227.093-.491.4-.756.062A.827.827,0,0,1,894.236,137.643Zm.6,2.069a.777.777,0,0,1,.453-.062.383.383,0,0,1,.227.556c-.793,1.2-.529,2.5-.529,3.768,0,.4-.113.741-.68.71-.491-.031-.793-.278-.642-.68a1.624,1.624,0,0,0-.113-1.606C893.329,141.875,894.274,140.022,894.841,139.713Zm-2.985-6.486c.416-.062.453.216.529.463a.646.646,0,0,1-.567.649.467.467,0,0,1-.529-.494A.589.589,0,0,1,891.856,133.226Zm-2.72,6.981c-.34.062-.416-.185-.416-.4.038-.371.189-.741.718-.68.264.031.642.185.68.556C890,140.114,889.514,140.145,889.136,140.207Zm-.756-4.417c.151-.4.567-.371.945-.309.264.062.718,0,.642.371-.113.463-.642.371-1.058.371C888.607,136.223,888.267,136.13,888.38,135.79Zm-10.692,22.764a.656.656,0,0,1-.68-.494c-.076-.309-.038-.587.416-.649.453-.093.68.216.642.463A2.115,2.115,0,0,1,877.688,158.554Zm3.174-24.154c.076-.278-.113-.618.3-.649.529-.031.491.4.529.71,0,.216.113.556-.34.587C880.71,135.049,881.013,134.586,880.862,134.4Zm.642,7.568c-.189.124-.491-.124-.453-.371.076-.371.189-.71.718-.8a.482.482,0,0,1,.6.371A6.32,6.32,0,0,1,881.5,141.968Zm1.171,18.533c-.3-.031-.6-.247-.567-.494a.6.6,0,0,1,.68-.494c.378,0,.491.216.529.494A.567.567,0,0,1,882.675,160.5Zm2.3-20.942c-.038.278-.227.556-.491.525-.567-.031-.793-.216-.718-.494a.652.652,0,0,1,.68-.525C884.753,139.064,885.017,139.311,884.98,139.558Zm.718-8.123c-.076-.309.151-.463.529-.463a.726.726,0,0,1,.718.525c.076.278-.076.463-.453.525A.771.771,0,0,1,885.7,131.435Zm.982,14.579c.076-.309.113-.68.6-.741.34-.031.6.154.6.432.038.432-.529.494-.68.741C886.718,146.416,886.642,146.23,886.68,146.014Z" transform="translate(-812.464 -44.544)" fill="#2b2b2b"/>
      <path id="Path_138" data-name="Path 138" d="M956.185,67.884c-.11-.993-.276-2.041-.331-3.034-.055-4.413,0-8.881-.055-13.294,0-4.579-1.876-8.716-4.137-12.467-2.317-3.861-6.289-6.123-10.481-7.723-1.269-.5-2.041-1.158-1.71-2.482.552-2.1.276-4.192.331-6.289.166-6.123.166-12.191,1.324-18.259a2.636,2.636,0,0,0-1.434-2.979,10.711,10.711,0,0,0-8.716-.883c-3.42.883-4.137,2.207-3.917,5.847.11,1.6.828,3.034.938,4.634.441,6.178.331,12.3.386,18.48,0,.717,0,1.489-.883,1.71-2.207.552-3.861,2.1-5.682,3.31a20.891,20.891,0,0,0-9.267,13.294A19.419,19.419,0,0,0,912,51.335c-.055,1.269,1.765,2.7,3.255,2.648,1.655-.11.883-1.434.938-2.207a22.314,22.314,0,0,1,2.924-8.771c1.048-1.82,3.144-2.593,4.413-4.137,3.255-3.806,7.888-2.7,11.915-3.751.11,0,.276.055.386.055,1.434.276,2.868.552,4.3.883a6.938,6.938,0,0,1,3.2,1.545c.331.331.938.662.552,1.269-.331.441-.827.165-1.214,0a9.563,9.563,0,0,0-4.3-.331c-1.82-.386-3.972.662-6.178,1.214-2.813.662-5.516,1.986-6.785,4.744a65.822,65.822,0,0,0-3.255,7.888c-.386,1.379-.441,2.758.607,3.751a8.874,8.874,0,0,0,2.813,1.6c6.4,2.372,12.467,5.461,18.755,8.054,3.2,1.324,6.289,2.924,9.6,4.027.662.221,1.379.552,1.986.11C956.626,69.318,956.295,68.546,956.185,67.884ZM934.23,12.555c-.993.055-.993-1.1-1.379-1.765-.662-.993-1.545-2.151-.717-3.255.5-.662.883-1.986,2.262-1.655a3.353,3.353,0,0,1,2.1,3.365,9.192,9.192,0,0,1-.386,1.324C935.664,11.452,935.278,12.5,934.23,12.555Zm1.986,18.48c-.772.055-1.048-.221-.993-.883.055-.441.11-.938.662-.938.662,0,.938.607,1.048,1.1C937.1,30.924,936.547,30.98,936.216,31.035ZM930.644,56.52a.932.932,0,0,1-1.434-.441,6.366,6.366,0,0,1,0-4.3c.772,1.434,1.269,2.372,1.82,3.255A.993.993,0,0,1,930.644,56.52Zm15-3.917c-.166.772-.717.772-1.324.717a.572.572,0,0,1-.552-.772c.165-.552.441-1.048,1.1-1.048C945.538,51.555,945.7,52.052,945.648,52.6Zm2.372,2.758a1.4,1.4,0,0,1,1.545,1.158.874.874,0,0,1-.993,1.048c-.883-.055-.827-.827-.993-1.379A.578.578,0,0,1,948.021,55.362Zm1.269,5.847c-.552.165-1.214.221-1.269-.552-.055-.717.5-.993,1.1-.993.772-.055,1.6,0,2.537,0C951.22,61.043,950.117,60.933,949.289,61.209Zm2.482-11.033c-.772-.165-.5-.993-.607-1.6.165-.662-.11-1.986.607-1.931,1.1.11.5,1.545.828,2.317C952.709,49.514,952.489,50.287,951.771,50.176Z" transform="translate(-881.455 0.049)" fill="#2b2b2b"/>
      <path id="Path_139" data-name="Path 139" d="M1079.69,293.871c-.662-.662-1.6-1.158-1.1-2.206a.735.735,0,0,1,1.158-.221C1080.683,292.216,1079.966,293.043,1079.69,293.871Z" transform="translate(-979.943 -191.439)" fill="#2b2b2b"/>
    </g>
  </g>
</svg>
