<svg xmlns="http://www.w3.org/2000/svg" width="96.058" height="156.847" viewBox="0 0 96.058 156.847">
  <g id="Group_48" data-name="Group 48" transform="translate(-3438.787 -1960.031)">
    <g id="Group_42" data-name="Group 42" transform="translate(3438.787 1960.031)">
      <path id="Path_140" data-name="Path 140" d="M1324.348.035c2.375,0,4.7.09,7.079-.045,1.523-.045,2.106.448,2.106,2.016-.09,3.047,0,6.138-.045,9.184-.045,1.523.224,2.061,1.971,1.523,3.091-.9,3.136-.762,3.091,2.643,0,3.315-.045,6.586-.045,9.9,0,.448,0,1.075.224,1.3.538.4.941-.179,1.389-.448,10.26-6.407,25.9-4.839,33.153,5.914,3.674,5.466,4.256,11.335,2.957,17.473-1.389,6.541-4.615,12.41-7.348,18.458-2.24,4.973-4.749,9.856-5.063,15.5-.179,2.957.806,5.555,1.747,8.2,3.495,9.5,2.419,18.817-1.03,28.046-4.48,12.052-11.6,22.491-19.22,32.706-2.24,2.957-5.466,3.181-8.557,3.584a94.427,94.427,0,0,1-28.853-.582c-2.733-.448-4.346-2.419-5.824-4.391-7.213-9.632-13.665-19.668-18.1-30.958-4.749-12.1-4.167-23.745,1.658-35.394,3.763-7.527,9.632-13.172,15.188-19.175,4.7-5.018,7.034-11.111,8.065-17.831.672-4.346.985-8.736,1.3-13.127.493-7.168-3.047-11.693-9.005-14.74-3.181-1.613-6.5-3.047-9.812-4.391-1.389-.538-1.433-1.254-.761-2.24,4.122-6.138,7.482-7.392,15.322-5.779a42.826,42.826,0,0,1,6.855,2.375c1.613.627,2.419.493,2.285-1.568-.134-2.016,0-4.077-.045-6.138-.045-1.478.4-2.151,2.016-2.061C1319.465.125,1321.929.035,1324.348.035Zm-.224,151.162c3,0,5.959.045,8.96,0,4.391-.045,7.885-1.254,10.663-5.331,7.348-10.708,14.561-21.415,17.831-34.229a31.883,31.883,0,0,0-1.12-19.175,50.779,50.779,0,0,0-14.068-20.609c-6.855-6.362-10.663-14.292-12.1-23.476-1.389-9.14-1.3-18.324-.9-27.464.089-1.926-.627-2.2-2.33-2.061a34.129,34.129,0,0,1-12.724-1.658c-3.808-1.165-7.482-2.733-11.245-3.987-2.24-.717-4.48-1.523-6.855-1.3-.493.045-1.21-.179-1.3.627-.045.627.582.627.986.851,1.3.672,2.6,1.344,3.943,2.016,7.527,3.853,11.783,9.632,11.469,18.458a133.669,133.669,0,0,1-.986,13.4,42.568,42.568,0,0,1-5.2,15.95c-2.912,4.928-7.079,8.692-10.977,12.724A44.06,44.06,0,0,0,1286.49,98.2c-1.479,7.392.09,14.65,3,21.595,4.391,10.394,10.484,19.8,17.338,28.718a5.851,5.851,0,0,0,3.45,2.106C1314.85,151.6,1319.509,151.108,1324.124,151.2ZM1353.6,33.726c6.5-.627,13.306,4.3,11.738,12.769a32.782,32.782,0,0,1-2.061,6.452,136.194,136.194,0,0,1-6.586,14.471c-2.285,3.987-1.658,6.9,1.568,9.677.045.045.045.134.09.224a.8.8,0,0,0,.941.493c.582-.045.4-.582.493-.9a85.893,85.893,0,0,1,4.883-12.141c2.6-5.645,5.511-11.156,6.72-17.383,1.3-6.81-.851-12.321-6.228-16.308-6-4.48-12.769-4.615-19.578-1.792-4.435,1.837-7.8,4.525-6.989,9.946.09.672-.359,1.568.4,1.882s1.12-.627,1.658-1.075C1344.464,36.818,1348.183,33.323,1353.6,33.726Zm6.81,10.08a12.857,12.857,0,0,0-.359-1.389c-1.075-2.823-4.749-4.391-8.333-3.315-4.615,1.344-7.8,4.615-10.573,8.378-.762,1.03-1.523,2.016-1.165,3.4a34.521,34.521,0,0,0,9.229,16.532c.941.9,1.389.9,1.971-.4,1.613-3.808,3.4-7.527,5.108-11.29C1358.084,51.916,1359.831,48.153,1360.414,43.807Z" transform="translate(-1280.801 0.018)" fill="#2b2b2b"/>
      <path id="Path_141" data-name="Path 141" d="M1338.752,244.544a76.46,76.46,0,0,1-12.765-.808,3.806,3.806,0,0,1-2.582-1.616c-6.98-9.077-13.1-18.724-17.4-29.322-5.928-14.732-1.817-27.516,8.127-39.112a10.206,10.206,0,0,1,8.749-3.992c11.57.285,23.139.143,34.661.1a4.994,4.994,0,0,1,3.729,1.521,42.873,42.873,0,0,1,12.908,23.809c1.052,6.083-.287,11.928-2.486,17.536-4.207,10.693-10.374,20.293-17.354,29.37a4.174,4.174,0,0,1-2.821,1.711A67.279,67.279,0,0,1,1338.752,244.544Zm-29.211-46.335a38.983,38.983,0,0,0,3.729,15.255c.765,1.711,1.817,2.709,3.634,1.948,1.721-.713,2.008-2.044,1.243-3.9a40.218,40.218,0,0,1-3.155-10.218c-.669-5.133,1.339-9.552,3.633-13.924a35.212,35.212,0,0,1,5.211-6.938,2.57,2.57,0,0,0-.239-3.8c-1.2-1.141-2.486-.855-3.538.238C1313.891,183.049,1310.258,190.415,1309.541,198.209Z" transform="translate(-1295.443 -96.454)" fill="#2b2b2b"/>
    </g>
  </g>
</svg>
