<svg xmlns="http://www.w3.org/2000/svg" xmlns:xlink="http://www.w3.org/1999/xlink" width="385.284" height="317.678" viewBox="0 0 385.284 317.678">
  <defs>
    <linearGradient id="linear-gradient" y1="0.5" x2="1" y2="0.5" gradientUnits="objectBoundingBox">
      <stop offset="0" stop-color="#3fac36"/>
      <stop offset="1" stop-color="#168138"/>
    </linearGradient>
    <linearGradient id="linear-gradient-3" x1="13.367" y1="-2.628" x2="12.675" y2="-1.675" xlink:href="#linear-gradient"/>
  </defs>
  <g id="Group_171" data-name="Group 171" transform="translate(-253.551 -139.182)">
    <g id="Group_15" data-name="Group 15" transform="translate(253.551 139.182)">
      <g id="Group_3" data-name="Group 3" transform="translate(36.735)">
        <g id="Group_1" data-name="Group 1" transform="translate(25.7 179.105)">
          <path id="Path_1" data-name="Path 1" d="M493.193,595.467a158.631,158.631,0,0,1-128.45-65.382,2.293,2.293,0,1,1,3.707-2.7,154.875,154.875,0,0,0,124.743,63.5c76.167,0,141.8-56.757,152.661-132.02a2.293,2.293,0,0,1,4.539.655,158.873,158.873,0,0,1-157.2,135.951Z" transform="translate(-364.303 -456.895)" fill="#844807"/>
        </g>
        <g id="Group_2" data-name="Group 2">
          <path id="Path_2" data-name="Path 2" d="M321.01,263.96a2.295,2.295,0,0,1-2.233-2.824A158.859,158.859,0,0,1,592.84,193.428a2.293,2.293,0,0,1-3.451,3.021A154.272,154.272,0,0,0,323.239,262.2,2.294,2.294,0,0,1,321.01,263.96Z" transform="translate(-318.715 -139.182)" fill="#844807"/>
        </g>
      </g>
      <g id="Group_6" data-name="Group 6" transform="translate(71.263 35.177)">
        <g id="Group_4" data-name="Group 4" transform="translate(20.011 174.755)">
          <path id="Path_3" data-name="Path 3" d="M515.8,584.149a123.486,123.486,0,0,1-100-50.906,1.785,1.785,0,1,1,2.886-2.1,120.119,120.119,0,0,0,205.341-18.551,1.785,1.785,0,0,1,3.216,1.551A123.656,123.656,0,0,1,515.8,584.149Z" transform="translate(-415.459 -511.578)" fill="url(#linear-gradient)"/>
        </g>
        <g id="Group_5" data-name="Group 5">
          <path id="Path_4" data-name="Path 4" d="M381.75,298.726a1.788,1.788,0,0,1-1.739-2.2,124.2,124.2,0,0,1,43.1-67.892,122.325,122.325,0,0,1,77.2-27.054,123.693,123.693,0,0,1,93.064,42.232,1.786,1.786,0,0,1-2.687,2.352,120.107,120.107,0,0,0-207.208,51.187A1.787,1.787,0,0,1,381.75,298.726Z" transform="translate(-379.962 -201.582)" fill="url(#linear-gradient)"/>
        </g>
      </g>
      <g id="Group_11" data-name="Group 11" transform="translate(56.378 13.918)">
        <g id="Group_8" data-name="Group 8">
          <g id="Group_7" data-name="Group 7">
            <path id="Path_5" data-name="Path 5" d="M358.868,311.209c-2.413-1.169-2.857-1.384-3.38-1.6-.555-.23-.87-.226-1.235.244a3.557,3.557,0,0,0-.348.6c-.085.175-.162.254-.273.2s-.089-.18.026-.418c.407-.842.939-1.818,1.155-2.263.238-.492.675-1.515,1.137-2.467.961-1.984,2.245-4.634,4.893-5.488a6.3,6.3,0,0,1,4.777.413,7.005,7.005,0,0,1,3.59,3.875,8.044,8.044,0,0,1-.7,6.225c-.277.571-.64,1.2-.98,1.779s-.656,1.113-.848,1.51c-.085.175-.254.524-.422.912-.177.365-.345.793-.5,1.111-.1.206-.2.294-.312.24-.079-.038-.1-.125,0-.315a2.885,2.885,0,0,0,.213-.6c.09-.348-.22-.6-.65-.883-.628-.4-1.882-1.009-3.342-1.717Zm2.707-1.138c1.682.815,2.912,1.391,3.221,1.522a3.857,3.857,0,0,0,1.291.41c.4-.06,1.035-.518,1.642-1.772a5.667,5.667,0,0,0,.626-4.2c-.381-1.439-1.671-2.456-3.306-3.248a6,6,0,0,0-4.706-.4,6.989,6.989,0,0,0-3.771,3.738,4.689,4.689,0,0,0-.388,1.086.319.319,0,0,0,.225.344c.532.277,1.913.946,3.167,1.554Z" transform="translate(-353.559 -223.14)"/>
            <path id="Path_6" data-name="Path 6" d="M377.6,284.742c-1.907-1.24-2.262-1.471-2.671-1.716a.737.737,0,0,0-1.046.119,2.891,2.891,0,0,0-.38.489c-.087.132-.189.193-.277.135s-.051-.18.074-.373c.443-.68,1.011-1.488,1.184-1.755.289-.444,1.028-1.646,1.288-2.044a5.432,5.432,0,0,1,2.138-2.123,2.619,2.619,0,0,1,2.326.209c.931.606,1.413,1.677,1.606,3.611,2.169-.229,3.9-.406,5.2-.679a2.912,2.912,0,0,0,1.732-.851,1.455,1.455,0,0,0,.232-.291.181.181,0,0,1,.239-.076c.1.068.076.175-.03.338l-.808,1.241a3.364,3.364,0,0,1-1.175,1.256,7.017,7.017,0,0,1-3,.572c-1.016.075-2.215.074-2.513.111a.358.358,0,0,0-.243.179l-.789,1.148a.112.112,0,0,0,.036.171l.178.116c1.168.76,2.153,1.38,2.724,1.667.4.2.674.29.992-.07a5.827,5.827,0,0,0,.458-.607.18.18,0,0,1,.239-.076c.089.058.066.189-.04.352-.49.754-1.237,1.8-1.362,2-.163.251-.657,1.108-.994,1.625-.106.162-.208.223-.3.165-.059-.038-.1-.131,0-.293a2.254,2.254,0,0,0,.254-.488c.114-.3-.074-.532-.415-.817-.494-.405-1.484-1.05-2.638-1.8Zm2.053-1.021c.133.086.2.086.3.026a4.249,4.249,0,0,0,.763-.914,1.556,1.556,0,0,0,.389-1.051,2.534,2.534,0,0,0-1.315-2.054,2.356,2.356,0,0,0-3.521.528,5.594,5.594,0,0,0-.456.8.183.183,0,0,0,.1.233Z" transform="translate(-362.118 -213.354)"/>
            <path id="Path_7" data-name="Path 7" d="M394.076,263.174c-1.779-1.418-2.109-1.682-2.492-1.965-.422-.292-.659-.277-.95-.081a1.991,1.991,0,0,0-.407.4c-.1.124-.182.171-.291.083-.069-.055-.02-.173.134-.366.362-.455,1.05-1.26,1.325-1.6.242-.3.841-1.111,1.215-1.581.121-.152.225-.227.294-.171.111.087.083.179-.016.3a2.152,2.152,0,0,0-.244.391c-.209.375-.12.6.271.961.35.324.681.588,2.46,2.006l2.068,1.649c1.13.9,2.068,1.649,2.608,1.99.35.211.6.272.936-.043a5.787,5.787,0,0,0,.536-.587c.11-.138.223-.138.278-.095.082.066.047.2-.063.335-.638.8-1.338,1.593-1.6,1.925-.22.275-.838,1.135-1.223,1.617-.121.152-.228.2-.311.135-.055-.043-.091-.14.03-.291a2.289,2.289,0,0,0,.3-.461c.143-.292.032-.493-.28-.809-.439-.44-1.376-1.188-2.506-2.089Z" transform="translate(-369.415 -204.879)"/>
            <path id="Path_8" data-name="Path 8" d="M406.739,246.489c-1.647-1.57-1.953-1.862-2.31-2.178a.737.737,0,0,0-1.05-.075,2.887,2.887,0,0,0-.464.41c-.11.115-.221.155-.3.082s-.017-.187.141-.352c.56-.587,1.267-1.278,1.571-1.6.341-.357,2.727-2.834,2.921-3.063s.314-.432.387-.533a1.779,1.779,0,0,1,.119-.227c.061-.064.125-.028.175.021a6.676,6.676,0,0,0,.617.758c.1.122.551.6.655.746.038.061.142.209.057.3s-.136.041-.226-.045a1.408,1.408,0,0,0-.468-.3c-.277-.093-.515-.15-1.1.364-.208.167-1.511,1.483-1.731,1.712-.049.051-.034.114.029.174l2.681,2.557c.064.061.127.1.188.033.244-.255,1.631-1.71,1.849-1.99s.363-.483.346-.695c.008-.162-.019-.262.03-.313a.142.142,0,0,1,.2.021c.064.06.218.256.706.843.193.233.6.672.679.745s.23.244.133.346c-.073.077-.136.065-.187.017-.127-.1-.268-.231-.432-.339-.278-.143-.578-.161-1.018.223-.22.18-1.463,1.432-1.731,1.713-.049.051-.01.112.054.174l.868.828c.37.353,1.277,1.242,1.608,1.533.765.68,1.259.494,2.355-.655a4.183,4.183,0,0,0,.87-1.193c.14-.4.032-.749-.342-1.251-.091-.135-.117-.209-.044-.286s.237.032.352.141a10.016,10.016,0,0,1,1.054,1.3c.208.344.11.447-.291.868-.8.842-1.461,1.507-2.01,2.031s-.951.947-1.267,1.278c-.122.127-.341.382-.6.651s-.5.573-.717.8c-.134.14-.245.18-.322.108-.051-.049-.078-.148.056-.288a2.289,2.289,0,0,0,.339-.433c.168-.279.025-.537-.258-.879-.41-.489-1.266-1.305-2.262-2.254Z" transform="translate(-374.947 -196.612)"/>
            <path id="Path_9" data-name="Path 9" d="M424.238,228.7c-1.457-1.747-1.728-2.072-2.047-2.426a.737.737,0,0,0-1.034-.193,2.855,2.855,0,0,0-.508.355c-.122.1-.237.129-.3.047s0-.187.18-.334c.623-.519,1.4-1.125,1.742-1.408.366-.3,1.2-1.043,1.914-1.643,1.489-1.242,3.493-2.915,5.889-2.686a5.252,5.252,0,0,1,3.564,1.987,5.814,5.814,0,0,1,1.378,4.294,7.236,7.236,0,0,1-2.864,4.687c-.434.361-.982.75-1.478,1.119s-.964.689-1.262.938c-.135.113-.381.341-.666.578s-.56.513-.8.717c-.149.124-.264.151-.332.07-.045-.054-.061-.156.088-.28a2.31,2.31,0,0,0,.386-.391c.2-.257.085-.53-.157-.9-.352-.533-1.109-1.44-1.991-2.5Zm2.66-.061c1.016,1.218,1.764,2.088,1.97,2.306a2.742,2.742,0,0,0,.813.7c.33.092,1.007-.06,1.941-.839a4.888,4.888,0,0,0,1.944-2.955,4.577,4.577,0,0,0-1.368-3.7,4.879,4.879,0,0,0-3.506-1.944,6.26,6.26,0,0,0-4.246,1.683,3.293,3.293,0,0,0-.664.691.264.264,0,0,0,.043.355c.314.4,1.1,1.352,1.862,2.259Z" transform="translate(-382.684 -188.53)"/>
            <path id="Path_10" data-name="Path 10" d="M466.806,199.522c.829,1.476,1.477,2.629,1.917,3.232.3.42.579.706,1.074.509a7.463,7.463,0,0,0,.8-.37c.2-.112.288-.1.33-.024.061.108-.021.214-.251.343-.969.544-1.963,1.042-2.364,1.267s-1.343.815-1.927,1.143c-.215.121-.34.151-.409.028-.043-.077-.007-.157.162-.253a2.842,2.842,0,0,0,.519-.373c.273-.234.16-.615-.029-1.1-.286-.689-.934-1.842-1.763-3.318l-1.52-2.707c-1.313-2.337-1.555-2.768-1.862-3.243-.324-.506-.585-.682-1.153-.505a3.607,3.607,0,0,0-.626.291c-.153.086-.279.116-.33.024-.069-.123.037-.223.267-.352.4-.225.855-.459,1.254-.684.409-.209.771-.392.986-.513.585-.329,3.706-2.082,4.051-2.3a3.394,3.394,0,0,0,.6-.416c.075-.082.118-.187.194-.231a.143.143,0,0,1,.185.078c.06.108.087.335.266.761.071.162.55,1.087.622,1.289.054.131.075.241-.033.3s-.182,0-.292-.16a1.733,1.733,0,0,0-.42-.533,1.274,1.274,0,0,0-1.274.109l-2.394,1.284c-.092.052-.113.123-.017.293l2.159,3.845c.052.092.093.13.185.078l1.96-1.121c.262-.147.476-.268.683-.4a.923.923,0,0,0,.506-.648c.025-.136.021-.214.113-.266.062-.035.118-.006.17.087s.191.519.413,1.022c.142.325.509,1.049.569,1.157.078.139.164.293.01.379-.092.052-.183-.038-.244-.146a1.955,1.955,0,0,0-.36-.425,1.037,1.037,0,0,0-1.1-.113c-.41.17-2.04,1.085-2.3,1.232-.077.043-.09.091-.03.2Z" transform="translate(-399.715 -175.256)"/>
            <path id="Path_11" data-name="Path 11" d="M487.422,189.7c-.894-2.091-1.06-2.481-1.263-2.912a.737.737,0,0,0-.935-.483,2.87,2.87,0,0,0-.589.194c-.146.063-.264.055-.306-.042s.058-.178.269-.27c.746-.319,1.668-.674,1.96-.8.487-.208,1.77-.795,2.208-.98a5.426,5.426,0,0,1,2.958-.573,2.618,2.618,0,0,1,1.816,1.467c.436,1.022.241,2.179-.676,3.895,1.93,1.016,3.47,1.835,4.7,2.327a2.909,2.909,0,0,0,1.913.257,1.447,1.447,0,0,0,.354-.113.18.18,0,0,1,.241.069c.048.113-.034.187-.213.264l-1.363.582a3.367,3.367,0,0,1-1.674.39,7.027,7.027,0,0,1-2.813-1.2c-.886-.5-1.881-1.171-2.15-1.306a.357.357,0,0,0-.3.014l-1.295.515a.112.112,0,0,0-.065.162l.083.194c.548,1.281,1.021,2.345,1.336,2.9.222.384.4.617.863.494a5.916,5.916,0,0,0,.718-.249.179.179,0,0,1,.241.069c.042.1-.051.194-.229.271-.827.353-2.032.811-2.243.9-.276.118-1.164.554-1.731.8-.179.076-.3.069-.338-.028-.028-.065-.014-.167.165-.243a2.291,2.291,0,0,0,.482-.264c.264-.189.234-.484.109-.91-.184-.611-.649-1.7-1.189-2.963ZM489.7,190c.062.146.116.181.233.188a4.244,4.244,0,0,0,1.142-.334c.568-.242.741-.374.909-.657a2.536,2.536,0,0,0,.051-2.438,2.357,2.357,0,0,0-3.22-1.52,5.6,5.6,0,0,0-.822.409.183.183,0,0,0-.046.25Z" transform="translate(-410.606 -172.561)"/>
            <path id="Path_12" data-name="Path 12" d="M513.039,178.706c-.638-2.183-.74-2.594-.907-3.041-.182-.5-.357-.594-.87-.591a2.8,2.8,0,0,0-.591.117q-.254.074-.3-.078c-.03-.1.062-.165.282-.231.8-.232,1.8-.49,2.244-.618.373-.109,1.361-.434,1.9-.591.22-.064.331-.06.361.042s-.04.178-.192.222a2.187,2.187,0,0,0-.425.179c-.37.182-.429.419-.315.937.1.467.218.873.856,3.057l.588,2.014c.613,2.1,1.257,2.793,2.153,3.156a2.99,2.99,0,0,0,2.047.027,2.959,2.959,0,0,0,1.775-1.346c.6-1.02.27-2.283-.161-3.756l-.529-1.811c-.638-2.183-.773-2.585-.924-3.037-.177-.481-.34-.6-.854-.6a2.691,2.691,0,0,0-.557.108c-.169.05-.268.023-.3-.078s.062-.165.266-.225c.761-.223,1.77-.481,1.787-.486.169-.049,1.158-.375,1.734-.542.2-.059.315-.055.344.047s-.04.177-.209.227a2.107,2.107,0,0,0-.425.179c-.387.186-.429.419-.315.937.117.462.219.873.856,3.057l.45,1.54c.47,1.608.795,3.35-.156,4.749a4.833,4.833,0,0,1-2.846,1.952,5.361,5.361,0,0,1-3.689.012c-.955-.438-1.859-1.331-2.467-3.413Z" transform="translate(-421.969 -167.199)"/>
            <path id="Path_13" data-name="Path 13" d="M543.732,172.763c-.419-2.237-.5-2.653-.6-3.118-.129-.5-.318-.64-.666-.683a2.027,2.027,0,0,0-.568.034c-.156.03-.249.011-.275-.127-.016-.087.1-.144.342-.189.572-.107,1.619-.267,2.053-.348.381-.072,1.363-.291,1.953-.4.191-.036.319-.024.335.063.025.139-.055.19-.21.219a2.205,2.205,0,0,0-.441.137c-.4.147-.485.378-.423.9.053.474.131.89.55,3.127l.487,2.6c.267,1.422.487,2.6.673,3.212.127.388.273.595.737.58a5.829,5.829,0,0,0,.79-.094c.173-.033.259.041.272.111.02.1-.092.178-.266.211-1.005.188-2.055.331-2.471.409-.347.065-1.378.312-1.984.425-.191.036-.3,0-.324-.1-.013-.07.023-.166.214-.2a2.279,2.279,0,0,0,.528-.153c.3-.127.347-.352.318-.795-.045-.62-.266-1.8-.532-3.221Z" transform="translate(-435.603 -165.634)"/>
            <path id="Path_14" data-name="Path 14" d="M564.527,165.872l-2.3.266c-.894.1-1.253.24-1.451.595a1.754,1.754,0,0,0-.216.533c-.024.126-.052.2-.158.209s-.149-.074-.163-.232c-.023-.246.143-1.714.166-1.84.017-.2.062-.289.149-.3.123-.011.293.1.684.114a14.711,14.711,0,0,0,1.551-.072l6.27-.58a6.949,6.949,0,0,0,1.047-.167c.242-.058.362-.1.415-.109.106-.01.131.077.152.3.029.316.1,1.426.133,1.812,0,.16-.03.251-.118.259-.123.012-.165-.055-.2-.282l-.032-.156c-.071-.383-.517-.8-1.906-.692l-1.952.145.558,6.041c.127,1.37.253,2.545.383,3.188.092.416.206.689.669.717a5.825,5.825,0,0,0,.8-.02c.175-.016.254.065.26.135.01.105-.108.17-.284.186-1.019.094-2.059.137-2.5.178-.351.033-1.4.183-2.015.24-.193.017-.3-.025-.313-.13-.007-.071.038-.163.231-.181a2.189,2.189,0,0,0,.539-.1c.31-.1.372-.388.383-.833.012-.639-.1-1.815-.223-3.185Z" transform="translate(-443.727 -164.054)"/>
            <path id="Path_15" data-name="Path 15" d="M589.589,175.194c-.246-.108-.3-.179-.3-.514.007-.811.086-1.745.106-1.992,0-.229.074-.387.2-.386.141,0,.157.143.157.249a2.777,2.777,0,0,0,.134.777,2.4,2.4,0,0,0,2.456,1.5,1.946,1.946,0,0,0,2.169-1.885c.006-.653-.147-1.307-1.516-2.13l-.895-.537c-1.824-1.093-2.415-2.1-2.4-3.425.016-1.834,1.79-3,3.942-2.981a9.214,9.214,0,0,1,2.2.267c.14.036.21.09.21.2,0,.194-.058.617-.069,1.8,0,.317-.075.476-.2.475-.105,0-.158-.09-.156-.267a1.7,1.7,0,0,0-.4-.99,2.085,2.085,0,0,0-1.722-.721c-1.111-.01-2.121.563-2.13,1.586-.006.67.236,1.2,1.622,1.989l.632.359c2.036,1.147,2.66,2.3,2.648,3.656a3.2,3.2,0,0,1-1.576,2.79,4.521,4.521,0,0,1-2.6.595A6.587,6.587,0,0,1,589.589,175.194Z" transform="translate(-456.402 -163.872)"/>
            <path id="Path_16" data-name="Path 16" d="M631.14,169.685a3.9,3.9,0,0,1-.421-2.627c.24-1.373,1.8-2.964,4.812-2.4a6.041,6.041,0,0,1,2.028.759c.275.159.249.3.21.506a21.346,21.346,0,0,1-.609,2.182c-.083.253-.16.275-.263.255s-.109-.092-.06-.352a2.291,2.291,0,0,0-.228-1.55,2.427,2.427,0,0,0-1.777-1.142,1.884,1.884,0,0,0-2.226,1.626c-.307,1.629.923,3.3,2.019,5.1.462.787,2.231,3.112,2.505,3.469A5.322,5.322,0,0,0,638.465,173a1.04,1.04,0,0,0-.179-.859,1.322,1.322,0,0,0-.8-.419c-.1-.02-.2-.074-.182-.178.026-.139.172-.147.311-.121a19.919,19.919,0,0,1,2.057.514c.323.1.563.249.524.458a7.02,7.02,0,0,1-2.471,3.787,18.081,18.081,0,0,0,2.089,2.152,5.184,5.184,0,0,0,1.74.956c.156.03.239.064.212.2-.019.1-.167.13-.549.058l-1.334-.252a5.3,5.3,0,0,1-3.839-2.1,5.671,5.671,0,0,1-4.4.8c-3.709-.7-4.381-3.23-4.1-4.737A5.183,5.183,0,0,1,631.14,169.685Zm4.331,6.827c-.842-1.056-2.2-3-2.558-3.568s-1.233-2.027-1.446-2.515a3.156,3.156,0,0,0-1.692,2.409,3.4,3.4,0,0,0,2.659,4.179A4.672,4.672,0,0,0,635.471,176.513Z" transform="translate(-473.063 -164.165)"/>
            <path id="Path_17" data-name="Path 17" d="M675.224,186.947c-.494,1.284-.458,1.8-.179,2.045a2.788,2.788,0,0,0,.8.465c.179.074.264.148.223.246-.054.13-.214.1-.442.008-1.059-.439-1.691-.758-2-.886-.147-.061-.933-.329-1.78-.68-.212-.088-.352-.165-.292-.312.041-.1.152-.09.315-.022a3.114,3.114,0,0,0,.767.222c.478.046.739-.4,1.342-1.81l4.142-9.585c.135-.326.278-.533.441-.466.179.074.238.347.394.755.108.293,1.484,3.974,2.885,7.322.649,1.566,1.876,4.823,2.045,5.2l.081.034,2.868-7.383c.4-1,.377-1.37.054-1.7a2.87,2.87,0,0,0-.823-.456c-.2-.081-.241-.157-.2-.255.054-.13.24-.072.484.028.847.351,1.609.724,1.952.865.179.074.819.282,1.616.614.212.087.368.171.315.3-.041.1-.159.106-.354.025a1.912,1.912,0,0,0-.51-.154c-.51-.059-.782.23-1.176,1.135l-4.438,10.206c-.148.358-.274.477-.421.417-.179-.074-.3-.335-.405-.589-.621-1.4-1.823-4.4-2.821-6.78-1.047-2.5-2.012-5.281-2.177-5.712l-.049-.02Z" transform="translate(-492.284 -169.232)"/>
            <path id="Path_18" data-name="Path 18" d="M709.842,198.077c1.149-1.964,1.378-2.32,1.588-2.749a.727.727,0,0,0-.168-1.038,2.8,2.8,0,0,0-.491-.348c-.152-.089-.2-.179-.148-.271s.163-.069.36.049c.715.419,1.6.975,1.991,1.206.335.2,1.251.691,1.738.975.2.116.272.2.218.291s-.157.092-.293.012a2.126,2.126,0,0,0-.423-.186c-.386-.144-.6-.024-.9.415-.271.393-.484.759-1.634,2.722l-1.06,1.811c-1.1,1.887-1.167,2.832-.815,3.732a3.29,3.29,0,0,0,3.584,1.872c1.156-.264,1.845-1.372,2.62-2.7l.953-1.629c1.149-1.963,1.348-2.338,1.573-2.758a.723.723,0,0,0-.154-1.029,2.646,2.646,0,0,0-.46-.331q-.228-.134-.148-.271c.054-.091.163-.068.345.041.686.4,1.565.957,1.58.966.153.089,1.068.584,1.586.885.182.107.255.191.2.282s-.156.092-.308,0a2.14,2.14,0,0,0-.423-.186c-.4-.153-.6-.024-.9.415-.256.4-.485.758-1.634,2.722l-.811,1.385c-.846,1.445-1.889,2.878-3.559,3.148a4.841,4.841,0,0,1-3.375-.728,5.366,5.366,0,0,1-2.542-2.673c-.338-.995-.309-2.265.787-4.138Z" transform="translate(-508.081 -176.847)"/>
            <path id="Path_19" data-name="Path 19" d="M739.486,213.4l-1.878-1.347c-.729-.527-1.089-.665-1.474-.536a1.767,1.767,0,0,0-.519.25c-.1.077-.174.113-.258.049s-.059-.155.036-.282c.148-.2,1.258-1.172,1.36-1.25.144-.134.24-.173.311-.119.1.074.151.268.43.543a14.446,14.446,0,0,0,1.2.99l5.031,3.787a6.915,6.915,0,0,0,.888.58c.218.121.339.166.381.2.084.064.045.145-.092.328-.191.254-.888,1.12-1.121,1.43-.11.116-.191.165-.261.112-.1-.074-.085-.152.039-.346l.082-.138c.205-.331.157-.941-.946-1.794l-1.543-1.205L737.5,219.5c-.827,1.1-1.524,2.054-1.86,2.618-.213.37-.312.648.012.981a5.859,5.859,0,0,0,.6.519c.141.106.144.219.1.276-.064.084-.195.052-.335-.054-.817-.615-1.617-1.283-1.969-1.548-.282-.212-1.16-.806-1.652-1.178-.155-.117-.208-.223-.145-.307.043-.056.138-.1.293.021a2.166,2.166,0,0,0,.468.286c.3.135.537-.038.844-.358.438-.465,1.149-1.409,1.976-2.509Z" transform="translate(-518.76 -184.059)"/>
            <path id="Path_20" data-name="Path 20" d="M750.006,237.813c-.11-.245-.1-.333.126-.579.551-.6,1.237-1.235,1.418-1.4.156-.169.315-.237.405-.154s.021.212-.05.289a2.8,2.8,0,0,0-.424.666,2.4,2.4,0,0,0,.808,2.764,1.945,1.945,0,0,0,2.873.061c.443-.479.769-1.066.31-2.6l-.3-1c-.617-2.036-.375-3.181.523-4.153,1.245-1.347,3.343-1.018,4.923.443a9.179,9.179,0,0,1,1.452,1.678c.079.122.1.208.024.286-.132.142-.458.417-1.26,1.285-.216.233-.375.3-.466.218s-.056-.173.063-.3a1.7,1.7,0,0,0,.373-1,2.086,2.086,0,0,0-.791-1.691c-.816-.755-1.949-1.01-2.644-.258-.455.492-.633,1.049-.136,2.564l.227.69c.736,2.218.424,3.491-.5,4.489a3.207,3.207,0,0,1-3.044,1.006,4.52,4.52,0,0,1-2.323-1.307A6.586,6.586,0,0,1,750.006,237.813Z" transform="translate(-526.485 -193.096)"/>
          </g>
        </g>
        <g id="Group_10" data-name="Group 10" transform="translate(30.503 211.491)">
          <g id="Group_9" data-name="Group 9">
            <path id="Path_21" data-name="Path 21" d="M412.458,586.835c-1.275,1.152-1.962,1.773-1.945,2.151.009.311.182.642.909,1.445.494.546.868.94,1.37.954a1.652,1.652,0,0,0,.839-.272c.1-.07.178-.1.252-.021s.025.127-.094.236a10.309,10.309,0,0,1-1.285.88c-.275.137-.371.13-.856-.406-.671-.742-1.137-1.3-1.546-1.77s-.726-.862-1.108-1.284c-.1-.113-.308-.34-.542-.579-.214-.237-.476-.487-.663-.693-.121-.134-.157-.233-.087-.3.05-.045.116-.032.229.093a2.339,2.339,0,0,0,.375.335c.227.17.492.024.818-.2.465-.327,1.251-1.038,2.168-1.866l1.753-1.584c1.513-1.368,1.792-1.621,2.091-1.93.32-.326.4-.553.167-.956a2.156,2.156,0,0,0-.278-.367c-.1-.113-.138-.193-.068-.256s.154-.009.295.148c.437.485,1,1.16,1.248,1.439.224.247.934.973,1.3,1.373.13.144.175.234.105.3s-.145.019-.258-.1a3.786,3.786,0,0,0-.393-.375c-.3-.234-.546-.162-.913.132-.337.267-.617.519-2.129,1.887Z" transform="translate(-407.667 -557.091)"/>
            <path id="Path_22" data-name="Path 22" d="M424.256,597.668c1.194-1.252,1.416-1.485,1.656-1.757a.567.567,0,0,0,.044-.812,2.362,2.362,0,0,0-.324-.365c-.09-.086-.123-.172-.067-.231s.144-.011.275.113c.462.442,1.007,1,1.258,1.238.281.268,2.232,2.148,2.412,2.3a5.075,5.075,0,0,0,.418.306,1.421,1.421,0,0,1,.178.1c.05.048.023.1-.014.135a5.07,5.07,0,0,0-.579.467c-.094.078-.457.418-.569.5-.047.03-.16.107-.23.04s-.033-.106.032-.174a1.038,1.038,0,0,0,.226-.359c.069-.213.11-.4-.3-.857-.132-.163-1.169-1.189-1.35-1.362-.041-.038-.089-.028-.135.02L425.246,599c-.046.049-.073.1-.023.145.2.192,1.347,1.285,1.567,1.458s.379.287.542.276c.127.009.2-.01.243.028a.109.109,0,0,1-.013.154c-.046.048-.2.166-.644.535-.177.146-.512.457-.568.515s-.186.176-.267.1c-.06-.058-.052-.106-.016-.144.074-.1.176-.2.257-.33.108-.213.117-.445-.186-.79-.143-.172-1.129-1.151-1.35-1.361-.04-.038-.087-.01-.134.039l-.629.66c-.268.281-.945.971-1.167,1.223-.517.582-.365.968.539,1.83a3.394,3.394,0,0,0,.935.69.962.962,0,0,0,.966-.247c.1-.068.161-.088.22-.03s-.021.184-.1.271a7.451,7.451,0,0,1-.991.8c-.264.157-.345.079-.676-.236-.664-.633-1.187-1.151-1.6-1.584s-.746-.748-1.007-1c-.1-.1-.3-.268-.512-.47s-.45-.393-.631-.565c-.111-.106-.144-.192-.087-.25.037-.039.113-.059.224.046a1.811,1.811,0,0,0,.34.268c.218.134.416.027.678-.187.374-.311.994-.961,1.716-1.719Z" transform="translate(-412.996 -563.222)"/>
            <path id="Path_23" data-name="Path 23" d="M440.679,607.7l-1.432-1.125c-.556-.439-.833-.561-1.134-.479a1.29,1.29,0,0,0-.408.169c-.081.055-.136.078-.2.025s-.043-.122.034-.215c.119-.146,1-.846,1.08-.9.116-.1.19-.122.244-.077.076.062.113.214.324.438a11.61,11.61,0,0,0,.911.818l3.833,3.148a5.574,5.574,0,0,0,.678.487c.167.1.26.144.293.17.064.054.033.113-.078.249-.153.186-.711.823-.9,1.05-.087.085-.152.119-.2.076-.075-.063-.063-.121.037-.265l.066-.1c.166-.246.14-.718-.7-1.425l-1.175-1-2.929,3.567c-.663.81-1.223,1.513-1.5,1.932-.171.275-.254.485-.009.755a4.824,4.824,0,0,0,.458.428c.108.087.108.175.074.217-.051.062-.152.032-.259-.056-.624-.512-1.232-1.064-1.5-1.284-.215-.176-.884-.674-1.261-.983-.117-.1-.157-.18-.105-.243.034-.042.108-.067.227.03a1.828,1.828,0,0,0,.359.242c.227.117.417-.005.662-.237.35-.338.92-1.033,1.584-1.842Z" transform="translate(-419.546 -567.842)"/>
            <path id="Path_24" data-name="Path 24" d="M460.3,625.262c.921-1.465,1.1-1.731,1.273-2.052.191-.356.154-.506-.118-.8a2.282,2.282,0,0,0-.378-.286q-.177-.111-.112-.213c.043-.068.129-.047.281.049.552.348,1.232.807,1.538,1,.258.162.966.576,1.342.813.153.1.209.163.166.232s-.123.065-.229,0a1.708,1.708,0,0,0-.327-.158c-.3-.125-.467-.04-.7.286-.216.292-.388.565-1.309,2.03l-.85,1.353c-.886,1.409-.947,2.132-.684,2.837a2.412,2.412,0,0,0,1.063,1.207,2.372,2.372,0,0,0,1.709.363c.9-.16,1.457-.987,2.078-1.975l.763-1.215c.922-1.465,1.082-1.746,1.263-2.06a.554.554,0,0,0-.107-.8,2.123,2.123,0,0,0-.355-.272c-.118-.074-.154-.145-.112-.213s.128-.046.269.042c.529.333,1.209.792,1.22.8.117.073.825.488,1.226.74.141.089.2.156.155.224s-.124.064-.241-.009a1.722,1.722,0,0,0-.328-.158c-.311-.132-.466-.041-.7.286-.2.3-.387.564-1.309,2.03l-.649,1.034a4.124,4.124,0,0,1-2.816,2.288,3.9,3.9,0,0,1-2.623-.683,4.338,4.338,0,0,1-1.949-2.147,3.6,3.6,0,0,1,.666-3.148Z" transform="translate(-429.892 -575.17)"/>
            <path id="Path_25" data-name="Path 25" d="M475.279,641.715c-.135-.161-.147-.228-.029-.454.287-.547.666-1.151.766-1.31.082-.156.187-.236.273-.192s.06.154.023.225a2.073,2.073,0,0,0-.176.574,1.9,1.9,0,0,0,1.2,1.9,1.514,1.514,0,0,0,2.175-.5c.231-.44.351-.938-.324-1.988l-.44-.685c-.9-1.4-.963-2.293-.5-3.184.648-1.237,2.3-1.388,3.8-.6a7.42,7.42,0,0,1,1.452.974c.086.074.117.137.079.207-.069.131-.255.4-.673,1.193-.112.214-.218.3-.3.251s-.079-.118-.017-.237a1.261,1.261,0,0,0,.065-.814,1.665,1.665,0,0,0-.956-1.108c-.776-.406-1.683-.383-2.045.307-.237.452-.253.9.446,1.931l.319.471c1.028,1.509,1.066,2.514.586,3.43a2.42,2.42,0,0,1-2.075,1.321,3.664,3.664,0,0,1-2.028-.533A5.38,5.38,0,0,1,475.279,641.715Z" transform="translate(-437.116 -580.909)"/>
            <path id="Path_26" data-name="Path 26" d="M489.693,652.368a.821.821,0,0,1,1.113-.39.788.788,0,0,1,.444,1.062.831.831,0,0,1-1.142.42A.8.8,0,0,1,489.693,652.368Z" transform="translate(-443.417 -588.268)"/>
            <path id="Path_27" data-name="Path 27" d="M497.889,655.994a.82.82,0,0,1,1.1-.43.788.788,0,0,1,.483,1.044.832.832,0,0,1-1.126.462A.794.794,0,0,1,497.889,655.994Z" transform="translate(-446.998 -589.839)"/>
            <path id="Path_28" data-name="Path 28" d="M507.012,653.89a.753.753,0,0,1,1-.448.716.716,0,0,1,.483.938.778.778,0,0,1-1.023.48A.73.73,0,0,1,507.012,653.89Zm1.246-1.843c.172-.624.9-3.346.943-3.544s.511-1.858.565-2.367a2.9,2.9,0,0,1,.017-.366.363.363,0,0,1,.14-.178,3.313,3.313,0,0,1,1.466-.358,1.454,1.454,0,0,1,.542.057c.078.029.09.119.056.207-.042.114-.373.649-.81,1.546-.11.217-2.393,4.9-2.548,5.2-.124.255-.2.384-.345.331S508.177,652.346,508.258,652.047Z" transform="translate(-450.986 -585.362)"/>
            <path id="Path_29" data-name="Path 29" d="M529.017,654.7c.513-1.974.607-2.337.688-2.761.088-.449.034-.684-.386-.89a2.946,2.946,0,0,0-.515-.175c-.148-.039-.221-.086-.2-.177s.125-.092.326-.039c.363.094.75.209,1.086.3.347.1.652.2.841.246.431.111,3.107.807,3.365.86a5.779,5.779,0,0,0,.6.072,1.326,1.326,0,0,1,.228,0c.068.018.068.073.051.139a8.365,8.365,0,0,0-.327.815c-.047.126-.222.692-.29.841-.03.061-.077.132-.171.108s-.1-.1-.073-.213a1.406,1.406,0,0,0,.04-.489c-.033-.258-.127-.449-.78-.7-.222-.086-1.628-.479-1.9-.548-.068-.018-.1.014-.128.105l-.853,3.286c-.024.09-.024.147.057.167.3.077,1.843.479,2.159.533a1,1,0,0,0,.7-.027c.121-.08.191-.131.259-.113.053.014.087.05.067.128s-.127.272-.353.921c-.081.256-.257.765-.28.856s-.064.247-.185.215a.108.108,0,0,1-.09-.148,3.407,3.407,0,0,0,.067-.482c0-.276-.138-.52-.622-.7-.249-.092-1.577-.451-1.9-.534-.068-.018-.094.03-.115.109l-.266,1.025c-.115.442-.439,1.633-.523,2.014-.206.9-.041,1.153,1.33,1.51a3.665,3.665,0,0,0,1.306.173c.39-.065.622-.3.854-.8.064-.136.1-.181.2-.157s.08.133.046.262a10.185,10.185,0,0,1-.549,1.4c-.182.313-.3.282-.813.149-1.01-.262-1.742-.48-2.317-.643s-.985-.3-1.39-.4c-.148-.038-.443-.115-.77-.186-.308-.08-.665-.144-.935-.215-.174-.045-.259-.109-.235-.2.017-.065.081-.09.242-.048a2.307,2.307,0,0,0,.5.073c.282.019.424-.25.576-.613.208-.528.474-1.554.784-2.749Z" transform="translate(-459.431 -587.714)"/>
            <path id="Path_30" data-name="Path 30" d="M545.109,663.63c-.069-.012-.085,0-.124.059l-.914,1.389a2.012,2.012,0,0,0-.3.655c-.036.2.052.337.421.4l.178.033c.151.028.169.085.157.151-.017.092-.09.107-.213.085-.4-.072-.95-.214-1.334-.283-.123-.021-.772-.1-1.4-.213-.151-.027-.214-.066-.2-.158.012-.067.063-.112.158-.094s.249.031.358.051c.562.019.828-.287,1.177-.81l4.422-6.495c.194-.292.313-.406.436-.384.178.032.214.147.291.42.175.672,1.356,5.632,1.814,7.473.282,1.1.6,1.308.809,1.387a3.068,3.068,0,0,0,.444.121q.164.03.143.149c-.016.092-.09.106-.541.024-.424-.076-1.3-.235-2.306-.444-.216-.053-.353-.078-.339-.157s.046-.1.171-.091a.179.179,0,0,0,.155-.232l-.523-2.426a.117.117,0,0,0-.108-.1Zm2.683-.156c.055.01.073-.014.067-.056l-.62-3.058c-.006-.042-.008-.111-.035-.116s-.067.056-.087.094l-1.675,2.628c-.037.048-.014.08.027.087Z" transform="translate(-466 -590.941)"/>
            <path id="Path_31" data-name="Path 31" d="M564.82,661l-1.814-.162c-.706-.065-1.006-.019-1.213.215a1.338,1.338,0,0,0-.251.364c-.038.09-.072.14-.155.131s-.1-.078-.089-.2c.02-.187.378-1.254.415-1.344.044-.144.093-.206.162-.2.1.011.21.118.51.192a11.723,11.723,0,0,0,1.21.189l4.931.551a5.536,5.536,0,0,0,.835.039c.2-.005.3-.021.337-.017.083.01.09.078.07.251-.026.24-.148,1.077-.181,1.37-.028.119-.062.183-.132.175-.1-.011-.117-.068-.112-.242v-.122c0-.3-.274-.678-1.364-.814l-1.53-.2-.514,4.588c-.117,1.041-.2,1.936-.2,2.436.006.324.05.546.4.639a4.794,4.794,0,0,0,.617.11c.138.016.186.088.179.141-.008.08-.109.11-.247.094-.8-.09-1.612-.22-1.957-.259-.276-.03-1.109-.083-1.593-.138-.152-.017-.23-.066-.221-.146.006-.054.054-.116.206-.1a1.775,1.775,0,0,0,.433.008c.254-.026.348-.231.426-.56.109-.475.209-1.368.326-2.408Z" transform="translate(-474.689 -591.72)"/>
            <path id="Path_32" data-name="Path 32" d="M591.428,667.993a2.224,2.224,0,0,0-.278-1.195c-.083-.175-1.751-2.684-2.182-3.288a2.658,2.658,0,0,0-.792-.8,1.239,1.239,0,0,0-.514-.147c-.1,0-.181-.041-.181-.121s.083-.107.237-.11c.208,0,1.125.026,1.528.026.264,0,.834-.027,1.389-.025.112,0,.18.026.181.107s-.083.094-.278.148c-.1.026-.167.079-.167.174a.866.866,0,0,0,.153.39c.222.349,1.821,3.019,2.029,3.341.153-.268,1.638-2.712,1.819-3.061a1.473,1.473,0,0,0,.18-.6c0-.107-.056-.214-.264-.255-.11-.027-.222-.041-.222-.135s.07-.107.209-.109c.4,0,.834.026,1.2.026.264,0,1.07-.027,1.306-.025.139,0,.221.027.221.094s-.1.134-.236.134a1.546,1.546,0,0,0-.527.135,1.619,1.619,0,0,0-.639.537,37.942,37.942,0,0,0-2.375,3.652,2.575,2.575,0,0,0-.153,1.141v.912c0,.188,0,.658.028,1.141.028.335.139.55.5.6a4.6,4.6,0,0,0,.611.04c.139,0,.208.068.209.121,0,.081-.1.121-.263.121-.765,0-1.585-.04-1.917-.04-.306,0-1.125.041-1.583.041-.167,0-.264-.027-.264-.121,0-.054.055-.121.194-.121a1.938,1.938,0,0,0,.431-.04c.25-.054.347-.269.375-.6.041-.483.041-.953.041-1.141Z" transform="translate(-486.113 -592.82)"/>
            <path id="Path_33" data-name="Path 33" d="M606.649,666.11c-.158-1.94,1.05-4.57,4.749-4.87,3.075-.25,5.121,1.241,5.333,3.85s-1.589,4.815-4.733,5.07C608.451,670.448,606.813,668.129,606.649,666.11Zm8.3-.457c-.205-2.516-1.9-3.941-3.863-3.781-1.357.11-2.894.935-2.665,3.744.189,2.341,1.726,4.075,4.024,3.889C613.306,669.435,615.213,668.889,614.95,665.652Z" transform="translate(-494.47 -592.335)"/>
            <path id="Path_34" data-name="Path 34" d="M629.442,662.089c-.3-1.706-.34-2.026-.43-2.378-.1-.392-.224-.479-.626-.517a2.353,2.353,0,0,0-.472.041q-.206.036-.227-.082c-.013-.08.064-.121.242-.153.644-.112,1.456-.227,1.811-.289.3-.054,1.1-.221,1.543-.3.178-.032.264-.02.278.06s-.047.131-.171.152a1.806,1.806,0,0,0-.349.1c-.306.108-.374.284-.331.685.035.362.091.68.388,2.385l.276,1.575c.286,1.639.727,2.215,1.393,2.563a2.421,2.421,0,0,0,1.6.184,2.379,2.379,0,0,0,1.511-.878c.564-.726.421-1.709.22-2.86l-.248-1.415c-.3-1.705-.368-2.02-.444-2.374-.095-.379-.211-.481-.613-.52a2.131,2.131,0,0,0-.445.037c-.137.024-.212,0-.226-.083s.063-.12.228-.15c.616-.107,1.429-.223,1.443-.226.136-.023.94-.191,1.405-.272.164-.028.251-.016.264.063s-.047.131-.184.155a1.716,1.716,0,0,0-.348.1c-.32.11-.374.284-.332.685.049.36.09.679.389,2.384l.21,1.2a4.129,4.129,0,0,1-.557,3.587,3.9,3.9,0,0,1-2.4,1.253,4.338,4.338,0,0,1-2.886-.285,3.6,3.6,0,0,1-1.616-2.783Z" transform="translate(-503.654 -590.656)"/>
            <path id="Path_35" data-name="Path 35" d="M662.737,656.767c.319,1.053.566,1.82.759,2.266.137.309.279.49.64.437a4.514,4.514,0,0,0,.585-.135c.145-.044.219,0,.234.055.024.077-.045.139-.217.192-.745.225-1.581.436-1.887.528s-1.039.357-1.477.49c-.16.048-.247.047-.275-.043-.016-.051.005-.128.138-.167a1.887,1.887,0,0,0,.4-.164c.223-.124.228-.349.17-.683-.087-.478-.333-1.286-.652-2.34l-.583-1.926c-.5-1.657-.6-1.965-.714-2.307a.559.559,0,0,0-.685-.437,2.384,2.384,0,0,0-.476.1c-.107.033-.211.022-.235-.055s.062-.131.249-.187c.6-.182,1.35-.381,1.683-.481.452-.137,3.049-.909,3.324-1.007a3.575,3.575,0,0,0,.463-.2c.062-.033.1-.1.166-.121.041-.012.1.027.11.078.023.078.01.221.055.516.022.119.19.769.215.9.014.094.026.23-.054.254s-.161-.007-.2-.136a.891.891,0,0,0-.192-.39.851.851,0,0,0-.846-.109l-1.953.549c-.066.021-.1.059-.06.187l.8,2.646c.02.064.045.1.111.078l1.631-.508c.2-.061.36-.109.528-.174a.642.642,0,0,0,.433-.342c.047-.084.058-.144.125-.164.04-.012.078.018.1.083s.056.376.121.734c.04.226.179.731.2.808s.06.249-.059.285c-.067.02-.13-.045-.153-.122a1.037,1.037,0,0,0-.182-.309.617.617,0,0,0-.679-.229c-.3.062-1.687.468-1.887.529-.052.016-.076.037-.052.113Z" transform="translate(-517.079 -587.698)"/>
            <path id="Path_36" data-name="Path 36" d="M676.18,651.326c-.717-1.809-.328-4.676,3.121-6.043,2.867-1.136,5.257-.308,6.221,2.124s-.115,5.068-3.046,6.23C679.168,654.948,676.925,653.21,676.18,651.326Zm7.8-2.861c-.928-2.346-2.961-3.214-4.8-2.488-1.265.5-2.493,1.739-1.456,4.358.864,2.183,2.837,3.393,4.981,2.544C683.513,652.562,685.177,651.485,683.982,648.465Z" transform="translate(-524.679 -585.167)"/>
            <path id="Path_37" data-name="Path 37" d="M697.478,642.151c-.889-1.731-.781-4.623,2.52-6.318,2.744-1.41,5.2-.819,6.4,1.508s.379,5.056-2.428,6.5C700.806,645.466,698.4,643.954,697.478,642.151Zm7.492-3.608c-1.154-2.244-3.262-2.911-5.018-2.008-1.211.622-2.314,1.974-1.026,4.48,1.073,2.089,3.156,3.1,5.208,2.046C704.9,642.668,706.454,641.432,704.97,638.543Z" transform="translate(-533.894 -580.932)"/>
            <path id="Path_38" data-name="Path 38" d="M716.568,629.845c-.932-1.459-1.106-1.73-1.313-2.027a.567.567,0,0,0-.778-.236,2.321,2.321,0,0,0-.432.228c-.1.068-.2.078-.24.011s.024-.143.176-.241c.539-.344,1.209-.741,1.5-.928.316-.2,1.04-.7,1.659-1.092,1.288-.824,3.02-1.932,4.845-1.554a3.927,3.927,0,0,1,2.534,1.821,4.353,4.353,0,0,1,.591,3.4,5.822,5.822,0,0,1-2.729,3.34c-.375.238-.842.49-1.266.729s-.82.445-1.078.609c-.117.075-.331.228-.578.386s-.488.345-.7.479c-.13.083-.222.094-.264.026-.029-.045-.03-.125.1-.206a1.89,1.89,0,0,0,.341-.266c.181-.18.125-.4-.022-.7-.213-.437-.7-1.195-1.262-2.076Zm2.061.179c.651,1.018,1.133,1.745,1.268,1.93.163.229.4.554.551.6.245.1.785.041,1.592-.476a3.948,3.948,0,0,0,1.828-2.093,3.418,3.418,0,0,0-.648-2.948,3.655,3.655,0,0,0-2.494-1.783,5.05,5.05,0,0,0-3.465.926,2.693,2.693,0,0,0-.589.472.2.2,0,0,0-.006.275c.2.335.7,1.126,1.188,1.884Z" transform="translate(-541.219 -576.069)"/>
            <path id="Path_39" data-name="Path 39" d="M743.324,611.57c-1.115-1.324-1.324-1.571-1.567-1.839a.567.567,0,0,0-.8-.132,2.356,2.356,0,0,0-.4.283c-.1.081-.185.1-.237.042s.005-.145.143-.261c.488-.411,1.1-.893,1.281-1.045.467-.394,1.067-.935,1.385-1.2,1.689-1.424,2.7-.833,3.084-.371a2.517,2.517,0,0,1,.238,2.416,2.859,2.859,0,0,1,3.313.438c.787.934.836,2.543-.886,3.993-.106.09-.433.348-.769.6s-.666.525-.815.652c-.106.089-.3.269-.523.458s-.439.405-.63.567c-.117.1-.207.122-.258.06-.035-.041-.046-.118.07-.217a1.913,1.913,0,0,0,.3-.309c.156-.2.07-.411-.114-.695-.268-.405-.848-1.093-1.523-1.894Zm1.333-.877c.06.071.1.055.14.038a2.714,2.714,0,0,0,.462-.337,1.627,1.627,0,0,0,.6-.772,1.474,1.474,0,0,0-.353-1.282,1.6,1.6,0,0,0-2.275-.328,3.185,3.185,0,0,0-.387.361c-.055.064-.042.123.036.215Zm2.163,2.565c.484.574.663.722,1.056.585a2.309,2.309,0,0,0,.755-.462,1.436,1.436,0,0,0,.11-2.2,2.478,2.478,0,0,0-2.188-.807,1.781,1.781,0,0,0-1,.455l-.4.341c-.032.027-.044.055,0,.106Z" transform="translate(-552.784 -568.474)"/>
            <path id="Path_40" data-name="Path 40" d="M756.279,599.523c-1.208-1.239-1.432-1.47-1.7-1.719a.566.566,0,0,0-.809-.074,2.27,2.27,0,0,0-.376.311c-.09.087-.178.116-.234.059s-.005-.145.124-.271c.458-.445,1.034-.97,1.283-1.212.278-.271,2.228-2.152,2.389-2.327s.261-.33.322-.407a1.5,1.5,0,0,1,.1-.174c.05-.048.1-.02.135.019a4.933,4.933,0,0,0,.445.6c.074.1.4.471.474.587.028.049.1.164.032.231s-.108.03-.173-.037a1.036,1.036,0,0,0-.35-.24c-.21-.076-.392-.124-.867.264-.169.126-1.232,1.125-1.411,1.3-.04.038-.032.088.015.135l1.967,2.018c.047.048.094.077.144.029.2-.194,1.333-1.3,1.514-1.512s.3-.369.3-.533c.014-.125,0-.2.036-.241a.111.111,0,0,1,.155.019c.046.048.157.2.51.664.14.183.437.528.494.586s.167.192.088.27c-.059.059-.107.049-.145.011-.094-.077-.2-.183-.32-.268-.21-.115-.441-.134-.8.157-.178.136-1.192,1.086-1.411,1.3-.039.039-.012.086.034.135l.637.654c.272.279.935.98,1.18,1.21.563.538.953.4,1.849-.471a3.412,3.412,0,0,0,.723-.91.959.959,0,0,0-.211-.974c-.064-.106-.082-.164-.022-.222s.183.028.267.114a7.4,7.4,0,0,1,.76,1.02c.147.269.067.347-.262.666-.656.64-1.193,1.144-1.64,1.542s-.776.717-1.034.97c-.1.1-.28.29-.488.494s-.409.436-.589.611c-.11.107-.2.136-.254.078-.037-.038-.055-.115.055-.222a1.925,1.925,0,0,0,.281-.33c.141-.213.041-.416-.163-.684-.3-.384-.924-1.029-1.655-1.778Z" transform="translate(-558.386 -562.875)"/>
            <path id="Path_41" data-name="Path 41" d="M766.82,583.675l-1.173,1.392c-.458.541-.591.812-.519,1.116a1.307,1.307,0,0,0,.155.414c.052.083.074.139.019.2s-.125.038-.215-.041c-.141-.125-.811-1.029-.864-1.112-.092-.118-.115-.194-.068-.246.064-.073.217-.1.449-.307a11.689,11.689,0,0,0,.849-.882l3.279-3.721a5.659,5.659,0,0,0,.511-.661c.108-.164.153-.254.18-.285.055-.064.115-.029.246.086.181.16.8.74,1.019.935.082.09.114.155.068.207-.065.073-.123.059-.263-.047l-.1-.069c-.24-.174-.714-.165-1.449.649l-1.039,1.139,3.465,3.052c.786.692,1.469,1.276,1.878,1.563.27.181.477.272.756.036a4.634,4.634,0,0,0,.443-.443c.092-.1.18-.1.22-.067.059.054.026.153-.066.259-.533.6-1.1,1.193-1.334,1.453-.184.209-.7.861-1.027,1.224-.1.114-.185.15-.246.1-.041-.035-.063-.111.038-.226a1.719,1.719,0,0,0,.254-.349c.126-.223.01-.417-.214-.67-.326-.361-1-.955-1.787-1.648Z" transform="translate(-563.18 -556.692)"/>
            <path id="Path_42" data-name="Path 42" d="M778.242,569.775l-1.057,1.482c-.413.576-.524.857-.428,1.154a1.312,1.312,0,0,0,.188.4c.058.078.085.132.035.2s-.121.049-.218-.024c-.15-.112-.891-.961-.949-1.039-.1-.111-.131-.184-.089-.24.059-.077.208-.122.423-.342a11.987,11.987,0,0,0,.775-.948l2.969-3.972a5.628,5.628,0,0,0,.456-.7c.095-.172.132-.266.156-.3.05-.067.113-.038.252.066.193.145.854.673,1.09.85.089.084.126.145.084.2-.058.078-.117.068-.266-.025l-.1-.062c-.254-.154-.724-.107-1.392.764l-.944,1.219,3.7,2.763c.839.627,1.567,1.153,2,1.407.282.16.5.232.756-.025a4.772,4.772,0,0,0,.406-.475c.083-.112.17-.116.213-.084.064.048.038.15-.045.262-.482.645-1.005,1.277-1.213,1.556-.167.222-.634.914-.924,1.3-.091.122-.174.165-.238.117-.043-.032-.072-.105.02-.228a1.825,1.825,0,0,0,.226-.369c.107-.232-.024-.416-.268-.65-.354-.334-1.074-.873-1.913-1.5Z" transform="translate(-568.23 -550.541)"/>
            <path id="Path_43" data-name="Path 43" d="M790.1,558.825c-1.462-.926-1.735-1.1-2.049-1.279a.565.565,0,0,0-.8.116,2.335,2.335,0,0,0-.294.389c-.067.107-.146.155-.214.112s-.039-.14.058-.293c.341-.541.78-1.184.965-1.477.208-.329,1.667-2.613,1.781-2.82a5.107,5.107,0,0,0,.218-.47,1.442,1.442,0,0,1,.059-.194c.037-.059.09-.042.135-.013a4.82,4.82,0,0,0,.572.477c.095.077.5.366.6.461.038.04.137.136.085.219s-.1.052-.177,0a1.03,1.03,0,0,0-.4-.152c-.222-.026-.41-.03-.782.459-.134.161-.936,1.381-1.07,1.593-.03.047-.01.091.046.128l2.382,1.507c.057.035.109.052.147-.007.149-.234.995-1.574,1.121-1.823s.207-.428.164-.587c-.016-.125-.051-.2-.02-.244a.108.108,0,0,1,.153-.018c.057.036.2.16.652.527.178.146.549.413.617.457s.209.148.149.242c-.045.069-.094.072-.139.043-.109-.052-.234-.131-.374-.187-.23-.064-.459-.028-.738.338-.142.175-.908,1.334-1.07,1.593-.029.047.008.087.065.123l.772.488c.329.208,1.138.736,1.43.9.673.393,1.02.169,1.688-.888a3.431,3.431,0,0,0,.492-1.054c.05-.33-.081-.577-.433-.9-.087-.089-.117-.14-.073-.211s.185-.015.287.05a7.332,7.332,0,0,1,.977.816c.205.228.146.321-.1.709-.49.776-.9,1.391-1.237,1.882s-.587.879-.78,1.184c-.075.117-.2.348-.36.595s-.3.519-.43.731c-.082.129-.161.178-.228.135-.045-.028-.08-.1,0-.229a1.813,1.813,0,0,0,.2-.386c.089-.24-.056-.413-.317-.628-.379-.306-1.139-.786-2.024-1.346Z" transform="translate(-573.026 -545.069)"/>
            <path id="Path_44" data-name="Path 44" d="M798.5,544.942c-1.531-.806-1.818-.956-2.144-1.112a.566.566,0,0,0-.792.18,2.323,2.323,0,0,0-.262.412c-.059.11-.132.165-.2.129s-.05-.136.034-.3c.3-.567.683-1.243.8-1.465.194-.369.688-1.365.863-1.7a4.4,4.4,0,0,1,1.508-1.829,1.978,1.978,0,0,1,1.791-.032c.748.393,1.18,1.186,1.444,2.674,1.644-.36,2.961-.642,3.933-.963a2.31,2.31,0,0,0,1.273-.807,1.182,1.182,0,0,0,.161-.245.14.14,0,0,1,.178-.08c.083.043.068.13,0,.265l-.543,1.033a2.728,2.728,0,0,1-.824,1.075,5.445,5.445,0,0,1-2.261.7c-.773.143-1.689.243-1.914.3a.289.289,0,0,0-.176.159l-.535.959a.087.087,0,0,0,.038.13l.143.075c.938.494,1.728.894,2.183,1.069.316.119.532.17.754-.138a4.9,4.9,0,0,0,.314-.51.141.141,0,0,1,.178-.08c.071.038.061.143-.01.277-.33.628-.838,1.507-.922,1.667-.109.209-.436.917-.663,1.348-.071.136-.146.191-.216.153-.048-.025-.089-.094-.016-.229a1.9,1.9,0,0,0,.165-.4c.069-.246-.089-.407-.366-.6-.4-.274-1.2-.692-2.124-1.179Zm1.509-.966c.107.056.155.05.23,0a3.476,3.476,0,0,0,.528-.775,1.258,1.258,0,0,0,.235-.85,1.9,1.9,0,0,0-1.128-1.487,1.823,1.823,0,0,0-2.66.705,4.491,4.491,0,0,0-.3.658.139.139,0,0,0,.09.174Z" transform="translate(-576.669 -539.032)"/>
          </g>
        </g>
      </g>
      <g id="Group_14" data-name="Group 14" transform="translate(0 69.823)">
        <g id="Group_13" data-name="Group 13">
          <path id="Path_45" data-name="Path 45" d="M583.034,406.971c-7.3,20.1-58.063,34.552-86.437,45.009-5.837,2.154-14.3,5.082-23.711,7.788-2.152.621-4.352,1.224-6.586,1.808-18.837,4.919-39.7,8.083-50.34,2.046-9.065-5.16-14.171-14.9-16.867-25.953a101.666,101.666,0,0,1-2.606-20.071.18.18,0,0,1-.007-.086,142.832,142.832,0,0,1,.627-16.214c.105-.775.193-1.559.3-2.333.347-2.654.676-5.317,1.019-7.984.01-.076.013-.12.026-.182.33-2.605.67-5.228,1-7.846.168-1.377.319-2.763.455-4.146.381-3.98.6-7.962.638-11.97.068-2.1.023-4.736-.152-7.927a29.328,29.328,0,0,0-1.76-8.869,14.129,14.129,0,0,0-4.413-6.36q-2.875-2.258-8.046-.359a12.573,12.573,0,0,0-6.309,4.943,47.34,47.34,0,0,0-4.091,7.1,63.22,63.22,0,0,0-3.1,8.5q-1.239,4.343-2.262,8.835-1.848,9.072-2.844,18.214t-1.619,18.362q-.6,9.229-1.051,18.4t-1.159,18.33c-.054.746-.108,1.551-.184,2.435a21.386,21.386,0,0,1-.366,2.468,5.724,5.724,0,0,1-1.458,3.5l-.6.521a.745.745,0,0,0-.478.3l-.343.09a.412.412,0,0,0-.239.15.352.352,0,0,1-.222.161l-1.028.268a2.843,2.843,0,0,1-1.118-.074,6.444,6.444,0,0,1-1.939-.416,5.384,5.384,0,0,1-2.154-1.913,4.93,4.93,0,0,1-.9-2.781l-.09-.343a213.074,213.074,0,0,1,.888-21.832q1-10.873,1.4-21.965.452-9.454.433-18.7a159.22,159.22,0,0,0-1.159-18.457c-.257-1.881-.684-4.244-1.3-7.069a33.908,33.908,0,0,0-2.683-7.808,14.534,14.534,0,0,0-4.564-5.588c-1.873-1.341-4.274-1.505-7.174-.5a11.614,11.614,0,0,0-6.2,5.368,48.679,48.679,0,0,0-3.633,7.451,77.534,77.534,0,0,0-2.465,8.786c-.669,3.045-1.294,6.034-1.868,9q-1.45,9.165-2.194,18.234-.745,9.091-1.03,18.487-.452,9.454-.4,18.776t-.069,18.689l-.2,9.03c.093,1.308.141,2.614.11,3.9a4.824,4.824,0,0,1-1.658,3.464,5.194,5.194,0,0,1-2.824,1.47,5.036,5.036,0,0,1-2.871-.451,6.714,6.714,0,0,1-2.315-1.856,5.222,5.222,0,0,1-1.052-3.02c-.035-2.436-.03-4.883.006-7.323s.093-4.916.184-7.37l-.051-17.019.119-4.424q.08-9.532-.281-18.964a152.867,152.867,0,0,0-1.873-18.724c-.515-2.926-1.109-5.875-1.763-8.883a23.355,23.355,0,0,0-3.4-8.075,11.345,11.345,0,0,0-17.326-1.523,19.8,19.8,0,0,0-4.052,6.916,43.135,43.135,0,0,0-2.022,8.407,65.3,65.3,0,0,0-.648,7.667,47.133,47.133,0,0,0,1.455,13.253,32.384,32.384,0,0,0,6.032,11.883,49.268,49.268,0,0,0,4.771,4.978,14.826,14.826,0,0,0,6.008,3.381c1.317.388,2.575.719,3.753,1.026a6.874,6.874,0,0,1,3.28,2.072,7.983,7.983,0,0,1,2.132,6.033,8.167,8.167,0,0,1-2.7,5.83,13.064,13.064,0,0,1-6.236,3.093,28.385,28.385,0,0,1-6.863.694,30.625,30.625,0,0,1-15.776-4.667A42.389,42.389,0,0,1,262.4,432.935a45.029,45.029,0,0,1-6.769-13.975,54.2,54.2,0,0,1-2.075-15.288,59.231,59.231,0,0,1,2.2-15.41,61.062,61.062,0,0,1,6.064-14.295,43.549,43.549,0,0,1,10.95-12.744,25.91,25.91,0,0,1,15.7-5.756,38.247,38.247,0,0,1,7.013.556,20.862,20.862,0,0,1,6.34,2.181,16.964,16.964,0,0,1,6.491,4.894,39.247,39.247,0,0,1,4.451,6.892l1.6,3.977a76.715,76.715,0,0,1,2.108-9.424,79.956,79.956,0,0,1,3.282-9.19,39.622,39.622,0,0,1,3.919-7.423,26.963,26.963,0,0,1,5.534-6.117,20.872,20.872,0,0,1,7.071-3.765,17.812,17.812,0,0,1,8.509-.392,18.543,18.543,0,0,1,7.047,2.816,21.031,21.031,0,0,1,5.138,4.985,30.9,30.9,0,0,1,3.6,6.382,52.6,52.6,0,0,1,2.387,7.065q1.465-4.227,3.186-8.154a43.637,43.637,0,0,1,4.38-7.734,29.368,29.368,0,0,1,5.756-6,23.61,23.61,0,0,1,7.132-3.869A22.318,22.318,0,0,1,391.267,332a16.8,16.8,0,0,1,7.954,2.419,15.977,15.977,0,0,1,6.042,5.641,32.237,32.237,0,0,1,3.455,7.621,39.358,39.358,0,0,1,1.588,8.547q.356,4.476.309,8.53.089,4.546-.269,9.12c-.216,2.707-.534,5.412-1,8.125-.007.031,0,.059-.01.076-.045.334-.107.657-.165.994-.029.169-.041.348-.07.516l-.02.093c-.237,1.395-.471,2.964-.7,4.664-1.354,10.121-2.369,25.134-.672,38.529,1.559,12.3,5.395,23.238,13.354,27.749,5.963,3.378,20.587,2.4,39.591-2.271,5.533-1.357,11.436-3.031,17.616-5,4.775-1.51,9.71-3.195,14.756-5.069,40.319-14.849,76.029-27.1,80.3-38.851a5.165,5.165,0,0,1,9.708,3.528Z" transform="translate(-253.551 -293.121)" fill="#844807"/>
          <g id="Group_12" data-name="Group 12" transform="translate(161.156)">
            <path id="Path_46" data-name="Path 46" d="M762.687,319.164a4.5,4.5,0,0,0-3.408-2.229,4.779,4.779,0,0,0-3.956.667,5.437,5.437,0,0,0-2.315,3.358c.029.11-.25,1.4-.818,3.875a44.673,44.673,0,0,1-2.844,8.065,25.367,25.367,0,0,1-3.709,6.826c-1.134,1.263-2.018,1.86-2.638,1.788-.608.027-.953-.117-1.043-.46a5.251,5.251,0,0,1-.912-2.427,26.278,26.278,0,0,1,.088-7.066q.266-3.189.909-7,.646-3.837,1.383-8.05,1.762-7.972,2.6-13.492c.559-3.69.879-5.663.928-5.924a4.662,4.662,0,0,0-1.006-3.852,5.445,5.445,0,0,0-3.479-2.108,4.662,4.662,0,0,0-3.852,1.006,5.4,5.4,0,0,0-2.108,3.479c-.324,2.515-.734,5.039-1.237,7.543s-.968,5.041-1.4,7.6c-.192.666-.348,1.248-.459,1.775s-.2,1.078-.284,1.715l-2.514,10q-3.32,11.85-7.24,18.541a20.745,20.745,0,0,1-3.382,4.544,4.378,4.378,0,0,1-2.905,1.491,2.746,2.746,0,0,1-2.547-1.341,6.949,6.949,0,0,1-1.083-2.016,15.77,15.77,0,0,1-.788-4.085,50.543,50.543,0,0,1-.048-6.856c.106-2.342.386-5.138.867-8.4.09-.609.176-1.232.286-1.876q1.218-7.281,2.655-12.6a36.545,36.545,0,0,1,1.631-5.361,5.35,5.35,0,0,0-.263-4.149,5.087,5.087,0,0,0-3.165-2.644,5.325,5.325,0,0,0-4.139.246,4.539,4.539,0,0,0-2.479,3.123c-.173.294-.773,2.311-1.817,6.054a128.09,128.09,0,0,0-2.8,13.456c-.52,2.889-.921,5.615-1.166,8.154-.132.84-.359,2.1-.665,3.791a53.092,53.092,0,0,1-3.22,10.55q-5.023,12.647-13,12.371a4.371,4.371,0,0,1-3.491-1.87,9.133,9.133,0,0,1-1.32-2.643,30.425,30.425,0,0,1-1.315-5.427,63.149,63.149,0,0,1-.7-8.781,103.15,103.15,0,0,1,.82-13.233,257.612,257.612,0,0,1,7.1-35.8l32.21-9.056a6.01,6.01,0,0,0,4.437-7.573,5.612,5.612,0,0,0-2.863-3.616,6.129,6.129,0,0,0-4.653-.6l-.192.05L690.3,275.667l1.354-4.629a6.8,6.8,0,0,0-.5-4.775,5.346,5.346,0,0,0-3.642-2.9,5.935,5.935,0,0,0-4.8.4,5.644,5.644,0,0,0-2.876,3.739c-.615,2.02-1.2,3.988-1.766,5.909s-1.148,3.9-1.766,5.909l-25.93,6.976a5.517,5.517,0,0,0-3.722,2.906,6.288,6.288,0,0,0-.509,4.614,6.383,6.383,0,0,0,2.846,3.943,5.841,5.841,0,0,0,4.778.685l18.934-5.164q-2.077,8.45-3.492,16.069Q667.782,317,667,323.812a120.239,120.239,0,0,0-.408,22.1c.01.137.029.265.041.4a50.2,50.2,0,0,1-6.526,15.191,17.893,17.893,0,0,1-3.632,3.969,8.5,8.5,0,0,1-1.986,1.16,10.743,10.743,0,0,1-.187-1.416,18.213,18.213,0,0,1,.3-3.74,32.779,32.779,0,0,1,1.016-5.574q.782-2.95,1.567-6.267,1.369-4.566,2.289-9.11a64.618,64.618,0,0,0,1.179-8.454,15.5,15.5,0,0,0-1.462-8.4,10.545,10.545,0,0,0-7.282-6.153,13.926,13.926,0,0,0-5.5-.393,16.467,16.467,0,0,0-7.357,3.02,35.18,35.18,0,0,0-8.887,8.728l2.062-8.227q2.938-10.468,4.776-15.708t1.79-5.41a4.754,4.754,0,0,0,.044-4.039,4.814,4.814,0,0,0-3.078-2.674,4.757,4.757,0,0,0-4.039-.044,5.4,5.4,0,0,0-2.846,3.123q.045.173-1.832,5.6T622.1,317.615q-2.561,9.824-6.092,25.388-1.868,8.238-3.672,18.01a12.775,12.775,0,0,1-1.918,1.573q-.814.4-1.475.66a4.917,4.917,0,0,1-1.565.317q-1.351-1.659-2.676-3.237a14.78,14.78,0,0,0-3.1-2.76,35.153,35.153,0,0,1-4.818-4.782,24.036,24.036,0,0,1-3.627-5.826,16.281,16.281,0,0,1-1.4-6.407,13.189,13.189,0,0,1,1.693-6.483c-.029-.113-.018-.179.041-.194s.071-.078.041-.194l.126-.216a5.26,5.26,0,1,0-9.077-5.318l-.38.648q-.76,1.3-2.443,4.665t-3.712,8.566q-2.032,5.2-4.106,11.964-1.959,6.385-3.6,14a5.375,5.375,0,0,0-.326,1.117q-.457,1.767-.99,3.92-.457,1.767-1.224,4.073t-1.649,4.549a43.626,43.626,0,0,1-3.266,6.07,8.7,8.7,0,0,1-5.047,4.155,4.549,4.549,0,0,1-1.416.187,7.685,7.685,0,0,1-3.208-.718,5.005,5.005,0,0,1-1.539-1.337,16.345,16.345,0,0,1-1.372-3.852q-.715-2.74.08-8.808a89.862,89.862,0,0,1,2.028-9.408,92.049,92.049,0,0,1,3.563-10.541,4.978,4.978,0,0,0-.087-4.187,5.293,5.293,0,0,0-2.992-2.7,4.758,4.758,0,0,0-4.039-.043,4.809,4.809,0,0,0-2.674,3.078q-1.8,4.315-3.63,10.284a70.036,70.036,0,0,0-2.578,12.206q-1.925,12.953,2.829,19.946a15.879,15.879,0,0,0,4.729,4.44q3.2,2.095,8.872,2.076a10.1,10.1,0,0,0,4.12-.344,19.707,19.707,0,0,0,7.856-4.614q4.085-3.628,7.608-11.872,1.13-2.672,2.006-5.284t1.348-4.654q.469-2.045.759-3.4.144-.678.2-1.06c.024-.1.065-.191.083-.3q.983-4.65,2.163-8.893t2.43-7.866a34.076,34.076,0,0,0,9.7,11.2l-1.885.492a18.329,18.329,0,0,0-7.264,3.727,17.85,17.85,0,0,0-4.789,6.194,20.418,20.418,0,0,0-1.969,6.83,19.816,19.816,0,0,0,.527,7.276,17.287,17.287,0,0,0,6.247,9.9,13.668,13.668,0,0,0,12.787,2.7l.514-.135a17.8,17.8,0,0,0,8.836-5.419,23.54,23.54,0,0,0,4.453-9.583c.071-.284.122-.573.183-.86a5.612,5.612,0,0,0,1.139.332,4.932,4.932,0,0,0,3.878-.921,5.132,5.132,0,0,0,2.134-3.395l.245-1.162a102.052,102.052,0,0,1,3.007-12.318,144.513,144.513,0,0,1,5.89-16,103.363,103.363,0,0,1,8.237-15.422q4.207-6.316,7.963-8.762a6,6,0,0,1,2.887-1.211,8.69,8.69,0,0,1,1.4.093q.6.211.648.38c.06.23.127.607.205,1.136s.135,1.338.175,2.425a38.054,38.054,0,0,1-1.108,6.971q-.97,4.007-2.084,8.141-.992,3.924-1.935,8.011a59.9,59.9,0,0,0-1.294,7.661,22.4,22.4,0,0,0,.725,7.682,10.417,10.417,0,0,0,5.866,6.339,9.491,9.491,0,0,0,2.951.785,10.8,10.8,0,0,0,3.926-.384l1.457-.38a4.234,4.234,0,0,0,1.367-.723q5.935-3.2,10.686-11.3.573-.978,1.107-2a16.079,16.079,0,0,0,13.136,7.008,22.6,22.6,0,0,0,6.252-.564,22.224,22.224,0,0,0,10.312-6.325,34.682,34.682,0,0,0,5.613-7.5,12.683,12.683,0,0,0,9.448,4.269,9.7,9.7,0,0,0,1.928.038,10.845,10.845,0,0,0,1.842-.29,16.135,16.135,0,0,0,5.943-3.207,22.8,22.8,0,0,0,3.247-3.323,27.472,27.472,0,0,0,2.936-4.516l.806-1.118.09.343a11.771,11.771,0,0,0,8.555,4.722,11.963,11.963,0,0,0,5.177-.532c2.042-.592,4.126-2.147,6.282-4.658a33.9,33.9,0,0,0,2.979-4.351,56.828,56.828,0,0,0,2.846-5.591,63.389,63.389,0,0,0,3.139-9.343c.675-2.8,1.051-4.273,1.146-4.415A5.735,5.735,0,0,0,762.687,319.164Zm-160.33,61.269a18.713,18.713,0,0,1-.509,4.709,34.039,34.039,0,0,1-1.612,3.991,5.754,5.754,0,0,1-4.027,3.156l-.171.045a4.221,4.221,0,0,1-2.858-.078,5.645,5.645,0,0,1-1.926-1.419,5.787,5.787,0,0,1-1.137-1.9c-.238-.67-.414-1.233-.533-1.691a13.759,13.759,0,0,1,.449-6.341q.994-3.555,5.449-4.718a33.676,33.676,0,0,1,5.79-.963A14.441,14.441,0,0,1,602.357,380.433Z" transform="translate(-539.422 -263.039)" fill="#844807"/>
          </g>
        </g>
        <path id="Path_47" data-name="Path 47" d="M575.292,332.926a27.391,27.391,0,0,1-2.2,14.379,43.355,43.355,0,0,1-5.815,9.721,44.942,44.942,0,0,1-5.455,5.9c.046-.17.839-3.023,1.687-6.645A94.025,94.025,0,0,0,565.5,345.42a14.859,14.859,0,0,0,.038-2.309c-.313-6.424-3.922-14.039-3.922-14.039.611,15.069-6.325,33.836-6.325,33.836-6.841-16.639-5.576-32.839-1.706-40.567,3.548-7.086,1.177-18.039,1.177-18.039S573.09,316.41,575.292,332.926Z" transform="translate(-383.063 -281.041)" fill="url(#linear-gradient-3)"/>
      </g>
    </g>
    <g id="Group_16" data-name="Group 16" transform="translate(572.051 188.244)">
      <path id="Path_48" data-name="Path 48" d="M829.494,248.128a10.958,10.958,0,1,1,10.964-10.885A10.959,10.959,0,0,1,829.494,248.128Zm8.76-10.964a8.757,8.757,0,1,0-8.753,8.766A8.764,8.764,0,0,0,838.254,237.164Z" transform="translate(-818.533 -226.212)" fill="#1e1e1e"/>
      <path id="Path_49" data-name="Path 49" d="M836.23,241.105c.1.144.246.148.364.209a3.118,3.118,0,0,1,1.183,1.18c.31.492.542,1.023.8,1.54q.425.845.85,1.69c.106.211.214.421.314.634.067.142-.026.16-.138.16H837.37c-.179,0-.357,0-.536,0a.242.242,0,0,1-.245-.166q-.565-1.165-1.137-2.327a6.215,6.215,0,0,0-.726-1.24,1.659,1.659,0,0,0-1.149-.608c-.336-.035-.678-.01-1.018-.017-.16,0-.144.1-.144.206v3.057c0,.3-.005.608,0,.911,0,.127-.031.185-.167.184q-1.323-.005-2.645,0c-.1,0-.157-.038-.148-.147,0-.042,0-.083,0-.125V235.309c0-.278,0-.278.285-.278h4.415a8.039,8.039,0,0,1,1.84.211,2.99,2.99,0,0,1,1.812,1.071,2.72,2.72,0,0,1,.481,1.227,4.054,4.054,0,0,1-.032,1.51,2.494,2.494,0,0,1-1.1,1.62A3.554,3.554,0,0,1,836.23,241.105Zm-3.816-2.442q0,.643,0,1.286c0,.119.017.213.173.206a13.693,13.693,0,0,0,1.622-.061,1.213,1.213,0,0,0,1.133-.921,1.924,1.924,0,0,0-.094-1.324,1.178,1.178,0,0,0-1.007-.636,15.261,15.261,0,0,0-1.606-.051c-.179,0-.226.067-.222.232C832.419,237.818,832.414,238.24,832.414,238.663Z" transform="translate(-823.298 -230.059)" fill="#1e1e1e"/>
    </g>
  </g>
</svg>
