<svg xmlns="http://www.w3.org/2000/svg" width="76.549" height="76.548" viewBox="0 0 76.549 76.548">
  <g id="Group_111" data-name="Group 111" transform="translate(0)">
    <g id="Group_68" data-name="Group 68" transform="translate(9.129 13.523)">
      <path id="Path_150" data-name="Path 150" d="M71.886,196.566A29.141,29.141,0,0,1,56.5,142.67l.654,1.052a27.906,27.906,0,1,0,40.666,34l1.151.456A28.992,28.992,0,0,1,71.886,196.566Z" transform="translate(-42.737 -142.67)" fill="#2b2b2b"/>
    </g>
    <g id="Group_82" data-name="Group 82">
      <g id="Group_69" data-name="Group 69" transform="translate(15.998 23.447)">
        <path id="Path_151" data-name="Path 151" d="M90.9,172.1c-.761-.6-1.483-1.257-2.229-1.881-.182-.154-.372-.3-.559-.442-.118-.089-.232-.177-.347-.273a.136.136,0,0,1-.021-.027l-.583-.48v.007l-.682-.565-4.224-3.5c.017-.035.035-.072.054-.107l.549.252c1.793.817,3.576,1.661,5.386,2.437a3.42,3.42,0,0,0,3.616-.9c.876-1.007.878-1.009-.328-1.56q-4.195-1.912-8.391-3.822a1.213,1.213,0,0,1-.5-.351c.464.08.927.163,1.392.237.792.128,1.583.286,2.382.372a3.548,3.548,0,0,0,3.663-2.478c.111-.373.013-.54-.38-.6-2-.318-4-.652-6-.989q-4.3-.725-8.606-1.461c-1.158-.2-2.312-.479-3.477-.558-1.386-.093-2.782-.007-4.174,0q-3.523.017-7.05.031c-.755.006-1.514.042-2.27.032a.638.638,0,0,1-.447-.23c-1.314-1.84-2.606-3.694-3.926-5.531a27.624,27.624,0,0,0-5.065,7.517,28.253,28.253,0,0,0-1.065,2.684c.347.348.692.7,1.041,1.044q1.9,1.872,3.8,3.735c.693.68,1.369,1.386,2.108,2.019a22,22,0,0,0,5.024,3.311c1.654.771,3.313,1.527,4.973,2.285l.865.4,2.46,1.121.418.192v.007l.328.151.018-.01.014-.007.01.018,1.45.665.073.028-.006,0,1.971.9h0a9.94,9.94,0,0,0,1.475.538,9.707,9.707,0,0,0,1.543.3c1.319.144,2.929.186,3.212-.425a.347.347,0,0,0,.014-.034v.013l.2-.438.244.6a9.22,9.22,0,0,0,.869,1.285,3.514,3.514,0,0,0,3.5,1.075c.438-.1.421-.325.292-.666-.938-2.491-1.86-4.987-2.8-7.479-.352-.934-.734-1.86-1.1-2.788.085-.061.073-.054.158-.116.413.332.833.655,1.24,1,.973.814,1.936,1.64,2.908,2.451.773.642,1.555,1.272,2.33,1.909a3.6,3.6,0,0,0,4.679-.225C91.177,172.52,91.221,172.357,90.9,172.1ZM77.83,173.632H77.5l-.241-.124a1.478,1.478,0,0,1-.432-.221l-2.109-1.081-.642-.327c-1.393-.69-2.846-1.271-4.225-1.992a3.407,3.407,0,0,1-1.672-3.792,3.541,3.541,0,0,1,2.9-2.72,3.486,3.486,0,0,1,3.869,2.206c.79,1.981,1.507,3.993,2.248,5.992.051.132.1.266.148.4a.591.591,0,0,1,.021.151Z" transform="translate(-47.613 -149.714)" fill="#2b2b2b"/>
      </g>
      <g id="Group_70" data-name="Group 70">
        <path id="Path_152" data-name="Path 152" d="M74.531,209.619a38.274,38.274,0,1,1,38.275-38.274A38.317,38.317,0,0,1,74.531,209.619Zm0-75.311a37.036,37.036,0,1,0,37.037,37.037A37.079,37.079,0,0,0,74.531,134.308Z" transform="translate(-36.257 -133.071)" fill="#2b2b2b"/>
      </g>
      <g id="Group_81" data-name="Group 81" transform="translate(23.007 8.348)">
        <g id="Group_71" data-name="Group 71">
          <path id="Path_153" data-name="Path 153" d="M52.713,140.9l.72-.328.014.007,1.109,2.434L57,141.9l-1.109-2.434.006-.017.724-.33.017.007,2.56,5.615-.007.015-.72.328-.014-.007-1.109-2.434L54.9,143.757l1.109,2.434,0,.015-.72.328-.017-.007-2.56-5.614Z" transform="translate(-52.54 -138.948)" fill="#2b2b2b"/>
          <path id="Path_154" data-name="Path 154" d="M55.338,146.75l-.121-.042-.044-.066-2.585-5.672.044-.121.065-.045.795-.361.111.066.032.052,1.045,2.292,2.16-.985-1.071-2.35.044-.12.066-.045.783-.356.12.046.042.063,2.585,5.673-.044.121-.065.042-.795.362-.111-.066-.032-.052-1.045-2.294-2.167.989,1.064,2.334-.02.128-.079.051Zm-2.384-5.724,2.441,5.358.458-.21-1.114-2.444,2.73-1.245,1.116,2.446.458-.208L56.6,139.365l-.466.211,1.116,2.446-2.723,1.241-1.116-2.446Z" transform="translate(-52.588 -138.997)" fill="#2b2b2b"/>
        </g>
        <g id="Group_72" data-name="Group 72" transform="translate(8.492 0.269)">
          <path id="Path_155" data-name="Path 155" d="M60.459,139.565a1.594,1.594,0,0,1,1.281.337l-.073-.461.011-.01.789-.128.01.007.647,3.985-.006.01-.79.128-.014-.006-.065-.406a1.575,1.575,0,0,1-1.12.709h-.006a2.008,2.008,0,0,1-1.674-.487,2.116,2.116,0,0,1-.693-1.264v0a2.134,2.134,0,0,1,.452-1.7A2.049,2.049,0,0,1,60.459,139.565Zm-.9,2.281a1.311,1.311,0,0,0,.744.99,1.19,1.19,0,0,0,.633.094l.092-.015a1.193,1.193,0,0,0,.726-.451,1.324,1.324,0,0,0,.239-1.009v0a1.29,1.29,0,0,0-.744-.986,1.21,1.21,0,0,0-.649-.092l-.066.011A1.2,1.2,0,0,0,59.7,141,1.4,1.4,0,0,0,59.561,141.846Z" transform="translate(-58.571 -139.141)" fill="#2b2b2b"/>
          <path id="Path_156" data-name="Path 156" d="M60.829,143.961a2.183,2.183,0,0,1-1.434-.551,2.32,2.32,0,0,1-.268-3.184,2.218,2.218,0,0,1,1.352-.768h0a1.7,1.7,0,0,1,1.1.173l-.031-.2.094-.089.056-.017.852-.138.106.072.02.072.657,4.043-.068.108-.075.021-.834.135-.12-.049-.039-.154a1.757,1.757,0,0,1-1,.494A2.368,2.368,0,0,1,60.829,143.961Zm-.3-4.2a1.884,1.884,0,0,0-1.159.656A1.972,1.972,0,0,0,58.951,142a1.993,1.993,0,0,0,.647,1.178,1.831,1.831,0,0,0,1.544.448,1.418,1.418,0,0,0,1.021-.641l.218-.335.106.655.5-.082-.6-3.7-.5.082.113.7-.31-.238a1.433,1.433,0,0,0-1.161-.306Zm.31,3.378a1.414,1.414,0,0,1-1.385-1.226h0a1.546,1.546,0,0,1,.154-.942,1.371,1.371,0,0,1,.945-.7l.068-.01a1.337,1.337,0,0,1,.734.1,1.441,1.441,0,0,1,.837,1.1,1.485,1.485,0,0,1-.265,1.127,1.368,1.368,0,0,1-.827.516l-.092.014A1.11,1.11,0,0,1,60.838,143.144Zm-.032-2.581a.849.849,0,0,0-.135.011l-.066.01a1.052,1.052,0,0,0-.727.541,1.234,1.234,0,0,0-.118.744h0a1.15,1.15,0,0,0,.662.876,1.006,1.006,0,0,0,.535.079l.092-.016a1.029,1.029,0,0,0,.631-.4,1.157,1.157,0,0,0,.206-.883,1.129,1.129,0,0,0-.659-.876A1.1,1.1,0,0,0,60.805,140.563Z" transform="translate(-58.616 -139.188)" fill="#2b2b2b"/>
        </g>
        <g id="Group_73" data-name="Group 73" transform="translate(15.571 0.18)">
          <path id="Path_157" data-name="Path 157" d="M65.936,139.373l.038,0a1.535,1.535,0,0,1,1.588,1.736l-.213,2.441-.01.011-.793-.069-.008-.013.214-2.45a.66.66,0,0,0-.375-.721,1.146,1.146,0,0,0-.456-.12l-.068-.006a1.248,1.248,0,0,0-.742.1.675.675,0,0,0-.334.6l-.211,2.429-.014.011-.788-.069-.013-.014.348-3.993.014-.011.789.069.011.014-.02.227h0a2.709,2.709,0,0,1,.583-.17A2.01,2.01,0,0,1,65.936,139.373Z" transform="translate(-63.596 -139.08)" fill="#2b2b2b"/>
          <path id="Path_158" data-name="Path 158" d="M67.37,143.764l-.875-.076-.063-.114,0-.061.214-2.45a.508.508,0,0,0-.289-.568,1.035,1.035,0,0,0-.4-.106l-.068-.006a1.083,1.083,0,0,0-.648.075.526.526,0,0,0-.259.48l-.218,2.489-.094.086-.08.007-.852-.075-.083-.1-.007-.079.355-4.06.1-.079.076-.007.857.076.077.1.006.063a3.151,3.151,0,0,1,.386-.1,2.123,2.123,0,0,1,.5-.006l.038,0a1.819,1.819,0,0,1,1.617,1.048,1.862,1.862,0,0,1,.113.855l-.218,2.491-.083.1Zm-.62-.365.5.044.2-2.3a1.536,1.536,0,0,0-.087-.707,1.506,1.506,0,0,0-1.358-.862l-.038,0a1.961,1.961,0,0,0-.42,0,2.67,2.67,0,0,0-.544.159l-.042.018-.187-.031.017-.228-.506-.045-.324,3.709.506.045.2-2.286a.822.822,0,0,1,.421-.727,1.389,1.389,0,0,1,.823-.111l.068.006a1.308,1.308,0,0,1,.52.139.813.813,0,0,1,.454.869Z" transform="translate(-63.641 -139.125)" fill="#2b2b2b"/>
        </g>
        <g id="Group_74" data-name="Group 74" transform="translate(22.09 0.214)">
          <path id="Path_159" data-name="Path 159" d="M73.758,139.542,71.7,145.381l-.771-.271.141-.4c-.062.032-.123.061-.178.086a1.971,1.971,0,0,1-.268.08,1.393,1.393,0,0,1-.314.028,2.053,2.053,0,0,1-.544-.1l-.052-.018a1.969,1.969,0,0,1-.885-.638,1.9,1.9,0,0,1-.156-.217,2.077,2.077,0,0,1-.162-.341,2.153,2.153,0,0,1,.387-2.16,2.214,2.214,0,0,1,.618-.5,3.013,3.013,0,0,1,.28-.121,2.007,2.007,0,0,1,1.334,0h0a1.634,1.634,0,0,1,.872.7,1.084,1.084,0,0,1,.107.221h0l.869-2.467.006,0,.764.269Zm-2.154,2.8a1.471,1.471,0,0,0-.087-.2,1.189,1.189,0,0,0-.635-.555,1.2,1.2,0,0,0-1.019.09,1.32,1.32,0,0,0-.586.709l-.006.016a1.33,1.33,0,0,0-.07.568,1.452,1.452,0,0,0,.1.379,1.2,1.2,0,0,0,.714.673,1.224,1.224,0,0,0,.523.059,1.427,1.427,0,0,0,.269-.063l.093-.038a1.434,1.434,0,0,0,.207-.116,1.294,1.294,0,0,0,.49-.64l.007-.02A1.284,1.284,0,0,0,71.6,142.345Z" transform="translate(-68.223 -139.101)" fill="#2b2b2b"/>
          <path id="Path_160" data-name="Path 160" d="M71.841,145.627l-1.062-.373.077-.217c-.058.018-.107.031-.154.041a2.087,2.087,0,0,1-.347.031,2.263,2.263,0,0,1-.595-.107l-.051-.017a2.121,2.121,0,0,1-.955-.689,2.193,2.193,0,0,1-.166-.23,2.325,2.325,0,0,1-.175-.366,2.439,2.439,0,0,1-.118-.444,2.309,2.309,0,0,1,.533-1.875,2.4,2.4,0,0,1,.659-.53c.144-.068.242-.11.307-.132a2.159,2.159,0,0,1,1.434,0,1.813,1.813,0,0,1,.906.686l.772-2.2.116-.058.066.02.827.292.052.117-.018.063Zm-.668-.563.479.169,1.955-5.552-.479-.169L72.252,142l-.216-.107-.024-.063a.9.9,0,0,0-.09-.189,1.505,1.505,0,0,0-.793-.633,1.841,1.841,0,0,0-1.236,0c-.056.02-.144.058-.263.114a2.119,2.119,0,0,0-.566.455,2.028,2.028,0,0,0-.373.647,2.007,2.007,0,0,0-.087.982,1.946,1.946,0,0,0,.1.38,1.486,1.486,0,0,0,.29.509,1.816,1.816,0,0,0,.818.594l.051.017a2.018,2.018,0,0,0,.5.09,1.185,1.185,0,0,0,.272-.025,1.747,1.747,0,0,0,.245-.075l.159-.077.348-.18Zm-.724-.768a1.33,1.33,0,0,1-.445-.075,1.363,1.363,0,0,1-.8-.755,1.7,1.7,0,0,1-.107-.427,1.51,1.51,0,0,1,.737-1.44,1.366,1.366,0,0,1,1.148-.1,1.4,1.4,0,0,1,.513.34,1.293,1.293,0,0,1,.207.287,1.4,1.4,0,0,1,.1.227,1.433,1.433,0,0,1-.006.961,1.481,1.481,0,0,1-.554.735,1.681,1.681,0,0,1-.23.128l-.1.042a1.608,1.608,0,0,1-.311.073C70.546,144.292,70.5,144.3,70.449,144.3Zm.065-2.574a1.1,1.1,0,0,0-.531.145,1.148,1.148,0,0,0-.514.624,1.183,1.183,0,0,0-.068.52,1.293,1.293,0,0,0,.085.337,1.044,1.044,0,0,0,.621.582,1.07,1.07,0,0,0,.458.051,1.45,1.45,0,0,0,.237-.055l.08-.035a1.113,1.113,0,0,0,.178-.1,1.189,1.189,0,0,0,.444-1.347l0-.013a1.345,1.345,0,0,0-.076-.166,1.028,1.028,0,0,0-.154-.214,1.034,1.034,0,0,0-.755-.33Z" transform="translate(-68.268 -139.149)" fill="#2b2b2b"/>
        </g>
        <g id="Group_75" data-name="Group 75" transform="translate(30.895 5.046)">
          <path id="Path_161" data-name="Path 161" d="M78.8,142.691l1.509,1.372a2.2,2.2,0,0,1,.74,1.667,1.988,1.988,0,0,1-2.16,1.934,2.245,2.245,0,0,1-1.333-.59l-.909-.826L75.23,147.8l-.015,0-.586-.533v-.018l4.15-4.566Zm.037,1.15-1.638,1.8.948.859a1.348,1.348,0,0,0,1.114.334,1.157,1.157,0,0,0,.645-.347l.038-.039a1.166,1.166,0,0,0,.245-1.064,1.52,1.52,0,0,0-.516-.8l-.819-.745Z" transform="translate(-74.473 -142.533)" fill="#2b2b2b"/>
          <path id="Path_162" data-name="Path 162" d="M75.232,148.021l-.076-.052-.638-.579v-.128l.041-.062,4.191-4.612.128-.008.068.044,1.509,1.372a2.348,2.348,0,0,1,.789,1.779,2.17,2.17,0,0,1-.555,1.4,2.192,2.192,0,0,1-1.764.692,2.4,2.4,0,0,1-1.431-.63l-.793-.72-1.343,1.476Zm-.349-.717.372.338,1.423-1.567,1.023.93a2.1,2.1,0,0,0,1.245.549,1.8,1.8,0,0,0,1.512-.592,1.867,1.867,0,0,0,.478-1.195,2.029,2.029,0,0,0-.689-1.545l-1.4-1.276Zm4.218-.259a1.447,1.447,0,0,1-1.017-.385l-1.062-.964,1.786-1.964.147,0,.865.788a1.672,1.672,0,0,1,.564.883,1.32,1.32,0,0,1-.283,1.2l-.038.042a1.327,1.327,0,0,1-.728.393A2.181,2.181,0,0,1,79.1,147.045Zm-1.641-1.368.831.755a1.2,1.2,0,0,0,.993.294.993.993,0,0,0,.549-.3l.038-.041a1.01,1.01,0,0,0,.207-.928,1.371,1.371,0,0,0-.466-.714l-.716-.651Z" transform="translate(-74.518 -142.579)" fill="#2b2b2b"/>
        </g>
        <g id="Group_76" data-name="Group 76" transform="translate(35.456 10.804)">
          <path id="Path_163" data-name="Path 163" d="M81.616,148.592l-3.264,2.4h-.006l-.48-.655v-.006l3.266-2.4Zm1.475-1.61.02.027a.528.528,0,0,1-.114.724l-.021.016a.525.525,0,0,1-.727-.113l-.015-.02a.507.507,0,0,1-.09-.375.533.533,0,0,1,.063-.193.486.486,0,0,1,.137-.158l.025-.02a.529.529,0,0,1,.386-.089l.083.018A.524.524,0,0,1,83.091,146.982Z" transform="translate(-77.711 -146.621)" fill="#2b2b2b"/>
          <path id="Path_164" data-name="Path 164" d="M78.434,151.2l-.127-.025-.041-.051-.51-.695v-.13l.063-.052,3.391-2.488.668.911Zm-.309-.792.3.413,3.019-2.216-.3-.413Zm4.584-2.364-.073,0a.693.693,0,0,1-.468-.268.695.695,0,0,1-.048-.762.613.613,0,0,1,.176-.2.694.694,0,0,1,.521-.138l.1.021a.7.7,0,0,1,.344.241l.02.027a.683.683,0,0,1-.147.941A.684.684,0,0,1,82.709,148.044Zm.008-1.069a.356.356,0,0,0-.213.066.377.377,0,0,0-.12.13.361.361,0,0,0-.045.141.348.348,0,0,0,.063.256.383.383,0,0,0,.272.166.368.368,0,0,0,.254-.066.393.393,0,0,0,.166-.271.358.358,0,0,0-.065-.252l-.02-.028a.387.387,0,0,0-.182-.127l-.063-.013A.281.281,0,0,0,82.718,146.975Z" transform="translate(-77.756 -146.666)" fill="#2b2b2b"/>
        </g>
        <g id="Group_77" data-name="Group 77" transform="translate(37.955 16.05)">
          <path id="Path_165" data-name="Path 165" d="M83.641,151.652l0,.007A2,2,0,0,1,83.8,152.9a2.128,2.128,0,0,1-.08.292,1.652,1.652,0,0,1-.128.292.524.524,0,0,1-.056.1l-.7-.417v0a1.349,1.349,0,0,0,.108-.234,1.184,1.184,0,0,0-.7-1.516.935.935,0,0,0-.247-.065,1.3,1.3,0,0,0-.8.111,1.331,1.331,0,0,0-.627.623,1.682,1.682,0,0,0-.092.259,1.192,1.192,0,0,0,.087.789,1.173,1.173,0,0,0,.506.528,1.381,1.381,0,0,0,.241.1,1.352,1.352,0,0,0,.2.039v0l-.111.807a2.137,2.137,0,0,1-.313-.065,1.929,1.929,0,0,1-.268-.1,2.472,2.472,0,0,1-.263-.142,1.993,1.993,0,0,1-.727-.811l-.016-.034a1.987,1.987,0,0,1-.166-1.145c.013-.082.028-.158.045-.227a2.579,2.579,0,0,1,.113-.313,2.1,2.1,0,0,1,.21-.368,1.964,1.964,0,0,1,.256-.3,2.15,2.15,0,0,1,.537-.378l.062-.03a2.146,2.146,0,0,1,.958-.2c.1.006.206.016.316.031a3.218,3.218,0,0,1,.324.086,2.483,2.483,0,0,1,.347.156A2.016,2.016,0,0,1,83.641,151.652Z" transform="translate(-79.485 -150.345)" fill="#2b2b2b"/>
          <path id="Path_166" data-name="Path 166" d="M81.591,154.824l-.151-.018a2.241,2.241,0,0,1-.337-.069,1.65,1.65,0,0,1-.3-.111,2.225,2.225,0,0,1-.273-.148,2.137,2.137,0,0,1-.782-.873l-.017-.038a2.136,2.136,0,0,1-.18-1.228c.014-.089.031-.169.046-.242a2.978,2.978,0,0,1,.125-.344,2.239,2.239,0,0,1,.225-.394,2.092,2.092,0,0,1,.27-.314,2.323,2.323,0,0,1,.58-.407l.061-.031a2.329,2.329,0,0,1,1.007-.214h.02c.111.006.221.017.337.034a3.3,3.3,0,0,1,.347.09,2.709,2.709,0,0,1,.379.17,2.169,2.169,0,0,1,.875.945l0,.006A2.176,2.176,0,0,1,84,152.967a2.38,2.38,0,0,1-.087.316,1.7,1.7,0,0,1-.144.324c-.049.093-.068.128-.118.154l-.075.038-.823-.492-.037-.128.037-.063a1.07,1.07,0,0,0,.093-.2,1.032,1.032,0,0,0-.611-1.319.793.793,0,0,0-.19-.052,1.219,1.219,0,0,0-.731.1,1.167,1.167,0,0,0-.555.552,1.516,1.516,0,0,0-.08.228,1.034,1.034,0,0,0,.518,1.144,1.239,1.239,0,0,0,.218.094,1.5,1.5,0,0,0,.169.031l.07.008.072.109-.006.062Zm.272-4.125a2.015,2.015,0,0,0-.869.186l-.063.03a2.005,2.005,0,0,0-.5.352,1.666,1.666,0,0,0-.232.269,2.015,2.015,0,0,0-.2.347,2.575,2.575,0,0,0-.107.293c-.011.055-.027.128-.039.207a1.842,1.842,0,0,0,.154,1.052l.017.038a1.86,1.86,0,0,0,.671.745,2.326,2.326,0,0,0,.247.131,1.3,1.3,0,0,0,.247.089c.046.014.093.025.135.035l.07-.5-.07-.017a1.467,1.467,0,0,1-.285-.124,1.328,1.328,0,0,1-.565-.593,1.359,1.359,0,0,1-.1-.888,1.658,1.658,0,0,1,.1-.292,1.493,1.493,0,0,1,.7-.7,1.46,1.46,0,0,1,.893-.123.982.982,0,0,1,.272.07,1.355,1.355,0,0,1,.74.678,1.341,1.341,0,0,1,.052,1.033c-.018.049-.035.093-.052.13l.44.263a2.077,2.077,0,0,0,.1-.227,1.96,1.96,0,0,0,.073-.268,1.863,1.863,0,0,0-.147-1.143l.137-.073-.139.066a1.868,1.868,0,0,0-.754-.811,2.627,2.627,0,0,0-.324-.147c-.118-.035-.22-.063-.3-.077-.1-.013-.2-.024-.3-.03Z" transform="translate(-79.529 -150.39)" fill="#2b2b2b"/>
        </g>
        <g id="Group_78" data-name="Group 78" transform="translate(39.693 21.407)">
          <path id="Path_167" data-name="Path 167" d="M86.934,154.317l.169.773-.01.016-3.685.8v0l1.972,1.343.251,1.15h0l-2.139-1.45-1.833,2.232,0,0-.217-1q.091-.131,1.375-1.681v0c-.276-.194-.447-.31-.513-.348l-1.233.269-.015-.01-.168-.773.008-.016,6.03-1.312Z" transform="translate(-80.715 -154.144)" fill="#2b2b2b"/>
          <path id="Path_168" data-name="Path 168" d="M81.729,159.448l-.163-.123-.017-.061-.232-1.066.038-.056c.024-.034.093-.134,1.278-1.564-.106-.073-.237-.165-.317-.216l-1.233.269-.11-.068-.028-.075-.182-.835.069-.108.072-.028,6.09-1.326.11.066.03.075.18.835-.069.108-.072.028-3.335.727,1.729,1.178.3,1.369-.221.037-.055-.034-2.023-1.369Zm-.08-1.181.135.627,1.722-2.1,1.941,1.314-.156-.716-1.964-1.337-.072-.213.168-.041,3.546-.772-.107-.5-5.754,1.252.108.5,1.151-.251.052.03c.07.038.232.149.525.355l.045.032.038.13-.052.068C82.089,157.72,81.756,158.13,81.649,158.268Z" transform="translate(-80.763 -154.192)" fill="#2b2b2b"/>
        </g>
        <g id="Group_79" data-name="Group 79" transform="translate(40.524 28.243)">
          <path id="Path_169" data-name="Path 169" d="M85.684,161.068l0,.123a1.8,1.8,0,0,1-.514,1.182,2.078,2.078,0,0,1-.479.376,2.3,2.3,0,0,1-1.148.292l-.127,0c-.079,0-.118-.007-.118-.018l.049-3.03a1.326,1.326,0,0,0-.682.311,1.042,1.042,0,0,0-.382.772,1.088,1.088,0,0,0,.54.931.688.688,0,0,1,.144.087c-.23.482-.345.726-.351.731a2.448,2.448,0,0,1-.441-.275,1.879,1.879,0,0,1-.709-1.479v-.017a1.875,1.875,0,0,1,.8-1.486,2.239,2.239,0,0,1,1.331-.41h.017a2.181,2.181,0,0,1,1.664.785A1.853,1.853,0,0,1,85.684,161.068Zm-1.571-.99-.034,2.053h0a1.433,1.433,0,0,0,.5-.323,1.056,1.056,0,0,0,.287-.7,1.1,1.1,0,0,0-.6-.962Z" transform="translate(-81.308 -159)" fill="#2b2b2b"/>
          <path id="Path_170" data-name="Path 170" d="M83.62,163.24h-.038l-.127,0c-.08,0-.27,0-.27-.173l.047-2.832a1,1,0,0,0-.417.223.9.9,0,0,0-.334.665.938.938,0,0,0,.473.8c.132.07.173.1.2.154l.027.063-.03.063a4.6,4.6,0,0,1-.387.779l-.073.066-.09-.038a2.578,2.578,0,0,1-.471-.292,2.006,2.006,0,0,1,.086-3.229,2.4,2.4,0,0,1,1.39-.444h.038a2.35,2.35,0,0,1,1.795.838,2.016,2.016,0,0,1,.448,1.233l0,.123a1.943,1.943,0,0,1-.554,1.282,2.2,2.2,0,0,1-.525.411A2.442,2.442,0,0,1,83.62,163.24Zm-.124-.311h.092a2.215,2.215,0,0,0,1.071-.272,1.935,1.935,0,0,0,.445-.352,1.64,1.64,0,0,0,.468-1.072l0-.124a1.7,1.7,0,0,0-.379-1.033,2,2,0,0,0-1.541-.723h-.038a2.1,2.1,0,0,0-1.22.383,1.707,1.707,0,0,0-.733,1.36,1.729,1.729,0,0,0,.655,1.379c.117.083.2.141.27.18.048-.1.121-.254.22-.462l-.017-.01a1.245,1.245,0,0,1-.62-1.071,1.2,1.2,0,0,1,.431-.885,1.481,1.481,0,0,1,.757-.348l.187-.037Zm.656-.6h-.18l0-.158.038-2.288.369.168a1.256,1.256,0,0,1,.69,1.106,1.208,1.208,0,0,1-.325.8,1.592,1.592,0,0,1-.566.368Zm.156-1.954-.027,1.55a1.9,1.9,0,0,0,.238-.187.89.89,0,0,0,.237-.586A.908.908,0,0,0,84.309,160.376Z" transform="translate(-81.353 -159.045)" fill="#2b2b2b"/>
        </g>
        <g id="Group_80" data-name="Group 80" transform="translate(39.256 34.645)">
          <path id="Path_171" data-name="Path 171" d="M86.574,168.8l-5.986-1.581.209-.789.409.107c-.035-.059-.069-.115-.1-.17a1.941,1.941,0,0,1-.1-.258,1.607,1.607,0,0,1-.054-.313A2.085,2.085,0,0,1,81,165.25l.013-.054a1.956,1.956,0,0,1,.566-.933,2.1,2.1,0,0,1,.2-.173,2.228,2.228,0,0,1,.327-.19,2.205,2.205,0,0,1,.4-.139,2.145,2.145,0,0,1,1.784.354,2.191,2.191,0,0,1,.544.576,2.534,2.534,0,0,1,.144.269,2.006,2.006,0,0,1,.108,1.33v0a1.644,1.644,0,0,1-.626.924,1.014,1.014,0,0,1-.213.124v0l2.53.668,0,.006-.206.78Zm-2.967-1.922a1.443,1.443,0,0,0,.189-.1,1.134,1.134,0,0,0,.237-.2,1.238,1.238,0,0,0,.266-.478,1.208,1.208,0,0,0-.172-1.009,1.328,1.328,0,0,0-.754-.527l-.017,0a1.339,1.339,0,0,0-.571-.024,1.472,1.472,0,0,0-.37.125,1.2,1.2,0,0,0-.613.766,1.213,1.213,0,0,0-.017.525,1.57,1.57,0,0,0,.085.263l.045.09a1.478,1.478,0,0,0,.132.2,1.29,1.29,0,0,0,.676.437l.021.006A1.28,1.28,0,0,0,83.607,166.882Z" transform="translate(-80.398 -163.544)" fill="#2b2b2b"/>
          <path id="Path_172" data-name="Path 172" d="M86.653,169.01,86.59,169l-6.137-1.622.289-1.089.221.059c-.021-.055-.039-.1-.054-.147a1.9,1.9,0,0,1-.059-.345,2.321,2.321,0,0,1,.059-.6l.014-.051a2.118,2.118,0,0,1,.609-1.007,2.276,2.276,0,0,1,.217-.185,2.306,2.306,0,0,1,.351-.2,2.466,2.466,0,0,1,.434-.154,2.313,2.313,0,0,1,1.91.38,2.346,2.346,0,0,1,.58.614,2.873,2.873,0,0,1,.159.3,2.155,2.155,0,0,1,.12,1.407l-.006.024a1.806,1.806,0,0,1-.61.952l2.263.6.052.117-.011.058-.224.849Zm-5.821-1.853,5.693,1.5.13-.49-2.537-.669.063-.225.072-.032a.9.9,0,0,0,.18-.106,1.473,1.473,0,0,0,.561-.821l.006-.023a1.811,1.811,0,0,0-.1-1.227,2.264,2.264,0,0,0-.134-.254,2.048,2.048,0,0,0-.5-.528,1.988,1.988,0,0,0-.673-.32,1.943,1.943,0,0,0-.985-.008,2.08,2.08,0,0,0-.373.13,2.043,2.043,0,0,0-.3.172,2.14,2.14,0,0,0-.187.161,1.8,1.8,0,0,0-.524.862l-.014.051a1.941,1.941,0,0,0-.049.511,1.374,1.374,0,0,0,.048.272,1.628,1.628,0,0,0,.094.235c.024.044.056.1.09.155l.2.328-.633-.166Zm2.309.035a1.485,1.485,0,0,1-.38-.051,1.464,1.464,0,0,1-.776-.493,1.741,1.741,0,0,1-.148-.218l-.049-.1a1.6,1.6,0,0,1-.1-.3,1.39,1.39,0,0,1,.018-.593,1.355,1.355,0,0,1,.687-.862,1.578,1.578,0,0,1,.421-.142,1.515,1.515,0,0,1,1.492.617,1.364,1.364,0,0,1,.2,1.138,1.39,1.39,0,0,1-.3.538,1.36,1.36,0,0,1-.27.23,1.944,1.944,0,0,1-.214.117A1.456,1.456,0,0,1,83.141,167.193Zm-.07-2.475a1.231,1.231,0,0,0-.2.017,1.3,1.3,0,0,0-.331.113,1.045,1.045,0,0,0-.544,1.126,1.235,1.235,0,0,0,.076.231l.039.079a1.207,1.207,0,0,0,.114.169,1.187,1.187,0,0,0,1.378.332h.007a1.587,1.587,0,0,0,.162-.092.977.977,0,0,0,.2-.17,1.1,1.1,0,0,0,.232-.414,1.054,1.054,0,0,0-.152-.885,1.173,1.173,0,0,0-.664-.462A1.253,1.253,0,0,0,83.071,164.718Z" transform="translate(-80.453 -163.589)" fill="#2b2b2b"/>
        </g>
      </g>
    </g>
  </g>
</svg>
