<svg id="Component_44_1" data-name="Component 44 – 1" xmlns="http://www.w3.org/2000/svg" xmlns:xlink="http://www.w3.org/1999/xlink" width="34.6" height="34.6" viewBox="0 0 34.6 34.6">
  <defs>
    <linearGradient id="linear-gradient" x1="0.007" y1="0.5" x2="0.995" y2="0.5" gradientUnits="objectBoundingBox">
      <stop offset="0" stop-color="#f8cf3b"/>
      <stop offset="0.176" stop-color="#da6637"/>
      <stop offset="0.488" stop-color="#b32f6a"/>
      <stop offset="0.75" stop-color="#822d87"/>
      <stop offset="1" stop-color="#214395"/>
    </linearGradient>
  </defs>
  <circle id="Ellipse_39" data-name="Ellipse 39" cx="17.3" cy="17.3" r="17.3" fill="url(#linear-gradient)"/>
  <path id="Path_263" data-name="Path 263" d="M-1488.68,102.415a4.16,4.16,0,0,1-1.239,3.06,4.158,4.158,0,0,1-3.06,1.239h-12.987a4.172,4.172,0,0,1-3.051-1.239,4.143,4.143,0,0,1-1.248-3.06V89.429a4.155,4.155,0,0,1,1.248-3.051,4.151,4.151,0,0,1,3.051-1.25h12.987a4.136,4.136,0,0,1,3.06,1.25,4.171,4.171,0,0,1,1.239,3.051Zm-9.085-11.585a8.385,8.385,0,0,1,1.523.781h5.445V90.53a3.063,3.063,0,0,0-.959-2.291,3.221,3.221,0,0,0-2.326-.927h-10.78a3.11,3.11,0,0,0-2.292.927,3.114,3.114,0,0,0-.927,2.291v1.081h5.4a7.367,7.367,0,0,1,1.539-.781,4.909,4.909,0,0,1,1.7-.3A4.628,4.628,0,0,1-1497.764,90.83Zm6.009,12.806a3.119,3.119,0,0,0,.959-2.28V92.712h-4.321a9.142,9.142,0,0,1,.736,1.518,4.83,4.83,0,0,1,.3,1.724,5.043,5.043,0,0,1-.431,2.083,5.957,5.957,0,0,1-1.14,1.714,5.248,5.248,0,0,1-1.691,1.173,5.163,5.163,0,0,1-2.1.431,5.329,5.329,0,0,1-2.112-.431,5.309,5.309,0,0,1-1.729-1.173,5.825,5.825,0,0,1-1.151-1.714,5.043,5.043,0,0,1-.431-2.083,4.825,4.825,0,0,1,.3-1.724,7.5,7.5,0,0,1,.779-1.518h-4.3v8.644a3.172,3.172,0,0,0,.927,2.28,3.055,3.055,0,0,0,2.292.961h10.78A3.163,3.163,0,0,0-1491.756,103.636Zm-10.019-9.995a3.1,3.1,0,0,0-.95,2.313,3.071,3.071,0,0,0,.95,2.3,3.219,3.219,0,0,0,2.335.923,3.177,3.177,0,0,0,2.281-.923,3.051,3.051,0,0,0,.959-2.3,3.082,3.082,0,0,0-.959-2.313,3.17,3.17,0,0,0-2.281-.929A3.211,3.211,0,0,0-1501.774,93.641Zm6.657-5.25h2.139V90.53h-2.139Z" transform="translate(1516.772 -78.621)" fill="#fff"/>
</svg>
