<svg xmlns="http://www.w3.org/2000/svg" xmlns:xlink="http://www.w3.org/1999/xlink" width="84.395" height="69.762" viewBox="0 0 84.395 69.762">
  <defs>
    <linearGradient id="linear-gradient" y1="0.5" x2="1" y2="0.5" gradientUnits="objectBoundingBox">
      <stop offset="0" stop-color="#3fac36"/>
      <stop offset="1" stop-color="#168138"/>
    </linearGradient>
    <linearGradient id="linear-gradient-3" x1="13.367" y1="-2.628" x2="12.675" y2="-1.675" xlink:href="#linear-gradient"/>
  </defs>
  <g id="Group_22" data-name="Group 22" transform="translate(-253.051 -138.682)">
    <g id="Group_15" data-name="Group 15" transform="translate(253.551 139.182)">
      <g id="Group_3" data-name="Group 3" transform="translate(7.951 0)">
        <g id="Group_1" data-name="Group 1" transform="translate(5.563 38.767)">
          <path id="Path_1" data-name="Path 1" d="M392.2,486.889a34.336,34.336,0,0,1-27.8-14.152.5.5,0,1,1,.8-.585,33.393,33.393,0,0,0,60.044-14.832.5.5,0,0,1,.982.142A34.388,34.388,0,0,1,392.2,486.889Z" transform="translate(-364.303 -456.895)" fill="#844807" stroke="#707070" stroke-width="1"/>
        </g>
        <g id="Group_2" data-name="Group 2">
          <path id="Path_2" data-name="Path 2" d="M319.212,166.19a.491.491,0,0,1-.115-.014.5.5,0,0,1-.368-.6,34.385,34.385,0,0,1,59.321-14.655.5.5,0,0,1-.747.654,33.392,33.392,0,0,0-57.608,14.231A.5.5,0,0,1,319.212,166.19Z" transform="translate(-318.715 -139.182)" fill="#844807" stroke="#707070" stroke-width="1"/>
        </g>
      </g>
      <g id="Group_6" data-name="Group 6" transform="translate(15.425 7.614)">
        <g id="Group_4" data-name="Group 4" transform="translate(4.331 37.826)">
          <path id="Path_3" data-name="Path 3" d="M437.179,527.286a26.729,26.729,0,0,1-21.645-11.019.386.386,0,0,1,.625-.455A26,26,0,0,0,460.6,511.8a.386.386,0,1,1,.7.336,26.765,26.765,0,0,1-24.122,15.154Z" transform="translate(-415.459 -511.578)" stroke="#707070" stroke-width="1" fill="url(#linear-gradient)"/>
        </g>
        <g id="Group_5" data-name="Group 5">
          <path id="Path_4" data-name="Path 4" d="M380.349,222.609a.387.387,0,0,1-.376-.476,26.882,26.882,0,0,1,9.329-14.7,26.477,26.477,0,0,1,16.711-5.856,26.774,26.774,0,0,1,20.144,9.141.386.386,0,0,1-.582.509,26,26,0,0,0-44.85,11.079A.387.387,0,0,1,380.349,222.609Z" transform="translate(-379.962 -201.582)" stroke="#707070" stroke-width="1" fill="url(#linear-gradient)"/>
        </g>
      </g>
      <g id="Group_11" data-name="Group 11" transform="translate(12.203 3.013)">
        <g id="Group_8" data-name="Group 8">
          <g id="Group_7" data-name="Group 7">
            <path id="Path_5" data-name="Path 5" d="M354.708,302.21c-.522-.253-.618-.3-.732-.346s-.188-.049-.267.053a.773.773,0,0,0-.075.129c-.018.038-.035.055-.059.043s-.019-.039.006-.09c.088-.182.2-.394.25-.49s.146-.328.246-.534a2.02,2.02,0,0,1,1.059-1.188,1.363,1.363,0,0,1,1.034.089,1.516,1.516,0,0,1,.777.839,1.741,1.741,0,0,1-.152,1.347c-.06.124-.138.259-.212.385s-.142.241-.184.327c-.018.038-.055.113-.091.2s-.075.172-.108.24c-.022.045-.044.064-.068.052s-.021-.027,0-.068a.627.627,0,0,0,.046-.13c.02-.075-.048-.129-.141-.191-.136-.087-.407-.218-.723-.372Zm.586-.246c.364.176.63.3.7.329a.835.835,0,0,0,.279.089c.087-.013.224-.112.355-.384a1.227,1.227,0,0,0,.135-.91,1.206,1.206,0,0,0-.716-.7,1.3,1.3,0,0,0-1.019-.086,1.513,1.513,0,0,0-.816.809,1.017,1.017,0,0,0-.084.235.069.069,0,0,0,.049.074c.115.06.414.2.685.336Z" transform="translate(-353.559 -283.148)" stroke="#707070" stroke-width="1"/>
            <path id="Path_6" data-name="Path 6" d="M374.136,278.907c-.413-.268-.49-.319-.578-.371a.16.16,0,0,0-.226.026.627.627,0,0,0-.082.106c-.019.029-.041.042-.06.029s-.011-.039.016-.081c.1-.147.219-.322.256-.38.063-.1.223-.356.279-.442a1.176,1.176,0,0,1,.463-.46.567.567,0,0,1,.5.045.952.952,0,0,1,.348.782c.47-.05.845-.088,1.125-.147a.631.631,0,0,0,.375-.184.315.315,0,0,0,.05-.063.039.039,0,0,1,.052-.016c.022.015.016.038-.007.073l-.175.269a.728.728,0,0,1-.254.272,1.519,1.519,0,0,1-.65.124c-.22.016-.48.016-.544.024a.077.077,0,0,0-.053.039l-.171.249a.024.024,0,0,0,.008.037l.038.025c.253.164.466.3.59.361.086.042.146.063.215-.015a1.256,1.256,0,0,0,.1-.131.039.039,0,0,1,.052-.016c.019.012.014.041-.009.076-.106.163-.268.39-.295.432s-.142.24-.215.352c-.023.035-.045.048-.064.036s-.023-.028,0-.063a.489.489,0,0,0,.055-.106c.025-.066-.016-.115-.09-.177-.107-.088-.321-.227-.571-.39Zm.444-.221c.029.019.043.019.065.006a.92.92,0,0,0,.165-.2.337.337,0,0,0,.084-.227.549.549,0,0,0-.285-.445.51.51,0,0,0-.762.114,1.216,1.216,0,0,0-.1.173.04.04,0,0,0,.022.051Z" transform="translate(-370.785 -263.455)" stroke="#707070" stroke-width="1"/>
            <path id="Path_7" data-name="Path 7" d="M390.807,259.016c-.385-.307-.457-.364-.539-.425s-.143-.06-.206-.018a.431.431,0,0,0-.088.086c-.021.027-.039.037-.063.018s0-.037.029-.079c.078-.1.227-.273.287-.347s.182-.24.263-.342c.026-.033.049-.049.064-.037s.018.039,0,.065a.466.466,0,0,0-.053.085c-.045.081-.026.131.059.208s.147.127.532.434l.448.357c.245.2.448.357.565.431.076.046.129.059.2-.009a1.25,1.25,0,0,0,.116-.127c.024-.03.048-.03.06-.021s.01.042-.014.073c-.138.173-.29.345-.347.417s-.181.246-.265.35c-.026.033-.049.044-.067.029s-.02-.03.006-.063a.5.5,0,0,0,.065-.1c.031-.063.007-.107-.061-.175-.095-.1-.3-.257-.543-.452Z" transform="translate(-385.469 -246.398)" stroke="#707070" stroke-width="1"/>
            <path id="Path_8" data-name="Path 8" d="M403.483,240.558c-.356-.34-.423-.4-.5-.471a.159.159,0,0,0-.227-.016.623.623,0,0,0-.1.089c-.024.025-.048.034-.064.018s0-.04.031-.076c.121-.127.274-.277.34-.346s.59-.613.632-.663.068-.093.084-.115a.386.386,0,0,1,.026-.049c.013-.014.027-.006.038,0a1.45,1.45,0,0,0,.133.164c.022.026.119.13.142.161.008.013.031.045.012.065s-.03.009-.049-.01a.3.3,0,0,0-.1-.065c-.06-.02-.112-.032-.239.079-.045.036-.327.321-.375.371-.01.011-.007.025.006.038l.58.553c.014.013.027.021.041.007.053-.055.353-.37.4-.431s.079-.1.075-.15,0-.057.006-.068a.031.031,0,0,1,.043,0c.014.013.047.056.153.183.042.05.13.145.147.161s.05.053.029.075-.029.014-.04,0c-.028-.021-.058-.05-.094-.073-.06-.031-.125-.035-.22.048-.048.039-.317.31-.375.371-.011.011,0,.024.012.038l.188.179c.08.076.276.269.348.332.166.147.273.107.51-.142a.9.9,0,0,0,.188-.258c.03-.087.007-.162-.074-.271-.02-.029-.025-.045-.009-.062s.051.007.076.031a2.169,2.169,0,0,1,.228.281c.045.075.024.1-.063.188-.174.182-.316.326-.435.44s-.206.2-.274.277c-.026.028-.074.083-.129.141s-.108.124-.155.174c-.029.03-.053.039-.07.023s-.017-.032.012-.062a.5.5,0,0,0,.073-.094c.036-.06.005-.116-.056-.19-.089-.106-.274-.282-.49-.488Z" transform="translate(-396.602 -229.762)" stroke="#707070" stroke-width="1"/>
            <path id="Path_9" data-name="Path 9" d="M421.168,222.192c-.315-.378-.374-.448-.443-.525a.159.159,0,0,0-.224-.042.617.617,0,0,0-.11.077c-.026.022-.051.028-.066.01s0-.041.039-.072c.135-.112.3-.244.377-.3s.259-.226.414-.356a1.832,1.832,0,0,1,1.275-.581,1.137,1.137,0,0,1,.772.43,1.259,1.259,0,0,1,.3.929,1.566,1.566,0,0,1-.62,1.014c-.094.078-.213.162-.32.242s-.209.149-.273.2c-.029.024-.082.074-.144.125s-.121.111-.174.155c-.032.027-.057.033-.072.015s-.013-.034.019-.061a.5.5,0,0,0,.084-.085c.043-.056.018-.115-.034-.2-.076-.115-.24-.312-.431-.54Zm.576-.013c.22.264.382.452.426.5a.594.594,0,0,0,.176.151c.071.02.218-.013.42-.182a1.058,1.058,0,0,0,.421-.639.991.991,0,0,0-.3-.8,1.056,1.056,0,0,0-.759-.421,1.355,1.355,0,0,0-.919.364.714.714,0,0,0-.144.15.057.057,0,0,0,.009.077c.068.087.239.293.4.489Z" transform="translate(-412.173 -213.497)" stroke="#707070" stroke-width="1"/>
            <path id="Path_10" data-name="Path 10" d="M460.968,192.035c.18.319.32.569.415.7.064.091.125.153.233.11a1.616,1.616,0,0,0,.174-.08c.043-.024.062-.022.071-.005s0,.046-.054.074c-.21.118-.425.225-.512.274s-.291.176-.417.247c-.047.026-.074.033-.089.006s0-.034.035-.055a.616.616,0,0,0,.112-.081c.059-.051.035-.133-.006-.237-.062-.149-.2-.4-.382-.718l-.329-.586c-.284-.506-.337-.6-.4-.7s-.127-.148-.25-.109a.783.783,0,0,0-.135.063c-.033.019-.06.025-.071.005s.008-.048.058-.076c.087-.049.185-.1.272-.148s.167-.085.213-.111c.126-.071.8-.451.877-.5a.734.734,0,0,0,.129-.09c.016-.018.026-.041.042-.05a.031.031,0,0,1,.04.017c.013.023.019.073.057.165.015.035.119.235.135.279.012.028.016.052-.007.065s-.039,0-.063-.035a.375.375,0,0,0-.091-.115.276.276,0,0,0-.276.024l-.518.278c-.02.011-.024.027,0,.063l.467.832c.011.02.02.028.04.017l.424-.243c.057-.032.1-.058.148-.087a.2.2,0,0,0,.109-.14c.005-.029,0-.046.025-.058s.026,0,.037.019.041.112.089.221c.031.07.11.227.123.25s.036.063,0,.082-.04-.008-.053-.032a.422.422,0,0,0-.078-.092.224.224,0,0,0-.237-.024c-.089.037-.442.235-.5.267-.017.009-.02.02-.006.043Z" transform="translate(-446.446 -186.782)" stroke="#707070" stroke-width="1"/>
            <path id="Path_11" data-name="Path 11" d="M484.992,185.069c-.193-.453-.23-.537-.273-.63a.16.16,0,0,0-.2-.1.622.622,0,0,0-.127.042c-.032.014-.057.012-.066-.009s.013-.039.058-.058c.162-.069.361-.146.424-.173.105-.045.383-.172.478-.212a1.174,1.174,0,0,1,.64-.124.567.567,0,0,1,.393.318.953.953,0,0,1-.146.843c.418.22.751.4,1.017.5a.63.63,0,0,0,.414.056.313.313,0,0,0,.077-.024.039.039,0,0,1,.052.015c.01.025-.007.041-.046.057l-.295.126a.729.729,0,0,1-.362.084,1.521,1.521,0,0,1-.609-.259c-.192-.109-.407-.254-.465-.283a.077.077,0,0,0-.065,0l-.28.112a.024.024,0,0,0-.014.035l.018.042c.119.277.221.507.289.628.048.083.086.133.187.107a1.272,1.272,0,0,0,.155-.054.039.039,0,0,1,.052.015c.009.021-.011.042-.05.059-.179.077-.44.175-.485.2s-.252.12-.375.173c-.039.016-.064.015-.073-.006s0-.036.036-.053a.5.5,0,0,0,.1-.057c.057-.041.051-.1.024-.2-.04-.132-.14-.368-.257-.641Zm.492.064c.013.032.025.039.05.041a.918.918,0,0,0,.247-.072c.123-.052.16-.081.2-.142a.549.549,0,0,0,.011-.528.51.51,0,0,0-.7-.329,1.211,1.211,0,0,0-.178.088.039.039,0,0,0-.01.054Z" transform="translate(-468.365 -181.359)" stroke="#707070" stroke-width="1"/>
            <path id="Path_12" data-name="Path 12" d="M510.946,173.058c-.138-.473-.16-.562-.2-.658s-.077-.129-.188-.128a.607.607,0,0,0-.128.025q-.055.016-.065-.017c-.006-.022.013-.036.061-.05.172-.05.39-.106.486-.134s.295-.094.412-.128c.048-.014.072-.013.078.009s-.009.038-.042.048a.472.472,0,0,0-.092.039c-.08.039-.093.091-.068.2s.047.189.185.662l.127.436c.133.454.272.6.466.683a.647.647,0,0,0,.443.006.64.64,0,0,0,.384-.291,1.039,1.039,0,0,0-.035-.813l-.115-.392c-.138-.473-.167-.559-.2-.657s-.074-.13-.185-.129a.58.58,0,0,0-.12.023c-.037.011-.058.005-.065-.017s.013-.036.057-.049c.165-.048.383-.1.387-.105.037-.011.251-.081.375-.117.044-.013.068-.012.074.01s-.009.038-.045.049a.453.453,0,0,0-.092.039c-.084.04-.093.091-.068.2s.047.189.185.662l.1.333a1.2,1.2,0,0,1-.034,1.028,1.046,1.046,0,0,1-.616.422,1.16,1.16,0,0,1-.8,0,1.041,1.041,0,0,1-.534-.739Z" transform="translate(-491.233 -170.567)" stroke="#707070" stroke-width="1"/>
            <path id="Path_13" data-name="Path 13" d="M542.077,168.961c-.091-.484-.107-.574-.13-.675s-.069-.139-.144-.148a.439.439,0,0,0-.123.007c-.034.006-.054,0-.06-.028s.021-.031.074-.041c.124-.023.35-.058.444-.075s.3-.063.423-.087c.041-.008.069-.005.073.014s-.012.041-.046.047a.478.478,0,0,0-.1.03c-.087.032-.105.082-.091.2s.028.193.119.677l.105.563c.058.308.105.563.146.7.027.084.059.129.16.125a1.268,1.268,0,0,0,.171-.02c.037-.007.056.009.059.024s-.02.039-.057.046c-.218.041-.445.072-.535.089s-.3.067-.43.092c-.041.008-.066,0-.07-.022s0-.036.046-.044a.493.493,0,0,0,.114-.033c.065-.028.075-.076.069-.172-.01-.134-.057-.389-.115-.7Z" transform="translate(-518.672 -167.418)" stroke="#707070" stroke-width="1"/>
            <path id="Path_14" data-name="Path 14" d="M561.169,164.632l-.5.057c-.193.022-.271.052-.314.129a.38.38,0,0,0-.047.115c-.005.027-.011.043-.034.045s-.032-.016-.035-.05c-.005-.053.031-.371.036-.4,0-.043.013-.062.032-.064s.063.021.148.025a3.184,3.184,0,0,0,.336-.016l1.357-.126a1.5,1.5,0,0,0,.227-.036c.052-.013.078-.023.09-.024s.028.017.033.066c.006.068.021.309.029.392,0,.035-.007.054-.026.056s-.036-.012-.044-.061l-.007-.034c-.015-.083-.112-.174-.413-.15l-.423.031.121,1.308c.027.3.055.551.083.69.02.09.045.149.145.155a1.255,1.255,0,0,0,.172,0c.038,0,.055.014.056.029s-.023.037-.062.04c-.221.02-.446.03-.541.038-.076.007-.3.04-.436.052-.042,0-.066-.005-.068-.028s.008-.035.05-.039a.473.473,0,0,0,.117-.022c.067-.022.08-.084.083-.18,0-.138-.021-.393-.048-.689Z" transform="translate(-535.022 -164.239)" stroke="#707070" stroke-width="1"/>
            <path id="Path_15" data-name="Path 15" d="M589.358,166.322c-.053-.023-.065-.039-.064-.111,0-.176.019-.378.023-.431s.016-.084.043-.084.034.031.034.054a.6.6,0,0,0,.029.168.519.519,0,0,0,.531.325.421.421,0,0,0,.469-.408c0-.141-.032-.283-.328-.461l-.194-.116c-.395-.236-.523-.455-.52-.741,0-.4.387-.649.853-.645a1.994,1.994,0,0,1,.477.058c.03.008.046.02.045.042,0,.042-.013.133-.015.389,0,.069-.016.1-.043.1s-.034-.019-.034-.058a.367.367,0,0,0-.086-.214.451.451,0,0,0-.373-.156c-.24,0-.459.122-.461.343,0,.145.051.26.351.431l.137.078c.441.248.576.5.573.791a.693.693,0,0,1-.341.6.979.979,0,0,1-.562.129A1.427,1.427,0,0,1,589.358,166.322Z" transform="translate(-560.529 -163.872)" stroke="#707070" stroke-width="1"/>
            <path id="Path_16" data-name="Path 16" d="M628.275,165.657a.844.844,0,0,1-.091-.569c.052-.3.389-.641,1.042-.519a1.308,1.308,0,0,1,.439.164c.06.034.054.064.046.11a4.594,4.594,0,0,1-.132.472c-.018.055-.034.06-.057.055s-.024-.02-.013-.076a.5.5,0,0,0-.049-.336.525.525,0,0,0-.385-.247.408.408,0,0,0-.482.352c-.066.353.2.714.437,1.1.1.17.483.674.542.751a1.152,1.152,0,0,0,.289-.544.225.225,0,0,0-.039-.186.286.286,0,0,0-.173-.091c-.022,0-.044-.016-.039-.039s.037-.032.067-.026a4.313,4.313,0,0,1,.445.111c.07.021.122.054.113.1a1.519,1.519,0,0,1-.535.82,3.918,3.918,0,0,0,.452.466,1.123,1.123,0,0,0,.377.207c.034.006.052.014.046.044s-.036.028-.119.013l-.289-.055a1.148,1.148,0,0,1-.831-.456,1.228,1.228,0,0,1-.953.174c-.8-.151-.948-.7-.887-1.025A1.122,1.122,0,0,1,628.275,165.657Zm.938,1.478c-.182-.229-.476-.649-.554-.772s-.267-.439-.313-.544a.683.683,0,0,0-.366.522.736.736,0,0,0,.575.9A1.011,1.011,0,0,0,629.213,167.135Z" transform="translate(-594.06 -164.462)" stroke="#707070" stroke-width="1"/>
            <path id="Path_17" data-name="Path 17" d="M672.338,178.493c-.107.278-.1.389-.039.443a.6.6,0,0,0,.173.1c.039.016.057.032.048.053s-.046.022-.1,0c-.229-.1-.366-.164-.433-.192-.032-.013-.2-.071-.385-.147-.046-.019-.076-.036-.063-.067s.033-.019.068,0a.673.673,0,0,0,.166.048c.1.01.16-.087.291-.392l.9-2.075c.029-.071.06-.115.1-.1s.052.075.085.163c.023.063.321.86.624,1.585.141.339.406,1.044.443,1.125l.018.007.621-1.6c.085-.216.082-.3.012-.367a.62.62,0,0,0-.178-.1c-.042-.017-.052-.034-.043-.055s.052-.016.1.006c.183.076.348.157.422.187.039.016.177.061.35.133.046.019.08.037.068.065s-.034.023-.077.005a.413.413,0,0,0-.11-.033c-.11-.013-.169.05-.254.246l-.961,2.209c-.032.077-.059.1-.091.09s-.065-.072-.088-.127c-.134-.3-.394-.952-.611-1.468-.227-.54-.435-1.143-.471-1.236l-.01,0Z" transform="translate(-632.741 -174.659)" stroke="#707070" stroke-width="1"/>
            <path id="Path_18" data-name="Path 18" d="M708.2,194.58c.249-.425.3-.5.344-.6a.157.157,0,0,0-.036-.225.6.6,0,0,0-.106-.075q-.049-.029-.032-.059c.012-.02.035-.015.078.011.155.091.345.211.431.261s.271.15.376.211c.043.025.059.043.047.063s-.034.02-.063,0a.46.46,0,0,0-.092-.04c-.083-.031-.13-.005-.194.09s-.1.164-.354.589l-.229.392c-.239.408-.253.613-.177.808a.712.712,0,0,0,.776.405c.25-.057.4-.3.567-.584l.206-.353c.249-.425.292-.506.341-.6a.156.156,0,0,0-.033-.223.578.578,0,0,0-.1-.072q-.049-.029-.032-.059c.012-.02.035-.015.075.009.148.087.339.207.342.209.033.019.231.126.343.192.039.023.055.041.044.061s-.034.02-.067,0a.464.464,0,0,0-.091-.04c-.087-.033-.13-.005-.194.09s-.105.164-.354.589l-.176.3a1.2,1.2,0,0,1-.77.681,1.048,1.048,0,0,1-.73-.158,1.161,1.161,0,0,1-.55-.579,1.041,1.041,0,0,1,.17-.9Z" transform="translate(-664.533 -189.985)" stroke="#707070" stroke-width="1"/>
            <path id="Path_19" data-name="Path 19" d="M733.8,210.851l-.406-.292c-.158-.114-.236-.144-.319-.116a.383.383,0,0,0-.112.054c-.022.017-.038.024-.056.011s-.013-.034.008-.061c.032-.043.272-.254.294-.271s.052-.037.067-.026.033.058.093.118a3.124,3.124,0,0,0,.259.214l1.089.82a1.491,1.491,0,0,0,.192.125c.047.026.073.036.082.043s.01.031-.02.071c-.041.055-.192.242-.243.31-.024.025-.041.036-.057.024s-.018-.033.008-.075l.018-.03c.044-.072.034-.2-.2-.388l-.334-.261-.79,1.049c-.179.238-.33.445-.4.567-.046.08-.068.14,0,.212a1.266,1.266,0,0,0,.13.112c.031.023.031.047.022.06s-.042.011-.073-.012c-.177-.133-.35-.278-.426-.335-.061-.046-.251-.174-.358-.255-.034-.025-.045-.048-.031-.066s.03-.021.063,0a.469.469,0,0,0,.1.062c.064.029.116-.008.183-.077.095-.1.249-.305.428-.543Z" transform="translate(-686.024 -204.499)" stroke="#707070" stroke-width="1"/>
            <path id="Path_20" data-name="Path 20" d="M749.952,232.364c-.024-.053-.022-.072.027-.125.119-.129.268-.267.307-.3s.068-.051.088-.033,0,.046-.011.063a.606.606,0,0,0-.092.144.52.52,0,0,0,.175.6.421.421,0,0,0,.622.013c.1-.1.167-.231.067-.562l-.065-.216a.824.824,0,0,1,.113-.9.746.746,0,0,1,1.066.1,1.985,1.985,0,0,1,.314.363c.017.026.021.045.005.062s-.1.09-.273.278c-.047.05-.081.065-.1.047s-.012-.037.014-.065a.367.367,0,0,0,.081-.217.452.452,0,0,0-.171-.366.4.4,0,0,0-.572-.056c-.1.107-.137.227-.029.555l.049.149a.878.878,0,0,1-.108.972.694.694,0,0,1-.659.218.978.978,0,0,1-.5-.283A1.425,1.425,0,0,1,749.952,232.364Z" transform="translate(-701.571 -222.684)" stroke="#707070" stroke-width="1"/>
          </g>
        </g>
        <g id="Group_10" data-name="Group 10" transform="translate(6.602 45.777)">
          <g id="Group_9" data-name="Group 9">
            <path id="Path_21" data-name="Path 21" d="M408.7,581.814c-.276.249-.425.384-.421.466s.039.139.2.313c.107.118.188.2.3.207a.358.358,0,0,0,.182-.059c.021-.015.038-.022.055,0s.005.028-.02.051a2.229,2.229,0,0,1-.278.19c-.06.03-.08.028-.185-.088-.145-.161-.246-.281-.335-.383s-.157-.187-.24-.278c-.022-.025-.067-.074-.117-.125s-.1-.105-.144-.15c-.026-.029-.034-.051-.019-.064s.025-.007.05.02a.5.5,0,0,0,.081.072c.049.037.106.005.177-.042.1-.071.271-.225.469-.4l.379-.343c.327-.3.388-.351.453-.418s.088-.12.036-.207a.472.472,0,0,0-.06-.079c-.022-.024-.03-.042-.015-.055s.033,0,.064.032c.095.1.215.251.27.312s.2.211.281.3c.028.031.038.051.023.064s-.031,0-.056-.023a.811.811,0,0,0-.085-.081c-.065-.051-.118-.035-.2.029s-.133.112-.461.408Z" transform="translate(-407.667 -575.377)" stroke="#707070" stroke-width="1"/>
            <path id="Path_22" data-name="Path 22" d="M420.828,595.17c.258-.271.307-.321.358-.38a.123.123,0,0,0,.01-.176.521.521,0,0,0-.07-.079c-.02-.019-.027-.037-.014-.05s.031,0,.059.024c.1.1.218.216.272.268s.483.465.522.5a1.086,1.086,0,0,0,.09.066.306.306,0,0,1,.039.021c.011.01,0,.021,0,.029a1.1,1.1,0,0,0-.125.1c-.02.017-.1.091-.123.107s-.035.023-.05.009-.007-.023.007-.038a.225.225,0,0,0,.049-.078c.015-.046.024-.086-.064-.186-.029-.035-.253-.258-.292-.295-.009-.008-.019-.006-.029,0l-.421.441c-.01.011-.016.021-.005.031.044.042.292.278.339.316s.082.062.117.06.044,0,.053.006a.024.024,0,0,1,0,.033c-.01.01-.042.036-.139.116-.038.031-.111.1-.123.111s-.04.038-.058.021-.011-.023,0-.031.038-.044.056-.072c.023-.046.025-.1-.04-.171-.031-.037-.244-.249-.292-.295-.009-.008-.019,0-.029.008l-.136.143c-.058.061-.2.21-.253.265-.112.126-.079.21.117.4a.735.735,0,0,0,.2.149.208.208,0,0,0,.209-.054c.022-.015.035-.019.048-.007s0,.04-.023.059a1.609,1.609,0,0,1-.215.173c-.057.034-.075.017-.146-.051-.144-.137-.257-.249-.346-.343s-.161-.162-.218-.216c-.022-.021-.065-.058-.111-.1s-.1-.085-.137-.122c-.024-.023-.031-.042-.019-.054s.025-.013.048.01a.391.391,0,0,0,.074.058c.047.029.09.006.147-.041.081-.067.215-.208.371-.372Z" transform="translate(-418.391 -587.714)" stroke="#707070" stroke-width="1"/>
            <path id="Path_23" data-name="Path 23" d="M436.148,605.639l-.31-.243c-.12-.095-.18-.122-.246-.1a.28.28,0,0,0-.088.036c-.018.012-.03.017-.044.005s-.009-.026.007-.047.216-.183.234-.2.041-.026.053-.017.024.046.07.095a2.538,2.538,0,0,0,.2.177l.83.681a1.207,1.207,0,0,0,.147.105c.036.022.056.031.063.037s.007.025-.017.054-.154.178-.194.227c-.019.018-.033.026-.044.016s-.014-.026.008-.057l.014-.022c.036-.053.03-.155-.151-.309l-.254-.216-.634.772c-.143.175-.265.328-.324.418-.037.059-.055.105,0,.164a1.042,1.042,0,0,0,.1.093c.023.019.023.038.016.047s-.033.007-.056-.012c-.135-.111-.267-.23-.325-.278s-.191-.146-.273-.213c-.025-.021-.034-.039-.023-.053s.023-.015.049.006a.394.394,0,0,0,.078.052c.049.025.09,0,.143-.051.076-.073.2-.224.343-.4Z" transform="translate(-431.574 -597.012)" stroke="#707070" stroke-width="1"/>
            <path id="Path_24" data-name="Path 24" d="M458.977,622.6c.2-.317.239-.375.276-.444s.033-.11-.026-.174a.494.494,0,0,0-.082-.062q-.038-.024-.024-.046c.009-.015.028-.01.061.011.12.075.267.175.333.216s.209.125.291.176c.033.021.045.035.036.05s-.027.014-.05,0a.369.369,0,0,0-.071-.034c-.065-.027-.1-.009-.153.062s-.084.122-.283.439l-.184.293c-.192.3-.2.461-.148.614a.522.522,0,0,0,.23.261.514.514,0,0,0,.37.078c.2-.035.315-.214.45-.427l.165-.263c.2-.317.234-.378.273-.446a.12.12,0,0,0-.023-.172.463.463,0,0,0-.077-.059c-.026-.016-.033-.031-.024-.046s.028-.01.058.009c.115.072.262.171.264.173.025.016.179.106.265.16.031.019.043.034.034.048s-.027.014-.052,0a.372.372,0,0,0-.071-.034c-.067-.029-.1-.009-.153.062s-.084.122-.283.439l-.141.224a.893.893,0,0,1-.61.5.844.844,0,0,1-.568-.148.939.939,0,0,1-.422-.465.779.779,0,0,1,.144-.682Z" transform="translate(-452.395 -611.759)" stroke="#707070" stroke-width="1"/>
            <path id="Path_25" data-name="Path 25" d="M475.193,636.47c-.029-.035-.032-.049-.006-.1.062-.118.144-.249.166-.284s.04-.051.059-.042.013.033.005.049a.445.445,0,0,0-.038.124.411.411,0,0,0,.26.412.328.328,0,0,0,.471-.107c.05-.1.076-.2-.07-.43l-.1-.148c-.195-.3-.209-.5-.107-.689.14-.268.5-.3.822-.13a1.606,1.606,0,0,1,.314.211c.019.016.025.03.017.045s-.055.086-.146.258c-.024.046-.047.064-.066.054s-.017-.026,0-.051a.273.273,0,0,0,.014-.176.36.36,0,0,0-.207-.24c-.168-.088-.364-.083-.443.066-.051.1-.055.194.1.418l.069.1c.223.327.231.544.127.742a.524.524,0,0,1-.449.286.793.793,0,0,1-.439-.115A1.165,1.165,0,0,1,475.193,636.47Z" transform="translate(-466.932 -623.308)" stroke="#707070" stroke-width="1"/>
            <path id="Path_26" data-name="Path 26" d="M489.63,651.994a.178.178,0,0,1,.241-.084.171.171,0,0,1,.1.23.18.18,0,0,1-.247.091A.172.172,0,0,1,489.63,651.994Z" transform="translate(-479.614 -638.12)" stroke="#707070" stroke-width="1"/>
            <path id="Path_27" data-name="Path 27" d="M497.836,655.6a.178.178,0,0,1,.238-.093.171.171,0,0,1,.1.226.18.18,0,0,1-.244.1A.172.172,0,0,1,497.836,655.6Z" transform="translate(-486.821 -641.28)" stroke="#707070" stroke-width="1"/>
            <path id="Path_28" data-name="Path 28" d="M506.973,647.1a.163.163,0,0,1,.216-.1.155.155,0,0,1,.1.2.168.168,0,0,1-.221.1A.158.158,0,0,1,506.973,647.1Zm.27-.4c.037-.135.195-.724.2-.767s.111-.4.122-.512a.627.627,0,0,1,0-.079.078.078,0,0,1,.03-.038.718.718,0,0,1,.317-.078.316.316,0,0,1,.117.012c.017.006.019.026.012.045s-.081.141-.175.335c-.024.047-.518,1.06-.552,1.125s-.044.083-.075.072S507.225,646.77,507.243,646.706Z" transform="translate(-494.846 -632.272)" stroke="#707070" stroke-width="1"/>
            <path id="Path_29" data-name="Path 29" d="M526.9,651.5c.111-.427.131-.506.149-.6s.007-.148-.084-.193a.636.636,0,0,0-.111-.038c-.032-.008-.048-.018-.043-.038s.027-.02.071-.008c.079.02.162.045.235.064s.141.043.182.053c.093.024.672.175.728.186a1.262,1.262,0,0,0,.13.016.3.3,0,0,1,.049,0c.015,0,.015.016.011.03a1.792,1.792,0,0,0-.071.176c-.01.027-.048.15-.063.182-.006.013-.017.029-.037.023s-.023-.021-.016-.046a.3.3,0,0,0,.009-.106c-.007-.056-.028-.1-.169-.152-.048-.018-.352-.1-.41-.119-.015,0-.023,0-.028.023l-.185.711c-.005.019-.005.032.012.036.064.017.4.1.467.115a.216.216,0,0,0,.151-.006c.026-.017.041-.028.056-.025s.019.011.014.028-.028.059-.077.2c-.018.055-.055.166-.06.185s-.014.053-.04.047a.023.023,0,0,1-.019-.032.738.738,0,0,0,.015-.1c0-.06-.03-.113-.135-.152-.054-.02-.341-.1-.411-.116-.015,0-.02.007-.025.023l-.057.222c-.025.1-.095.354-.113.436-.044.2-.009.25.288.327a.794.794,0,0,0,.283.038c.084-.014.135-.064.185-.174.014-.029.023-.039.043-.034s.017.029.01.057a2.186,2.186,0,0,1-.119.3c-.039.068-.065.061-.176.032-.219-.057-.377-.1-.5-.139s-.213-.064-.3-.087c-.032-.008-.1-.025-.167-.04s-.144-.031-.2-.047c-.038-.01-.056-.024-.051-.043s.018-.019.052-.01a.5.5,0,0,0,.108.016c.061,0,.092-.054.125-.133.045-.114.1-.336.17-.595Z" transform="translate(-511.842 -637.004)" stroke="#707070" stroke-width="1"/>
            <path id="Path_30" data-name="Path 30" d="M542.184,659.231c-.015,0-.018,0-.027.013l-.2.3a.434.434,0,0,0-.065.142c-.008.043.011.073.091.087l.038.007c.033.006.036.018.034.033s-.02.023-.046.018c-.086-.016-.206-.046-.289-.061-.027,0-.167-.021-.3-.046-.033-.006-.046-.014-.043-.034s.014-.024.034-.02.054.007.078.011c.121,0,.179-.062.255-.175l.957-1.406c.042-.063.068-.088.094-.083s.046.032.063.091c.038.146.294,1.219.393,1.617.061.238.129.283.175.3a.69.69,0,0,0,.1.026c.024,0,.034.015.031.032s-.019.023-.117.005-.281-.051-.5-.1c-.047-.011-.076-.017-.073-.034s.01-.022.037-.02a.039.039,0,0,0,.034-.05l-.113-.525a.025.025,0,0,0-.023-.022Zm.581-.034c.012,0,.016,0,.014-.012l-.134-.662c0-.009,0-.024-.008-.025s-.015.012-.019.02l-.363.569c-.008.01,0,.017.006.019Z" transform="translate(-525.061 -643.498)" stroke="#707070" stroke-width="1"/>
            <path id="Path_31" data-name="Path 31" d="M562.058,660.062l-.392-.035c-.153-.014-.218,0-.263.047a.291.291,0,0,0-.054.079c-.008.02-.015.03-.034.028s-.022-.017-.019-.043.082-.271.09-.291.02-.045.035-.043.046.026.11.042a2.534,2.534,0,0,0,.262.041l1.067.119a1.188,1.188,0,0,0,.181.008c.043,0,.064,0,.073,0s.019.017.015.054-.032.233-.039.3c-.006.026-.014.039-.029.038s-.025-.015-.024-.052v-.026c0-.064-.059-.147-.3-.176l-.331-.043-.111.993c-.025.225-.044.419-.044.527,0,.07.011.118.087.138a1.028,1.028,0,0,0,.134.024c.03,0,.04.019.039.031s-.024.024-.054.02c-.173-.019-.349-.048-.424-.056-.06-.007-.24-.018-.345-.03-.033,0-.05-.014-.048-.032s.012-.025.045-.021a.384.384,0,0,0,.094,0c.055-.006.075-.05.092-.121.023-.1.045-.3.07-.521Z" transform="translate(-542.549 -645.067)" stroke="#707070" stroke-width="1"/>
            <path id="Path_32" data-name="Path 32" d="M588.335,663.552a.481.481,0,0,0-.06-.259c-.018-.038-.379-.581-.472-.712a.575.575,0,0,0-.171-.174.269.269,0,0,0-.111-.032c-.021,0-.039-.009-.039-.026s.018-.023.051-.024.244.006.331.006c.057,0,.18-.006.3-.005.024,0,.039.006.039.023s-.018.02-.06.032c-.021.006-.036.017-.036.038a.187.187,0,0,0,.033.084c.048.076.394.653.439.723.033-.058.355-.587.394-.662a.32.32,0,0,0,.039-.131c0-.023-.012-.046-.057-.055-.024-.006-.048-.009-.048-.029s.015-.023.045-.024c.087,0,.181.006.259.006.057,0,.232-.006.283-.005.03,0,.048.006.048.02s-.021.029-.051.029a.335.335,0,0,0-.114.029.35.35,0,0,0-.138.116,8.2,8.2,0,0,0-.514.79.556.556,0,0,0-.033.247v.2c0,.041,0,.142.006.247.006.073.03.119.108.131a1.006,1.006,0,0,0,.132.009c.03,0,.045.015.045.026s-.021.026-.057.026c-.166,0-.343-.009-.415-.009s-.244.009-.343.009c-.036,0-.057-.006-.057-.026s.012-.026.042-.026a.416.416,0,0,0,.093-.009c.054-.012.075-.058.081-.131.009-.1.009-.206.009-.247Z" transform="translate(-565.539 -647.281)" stroke="#707070" stroke-width="1"/>
            <path id="Path_33" data-name="Path 33" d="M606.638,662.273a1,1,0,0,1,1.028-1.054c.666-.054,1.108.269,1.154.833a1.018,1.018,0,0,1-1.025,1.1A.982.982,0,0,1,606.638,662.273Zm1.8-.1a.8.8,0,0,0-.836-.818c-.294.024-.627.2-.577.81a.821.821,0,0,0,.871.842C608.079,662.993,608.492,662.875,608.435,662.174Z" transform="translate(-582.357 -646.304)" stroke="#707070" stroke-width="1"/>
            <path id="Path_34" data-name="Path 34" d="M628.066,658.387c-.065-.369-.074-.439-.093-.515s-.049-.1-.135-.112a.514.514,0,0,0-.1.009c-.03.005-.046,0-.049-.018s.014-.026.052-.033c.139-.024.315-.049.392-.063s.239-.048.334-.064c.039-.007.057,0,.06.013s-.01.028-.037.033a.392.392,0,0,0-.076.022c-.066.023-.081.062-.072.148s.02.147.084.516l.06.341c.062.355.157.479.3.555a.524.524,0,0,0,.346.04.515.515,0,0,0,.327-.19.772.772,0,0,0,.048-.619l-.054-.306c-.065-.369-.08-.437-.1-.514s-.046-.1-.133-.112a.465.465,0,0,0-.1.008c-.03.005-.046,0-.049-.018s.014-.026.049-.032c.133-.023.309-.048.312-.049.03-.005.2-.041.3-.059.036-.006.054,0,.057.014s-.01.028-.04.034a.376.376,0,0,0-.076.022c-.069.024-.081.061-.072.148s.02.147.084.516l.046.26a.894.894,0,0,1-.121.776.844.844,0,0,1-.521.271.939.939,0,0,1-.625-.062.778.778,0,0,1-.35-.6Z" transform="translate(-600.839 -642.925)" stroke="#707070" stroke-width="1"/>
            <path id="Path_35" data-name="Path 35" d="M659.385,651.923c.069.228.123.394.164.49.03.067.06.106.138.095a.989.989,0,0,0,.127-.029c.031-.01.047,0,.051.012s-.01.03-.047.042c-.161.049-.342.094-.408.114s-.225.077-.32.106c-.035.01-.053.01-.059-.01s0-.028.03-.036a.413.413,0,0,0,.087-.035c.048-.027.049-.076.037-.148-.019-.1-.072-.278-.141-.506l-.126-.417c-.109-.359-.129-.425-.155-.5a.121.121,0,0,0-.148-.095.515.515,0,0,0-.1.022c-.023.007-.046,0-.051-.012s.013-.028.054-.041c.129-.039.292-.082.364-.1.1-.03.66-.2.719-.218a.757.757,0,0,0,.1-.043c.013-.007.022-.022.036-.026s.021.006.024.017,0,.048.012.112c0,.026.041.167.047.2s.006.05-.012.055-.035,0-.043-.03a.193.193,0,0,0-.042-.084.184.184,0,0,0-.183-.023l-.423.119c-.014,0-.022.013-.013.04l.174.573c0,.014.01.021.024.017l.353-.11c.043-.013.078-.023.114-.038a.139.139,0,0,0,.094-.074c.01-.018.013-.031.027-.036s.017,0,.021.018.012.081.026.159c.009.049.039.158.044.175s.013.054-.013.062-.028-.01-.033-.026a.224.224,0,0,0-.039-.067.134.134,0,0,0-.147-.05c-.065.013-.365.1-.408.115-.011,0-.016.008-.011.025Z" transform="translate(-627.858 -636.973)" stroke="#707070" stroke-width="1"/>
            <path id="Path_36" data-name="Path 36" d="M675.944,646.2a1,1,0,0,1,.676-1.308.94.94,0,0,1,1.347.46,1.018,1.018,0,0,1-.659,1.349A.982.982,0,0,1,675.944,646.2Zm1.689-.619a.794.794,0,0,0-1.038-.539c-.274.109-.54.376-.315.943a.82.82,0,0,0,1.078.55C677.531,646.466,677.892,646.233,677.633,645.579Z" transform="translate(-643.152 -631.878)" stroke="#707070" stroke-width="1"/>
            <path id="Path_37" data-name="Path 37" d="M697.105,636.607a1,1,0,0,1,.546-1.368.941.941,0,0,1,1.385.326,1.018,1.018,0,0,1-.526,1.406A.982.982,0,0,1,697.105,636.607Zm1.622-.781a.8.8,0,0,0-1.086-.435c-.262.135-.5.427-.222.97a.821.821,0,0,0,1.127.443C698.712,636.719,699.048,636.452,698.727,635.826Z" transform="translate(-661.698 -623.357)" stroke="#707070" stroke-width="1"/>
            <path id="Path_38" data-name="Path 38" d="M714.393,625.209c-.2-.316-.239-.374-.284-.439a.123.123,0,0,0-.168-.051.5.5,0,0,0-.093.049c-.023.015-.043.017-.052,0s.005-.031.038-.052c.117-.075.262-.16.325-.2s.225-.151.359-.236a1.48,1.48,0,0,1,1.049-.336.851.851,0,0,1,.548.394.942.942,0,0,1,.128.736,1.26,1.26,0,0,1-.591.723c-.081.052-.182.106-.274.158s-.177.1-.233.132c-.025.016-.072.049-.125.084s-.106.075-.151.1c-.028.018-.048.02-.057.006s-.006-.027.021-.045a.407.407,0,0,0,.074-.058c.039-.039.027-.086,0-.152-.046-.095-.151-.259-.273-.449Zm.446.039c.141.22.245.378.274.418s.087.12.119.131c.053.021.17.009.345-.1a.855.855,0,0,0,.4-.453.74.74,0,0,0-.14-.638.791.791,0,0,0-.54-.386,1.093,1.093,0,0,0-.75.2.585.585,0,0,0-.127.1.043.043,0,0,0,0,.06c.043.073.152.244.257.408Z" transform="translate(-676.439 -613.569)" stroke="#707070" stroke-width="1"/>
            <path id="Path_39" data-name="Path 39" d="M740.956,607.613c-.241-.287-.286-.34-.339-.4a.123.123,0,0,0-.173-.029.5.5,0,0,0-.086.061c-.021.018-.04.022-.051.009s0-.032.031-.057c.106-.089.238-.193.277-.226.1-.085.231-.2.3-.261.366-.308.583-.18.667-.08a.545.545,0,0,1,.052.523.619.619,0,0,1,.717.095c.17.2.181.551-.192.864-.023.02-.094.075-.166.129s-.144.114-.176.141-.065.058-.113.1-.1.088-.136.123c-.025.021-.045.026-.056.013s-.01-.026.015-.047a.407.407,0,0,0,.066-.067c.034-.044.015-.089-.025-.15-.058-.088-.184-.237-.33-.41Zm.288-.19c.013.015.022.012.03.008a.6.6,0,0,0,.1-.073.352.352,0,0,0,.131-.167.319.319,0,0,0-.076-.277.346.346,0,0,0-.492-.071.7.7,0,0,0-.084.078c-.012.014-.009.027.008.047Zm.468.555c.1.124.143.156.229.127a.5.5,0,0,0,.163-.1.311.311,0,0,0,.024-.476.537.537,0,0,0-.474-.175.386.386,0,0,0-.216.1l-.087.074c-.007.006-.01.012,0,.023Z" transform="translate(-699.713 -598.285)" stroke="#707070" stroke-width="1"/>
            <path id="Path_40" data-name="Path 40" d="M753.822,594.948c-.261-.268-.31-.318-.367-.372a.123.123,0,0,0-.175-.016.494.494,0,0,0-.081.067c-.019.019-.038.025-.051.013s0-.031.027-.059c.1-.1.224-.21.278-.262s.482-.466.517-.5.056-.071.07-.088a.319.319,0,0,1,.022-.038c.011-.01.021,0,.029,0a1.038,1.038,0,0,0,.1.129c.016.021.087.1.1.127s.022.035.007.05-.023.007-.038-.008a.224.224,0,0,0-.076-.052c-.045-.016-.085-.027-.188.057-.036.027-.267.244-.305.281-.009.008-.007.019,0,.029l.426.437c.01.011.02.017.031.006.043-.042.289-.281.328-.327s.065-.08.064-.115,0-.044.008-.052a.024.024,0,0,1,.034,0c.01.01.034.044.11.144.03.04.095.114.107.127s.036.042.019.058-.023.011-.031,0-.043-.04-.069-.058c-.045-.025-.1-.029-.172.034-.038.029-.258.235-.305.281-.009.009,0,.019.007.029l.138.142c.059.06.2.212.255.262.122.116.206.087.4-.1a.739.739,0,0,0,.156-.2.208.208,0,0,0-.046-.211c-.014-.023-.018-.035,0-.048s.04.006.058.025a1.6,1.6,0,0,1,.164.221c.032.058.015.075-.057.144-.142.138-.258.248-.355.334s-.168.155-.224.21c-.022.021-.06.063-.106.107s-.089.094-.127.132c-.024.023-.043.029-.055.017s-.012-.025.012-.048a.419.419,0,0,0,.061-.071c.031-.046.009-.09-.035-.148-.064-.083-.2-.223-.358-.385Z" transform="translate(-710.988 -587.015)" stroke="#707070" stroke-width="1"/>
            <path id="Path_41" data-name="Path 41" d="M764.713,580.413l-.254.3c-.1.117-.128.176-.112.241a.282.282,0,0,0,.034.09c.011.018.016.03,0,.044s-.027.008-.047-.009-.176-.223-.187-.241-.025-.042-.015-.053.047-.022.1-.066a2.545,2.545,0,0,0,.184-.191l.71-.805a1.242,1.242,0,0,0,.111-.143c.023-.036.033-.055.039-.062s.025-.006.053.019.173.16.221.2c.018.019.025.034.015.045s-.027.013-.057-.01l-.021-.015c-.052-.038-.154-.036-.314.141l-.225.247.75.661c.17.15.318.276.407.338.058.039.1.059.164.008a1,1,0,0,0,.1-.1c.02-.023.039-.022.048-.014s.006.033-.014.056c-.115.131-.239.258-.289.314s-.152.186-.222.265c-.022.025-.04.033-.053.021s-.014-.024.008-.049a.372.372,0,0,0,.055-.076c.027-.048,0-.09-.046-.145-.071-.078-.217-.207-.387-.357Z" transform="translate(-720.635 -574.573)" stroke="#707070" stroke-width="1"/>
            <path id="Path_42" data-name="Path 42" d="M776.255,566.357l-.229.321c-.089.125-.113.186-.093.25a.286.286,0,0,0,.041.087c.013.017.018.028.008.043s-.026.011-.047-.005-.193-.208-.205-.225-.028-.04-.019-.052.045-.026.092-.074a2.567,2.567,0,0,0,.168-.205l.643-.86a1.211,1.211,0,0,0,.1-.151c.021-.037.029-.058.034-.065s.024-.008.055.014.185.146.236.184c.019.018.027.031.018.044s-.025.015-.057-.005l-.023-.013c-.055-.033-.157-.023-.3.166l-.2.264.8.6c.182.136.339.25.432.3.061.035.108.05.164-.005a1.031,1.031,0,0,0,.088-.1c.018-.024.037-.025.046-.018s.008.032-.01.057c-.1.14-.218.277-.262.337s-.137.2-.2.282c-.02.026-.038.036-.052.025s-.016-.023,0-.049a.4.4,0,0,0,.049-.08c.023-.05-.005-.09-.058-.141-.077-.072-.232-.189-.414-.325Z" transform="translate(-730.798 -562.194)" stroke="#707070" stroke-width="1"/>
            <path id="Path_43" data-name="Path 43" d="M787.436,554.159c-.317-.2-.376-.238-.443-.277a.122.122,0,0,0-.174.025.505.505,0,0,0-.064.084c-.015.023-.032.034-.046.024s-.008-.03.013-.063c.074-.117.169-.256.209-.32s.361-.566.386-.61a1.109,1.109,0,0,0,.047-.1.309.309,0,0,1,.013-.042c.008-.013.02-.009.029,0a1.01,1.01,0,0,0,.124.1c.021.017.108.079.129.1s.03.03.018.047-.021.011-.038,0a.222.222,0,0,0-.086-.033c-.048-.006-.089-.006-.169.1-.029.035-.2.3-.232.345-.006.01,0,.02.01.028l.516.326c.012.008.024.011.032,0,.032-.051.215-.341.243-.395s.045-.093.035-.127-.011-.043,0-.053a.023.023,0,0,1,.033,0c.012.008.044.035.141.114.039.032.119.089.133.1s.045.032.032.052-.02.016-.03.009-.051-.028-.081-.04c-.05-.014-.1-.006-.16.073-.031.038-.2.289-.232.345-.006.01,0,.019.014.027l.167.106c.071.045.246.159.309.2.146.085.221.036.365-.192a.743.743,0,0,0,.106-.228c.011-.072-.017-.125-.094-.194-.019-.019-.025-.03-.016-.046s.04,0,.062.011a1.584,1.584,0,0,1,.211.177c.044.049.032.07-.021.154-.106.168-.194.3-.268.407s-.127.19-.169.256c-.016.025-.044.075-.078.129s-.064.112-.093.158c-.018.028-.035.039-.049.029s-.017-.021,0-.05a.385.385,0,0,0,.042-.083c.019-.052-.012-.089-.069-.136-.082-.066-.247-.17-.438-.291Z" transform="translate(-740.451 -551.182)" stroke="#707070" stroke-width="1"/>
            <path id="Path_44" data-name="Path 44" d="M795.8,540.311c-.331-.174-.393-.207-.464-.241a.122.122,0,0,0-.171.039.493.493,0,0,0-.057.089c-.013.024-.029.036-.044.028s-.011-.03.008-.064c.064-.123.148-.269.173-.317.042-.08.149-.3.187-.367a.953.953,0,0,1,.326-.4.428.428,0,0,1,.388-.007c.162.085.256.257.313.579.356-.078.641-.139.851-.208a.5.5,0,0,0,.276-.175.256.256,0,0,0,.035-.053.03.03,0,0,1,.039-.017c.018.009.015.028,0,.057l-.118.224a.59.59,0,0,1-.178.233,1.178,1.178,0,0,1-.489.151c-.167.031-.366.053-.414.064a.062.062,0,0,0-.038.034l-.116.208a.019.019,0,0,0,.008.028l.031.016c.2.107.374.193.473.231.068.026.115.037.163-.03a1.072,1.072,0,0,0,.068-.11.03.03,0,0,1,.039-.017c.015.008.013.031,0,.06-.071.136-.181.326-.2.361s-.094.2-.144.292c-.015.029-.032.041-.047.033s-.019-.02,0-.05a.411.411,0,0,0,.036-.087c.015-.053-.019-.088-.079-.13-.087-.059-.259-.15-.46-.255Zm.327-.209c.023.012.034.011.05,0a.752.752,0,0,0,.114-.168.272.272,0,0,0,.051-.184.412.412,0,0,0-.244-.322.4.4,0,0,0-.576.153.975.975,0,0,0-.065.142.03.03,0,0,0,.02.038Z" transform="translate(-747.782 -539.032)" stroke="#707070" stroke-width="1"/>
          </g>
        </g>
      </g>
      <g id="Group_14" data-name="Group 14" transform="translate(0 15.113)">
        <g id="Group_13" data-name="Group 13">
          <path id="Path_45" data-name="Path 45" d="M324.868,348.222c-1.581,4.35-12.568,7.479-18.709,9.742-1.263.466-3.095,1.1-5.132,1.686-.466.134-.942.265-1.426.391-4.077,1.065-8.593,1.75-10.9.443-1.962-1.117-3.067-3.224-3.651-5.617a22,22,0,0,1-.564-4.344.04.04,0,0,1,0-.019,30.918,30.918,0,0,1,.136-3.51c.023-.168.042-.337.065-.505.075-.574.146-1.151.221-1.728,0-.016,0-.026.006-.039.071-.564.145-1.131.216-1.7.036-.3.069-.6.1-.9.082-.862.13-1.723.138-2.591.015-.454,0-1.025-.033-1.716a6.348,6.348,0,0,0-.381-1.92,3.058,3.058,0,0,0-.955-1.377,1.74,1.74,0,0,0-1.742-.078,2.721,2.721,0,0,0-1.366,1.07,10.25,10.25,0,0,0-.886,1.537,13.688,13.688,0,0,0-.67,1.839q-.268.94-.49,1.912-.4,1.964-.616,3.942t-.35,3.974q-.13,2-.227,3.984t-.251,3.968c-.012.162-.023.336-.04.527a4.633,4.633,0,0,1-.079.534,1.239,1.239,0,0,1-.316.758l-.129.113a.162.162,0,0,0-.1.065l-.074.019a.089.089,0,0,0-.052.032.076.076,0,0,1-.048.035l-.223.058a.614.614,0,0,1-.242-.016,1.4,1.4,0,0,1-.42-.09,1.166,1.166,0,0,1-.466-.414,1.067,1.067,0,0,1-.2-.6l-.019-.074a46.118,46.118,0,0,1,.192-4.726q.217-2.353.3-4.754.1-2.046.094-4.047a34.456,34.456,0,0,0-.251-3.995c-.056-.407-.148-.919-.282-1.53a7.338,7.338,0,0,0-.581-1.69,3.146,3.146,0,0,0-.988-1.21,1.633,1.633,0,0,0-1.553-.108,2.514,2.514,0,0,0-1.342,1.162,10.531,10.531,0,0,0-.786,1.613,16.78,16.78,0,0,0-.534,1.9c-.145.659-.28,1.306-.4,1.947q-.314,1.984-.475,3.947t-.223,4q-.1,2.046-.086,4.064t-.015,4.045l-.044,1.955c.02.283.03.566.024.843a1.044,1.044,0,0,1-.359.75,1.124,1.124,0,0,1-.611.318,1.09,1.09,0,0,1-.621-.1,1.453,1.453,0,0,1-.5-.4,1.13,1.13,0,0,1-.228-.654c-.008-.527-.007-1.057,0-1.585s.02-1.064.04-1.6l-.011-3.684.026-.958q.017-2.063-.061-4.1a33.089,33.089,0,0,0-.406-4.053c-.112-.633-.24-1.272-.382-1.923a5.056,5.056,0,0,0-.735-1.748,2.456,2.456,0,0,0-3.75-.33,4.286,4.286,0,0,0-.877,1.5,9.335,9.335,0,0,0-.438,1.82,14.122,14.122,0,0,0-.14,1.66,10.2,10.2,0,0,0,.315,2.869,7.011,7.011,0,0,0,1.306,2.572,10.669,10.669,0,0,0,1.033,1.078,3.209,3.209,0,0,0,1.3.732c.285.084.557.156.812.222a1.488,1.488,0,0,1,.71.449,1.728,1.728,0,0,1,.461,1.306,1.768,1.768,0,0,1-.583,1.262,2.828,2.828,0,0,1-1.35.669,6.145,6.145,0,0,1-1.486.15,6.629,6.629,0,0,1-3.415-1.01,9.175,9.175,0,0,1-2.628-2.4A9.747,9.747,0,0,1,254,350.817a11.731,11.731,0,0,1-.449-3.309,12.82,12.82,0,0,1,.476-3.335,13.215,13.215,0,0,1,1.313-3.094,9.426,9.426,0,0,1,2.37-2.759,5.608,5.608,0,0,1,3.4-1.246,8.278,8.278,0,0,1,1.518.12,4.516,4.516,0,0,1,1.372.472,3.672,3.672,0,0,1,1.405,1.059,8.5,8.5,0,0,1,.963,1.492l.345.861a16.6,16.6,0,0,1,.456-2.04,17.312,17.312,0,0,1,.71-1.989,8.577,8.577,0,0,1,.848-1.607,5.836,5.836,0,0,1,1.2-1.324,4.517,4.517,0,0,1,1.53-.815,3.856,3.856,0,0,1,1.842-.085,4.014,4.014,0,0,1,1.525.61,4.553,4.553,0,0,1,1.112,1.079,6.689,6.689,0,0,1,.779,1.381,11.386,11.386,0,0,1,.517,1.529q.317-.915.69-1.765a9.452,9.452,0,0,1,.948-1.674,6.356,6.356,0,0,1,1.246-1.3,5.11,5.11,0,0,1,1.544-.837,4.831,4.831,0,0,1,1.7-.248,3.636,3.636,0,0,1,1.722.524,3.459,3.459,0,0,1,1.308,1.221,6.978,6.978,0,0,1,.748,1.65,8.519,8.519,0,0,1,.344,1.85q.077.969.067,1.846.019.984-.058,1.974c-.047.586-.116,1.171-.216,1.759,0,.007,0,.013,0,.016-.01.072-.023.142-.036.215-.006.037-.009.075-.015.112l0,.02c-.051.3-.1.642-.152,1.01a34.461,34.461,0,0,0-.145,8.34c.337,2.663,1.168,5.03,2.89,6.006,1.291.731,4.456.519,8.57-.491,1.2-.294,2.475-.656,3.813-1.081,1.034-.327,2.1-.692,3.194-1.1,8.727-3.214,16.456-5.867,17.38-8.409a1.118,1.118,0,0,1,2.1.764Z" transform="translate(-253.551 -323.579)" fill="#844807" stroke="#707070" stroke-width="1"/>
          <g id="Group_12" data-name="Group 12" transform="translate(34.882)">
            <path id="Path_46" data-name="Path 46" d="M587.748,275.187a.975.975,0,0,0-.738-.482,1.035,1.035,0,0,0-.856.144,1.177,1.177,0,0,0-.5.727c.006.024-.054.3-.177.839a9.664,9.664,0,0,1-.615,1.746,5.491,5.491,0,0,1-.8,1.478c-.245.273-.437.4-.571.387-.132.006-.206-.025-.226-.1a1.136,1.136,0,0,1-.2-.525,5.689,5.689,0,0,1,.019-1.53q.057-.69.2-1.516t.3-1.742q.381-1.726.562-2.92c.121-.8.19-1.226.2-1.282a1.009,1.009,0,0,0-.218-.834,1.178,1.178,0,0,0-.753-.456,1.009,1.009,0,0,0-.834.218,1.168,1.168,0,0,0-.456.753c-.07.544-.159,1.091-.268,1.633s-.21,1.091-.3,1.645c-.042.144-.075.27-.1.384s-.044.233-.062.371l-.544,2.164a17.434,17.434,0,0,1-1.567,4.013,4.489,4.489,0,0,1-.732.984.948.948,0,0,1-.629.323.594.594,0,0,1-.551-.29,1.5,1.5,0,0,1-.234-.436,3.413,3.413,0,0,1-.171-.884,10.934,10.934,0,0,1-.01-1.484c.023-.507.083-1.112.188-1.818.019-.132.038-.267.062-.406q.264-1.576.575-2.727a7.917,7.917,0,0,1,.353-1.16,1.158,1.158,0,0,0-.057-.9,1.1,1.1,0,0,0-.685-.572,1.152,1.152,0,0,0-.9.053.983.983,0,0,0-.537.676c-.037.064-.167.5-.393,1.31a27.709,27.709,0,0,0-.605,2.913c-.113.625-.2,1.215-.252,1.765-.029.182-.078.455-.144.82a11.5,11.5,0,0,1-.7,2.284q-1.087,2.737-2.813,2.678a.946.946,0,0,1-.756-.4,1.975,1.975,0,0,1-.286-.572,6.591,6.591,0,0,1-.285-1.175,13.681,13.681,0,0,1-.151-1.9,22.326,22.326,0,0,1,.178-2.864,55.758,55.758,0,0,1,1.536-7.749l6.972-1.96a1.3,1.3,0,0,0,.96-1.639,1.215,1.215,0,0,0-.62-.783,1.327,1.327,0,0,0-1.007-.13l-.042.011-5.429,1.51.293-1a1.472,1.472,0,0,0-.108-1.034,1.157,1.157,0,0,0-.788-.628,1.284,1.284,0,0,0-1.039.087,1.222,1.222,0,0,0-.622.809c-.133.437-.259.863-.382,1.279s-.249.845-.382,1.279l-5.612,1.51a1.194,1.194,0,0,0-.806.629,1.361,1.361,0,0,0-.11,1,1.381,1.381,0,0,0,.616.854,1.264,1.264,0,0,0,1.034.148l4.1-1.118q-.45,1.829-.756,3.478t-.479,3.13a26.024,26.024,0,0,0-.088,4.784c0,.03.006.057.009.087a10.866,10.866,0,0,1-1.413,3.288,3.871,3.871,0,0,1-.786.859,1.836,1.836,0,0,1-.43.251,2.322,2.322,0,0,1-.04-.306,3.941,3.941,0,0,1,.066-.81,7.1,7.1,0,0,1,.22-1.206q.169-.639.339-1.357.3-.988.5-1.972a13.987,13.987,0,0,0,.255-1.83,3.355,3.355,0,0,0-.317-1.819,2.283,2.283,0,0,0-1.576-1.332,3.014,3.014,0,0,0-1.191-.085,3.564,3.564,0,0,0-1.593.654,7.616,7.616,0,0,0-1.924,1.889l.446-1.781q.636-2.266,1.034-3.4t.388-1.171a1.028,1.028,0,0,0,.01-.874,1.042,1.042,0,0,0-.666-.579,1.03,1.03,0,0,0-.874-.009,1.168,1.168,0,0,0-.616.676q.01.037-.4,1.213t-1.07,3.489q-.554,2.126-1.319,5.5-.4,1.783-.795,3.9a2.763,2.763,0,0,1-.415.34q-.176.086-.319.143a1.067,1.067,0,0,1-.339.069q-.292-.359-.579-.7a3.2,3.2,0,0,0-.671-.6,7.606,7.606,0,0,1-1.043-1.035,5.2,5.2,0,0,1-.785-1.261,3.525,3.525,0,0,1-.3-1.387,2.855,2.855,0,0,1,.367-1.4c-.006-.024,0-.039.009-.042s.015-.017.009-.042l.027-.047a1.139,1.139,0,1,0-1.965-1.151l-.082.14q-.165.281-.529,1.01t-.8,1.854q-.44,1.125-.889,2.59-.424,1.382-.778,3.031a1.164,1.164,0,0,0-.071.242q-.1.383-.214.848-.1.383-.265.882t-.357.985a9.451,9.451,0,0,1-.707,1.314,1.884,1.884,0,0,1-1.092.9.985.985,0,0,1-.306.04,1.664,1.664,0,0,1-.694-.155,1.084,1.084,0,0,1-.333-.289,3.538,3.538,0,0,1-.3-.834,5.5,5.5,0,0,1,.017-1.906,19.428,19.428,0,0,1,.439-2.036,19.912,19.912,0,0,1,.771-2.282,1.077,1.077,0,0,0-.019-.906,1.146,1.146,0,0,0-.648-.584,1.03,1.03,0,0,0-.874-.009,1.041,1.041,0,0,0-.579.666q-.39.934-.786,2.226a15.165,15.165,0,0,0-.558,2.642,6.015,6.015,0,0,0,.612,4.317,3.262,3.262,0,0,0,2.944,1.41,2.186,2.186,0,0,0,.892-.074,4.266,4.266,0,0,0,1.7-1,7.229,7.229,0,0,0,1.647-2.57q.244-.578.434-1.144t.292-1.007q.1-.443.164-.736.031-.147.044-.229c.005-.022.014-.041.018-.064q.213-1.007.468-1.925t.526-1.7a7.376,7.376,0,0,0,2.1,2.424l-.408.107a3.967,3.967,0,0,0-1.572.807,3.863,3.863,0,0,0-1.037,1.341,4.418,4.418,0,0,0-.426,1.478,4.29,4.29,0,0,0,.114,1.575,3.742,3.742,0,0,0,1.352,2.143,2.959,2.959,0,0,0,2.768.585l.111-.029a3.852,3.852,0,0,0,1.913-1.173,5.1,5.1,0,0,0,.964-2.074c.015-.061.027-.124.04-.186a1.217,1.217,0,0,0,.247.072,1.068,1.068,0,0,0,.839-.2,1.111,1.111,0,0,0,.462-.735l.053-.252a22.094,22.094,0,0,1,.651-2.666,31.273,31.273,0,0,1,1.275-3.463,22.367,22.367,0,0,1,1.783-3.338,6.636,6.636,0,0,1,1.724-1.9,1.3,1.3,0,0,1,.625-.262,1.88,1.88,0,0,1,.3.02q.131.046.14.082c.013.05.027.131.044.246s.029.29.038.525a8.236,8.236,0,0,1-.24,1.509q-.21.867-.451,1.762-.215.849-.419,1.734a12.961,12.961,0,0,0-.28,1.658,4.849,4.849,0,0,0,.157,1.663,2.255,2.255,0,0,0,1.27,1.372,2.054,2.054,0,0,0,.639.17,2.338,2.338,0,0,0,.85-.083l.315-.082a.916.916,0,0,0,.3-.157A6.251,6.251,0,0,0,567.834,285q.124-.212.24-.432a3.48,3.48,0,0,0,2.843,1.517,4.892,4.892,0,0,0,1.353-.122A4.811,4.811,0,0,0,574.5,284.6a7.507,7.507,0,0,0,1.215-1.623,2.745,2.745,0,0,0,2.045.924,2.1,2.1,0,0,0,.417.008,2.348,2.348,0,0,0,.4-.063,3.493,3.493,0,0,0,1.286-.694,4.937,4.937,0,0,0,.7-.719,5.946,5.946,0,0,0,.635-.977l.174-.242.019.074a2.548,2.548,0,0,0,1.852,1.022,2.59,2.59,0,0,0,1.12-.115,3.012,3.012,0,0,0,1.36-1.008,7.331,7.331,0,0,0,.645-.942,12.267,12.267,0,0,0,.616-1.21,13.712,13.712,0,0,0,.68-2.022c.146-.606.228-.925.248-.956A1.242,1.242,0,0,0,587.748,275.187Zm-34.7,13.262a4.052,4.052,0,0,1-.11,1.019,7.372,7.372,0,0,1-.349.864,1.245,1.245,0,0,1-.872.683l-.037.01a.914.914,0,0,1-.619-.017,1.221,1.221,0,0,1-.417-.307,1.252,1.252,0,0,1-.246-.411c-.051-.145-.09-.267-.115-.366a2.978,2.978,0,0,1,.1-1.373,1.484,1.484,0,0,1,1.18-1.021,7.288,7.288,0,0,1,1.253-.208A3.123,3.123,0,0,1,553.045,288.449Z" transform="translate(-539.422 -263.039)" fill="#844807" stroke="#707070" stroke-width="1"/>
          </g>
        </g>
        <path id="Path_47" data-name="Path 47" d="M555.8,310.5a5.929,5.929,0,0,1-.476,3.112,9.385,9.385,0,0,1-1.259,2.1,9.728,9.728,0,0,1-1.181,1.278c.01-.037.182-.654.365-1.438a20.341,20.341,0,0,0,.43-2.351,3.215,3.215,0,0,0,.008-.5,9.7,9.7,0,0,0-.849-3.039,22.94,22.94,0,0,1-1.369,7.324c-1.481-3.6-1.207-7.108-.369-8.781a7.106,7.106,0,0,0,.255-3.9S555.325,306.923,555.8,310.5Z" transform="translate(-514.193 -299.267)" stroke="#707070" stroke-width="1" fill="url(#linear-gradient-3)"/>
      </g>
    </g>
    <g id="Group_16" data-name="Group 16" transform="translate(322.49 149.801)">
      <path id="Path_48" data-name="Path 48" d="M820.906,230.956a2.372,2.372,0,1,1,2.373-2.356A2.372,2.372,0,0,1,820.906,230.956Zm1.9-2.373a1.9,1.9,0,1,0-1.895,1.9A1.9,1.9,0,0,0,822.8,228.583Z" transform="translate(-818.533 -226.212)" fill="#1e1e1e" stroke="#707070" stroke-width="1"/>
      <path id="Path_49" data-name="Path 49" d="M830.922,236.346c.021.031.053.032.079.045a.675.675,0,0,1,.256.256c.067.106.117.221.174.333l.184.366c.023.046.046.091.068.137.014.031-.006.035-.03.035h-.484c-.039,0-.077,0-.116,0a.052.052,0,0,1-.053-.036q-.122-.252-.246-.5a1.342,1.342,0,0,0-.157-.268.359.359,0,0,0-.249-.132c-.073-.008-.147,0-.22,0-.035,0-.031.022-.031.045v.662c0,.066,0,.132,0,.2,0,.028-.007.04-.036.04h-.572c-.023,0-.034-.008-.032-.032s0-.018,0-.027v-2.368c0-.06,0-.06.062-.06h.956a1.74,1.74,0,0,1,.4.046.647.647,0,0,1,.392.232.588.588,0,0,1,.1.266.877.877,0,0,1-.007.327.54.54,0,0,1-.238.351A.77.77,0,0,1,830.922,236.346Zm-.826-.529q0,.139,0,.278c0,.026,0,.046.037.045a2.971,2.971,0,0,0,.351-.013.263.263,0,0,0,.245-.2.416.416,0,0,0-.02-.286.255.255,0,0,0-.218-.138,3.3,3.3,0,0,0-.348-.011c-.039,0-.049.014-.048.05C830.1,235.634,830.1,235.726,830.1,235.817Z" transform="translate(-828.123 -233.955)" fill="#1e1e1e" stroke="#707070" stroke-width="1"/>
    </g>
  </g>
</svg>
