<svg xmlns="http://www.w3.org/2000/svg" width="76.549" height="76.541" viewBox="0 0 76.549 76.541">
  <g id="Group_114" data-name="Group 114" transform="translate(0 0)">
    <g id="Group_102" data-name="Group 102">
      <g id="Group_98" data-name="Group 98">
        <g id="Group_96" data-name="Group 96">
          <path id="Path_214" data-name="Path 214" d="M74.535,324.577a38.27,38.27,0,1,0,38.271,38.27A38.319,38.319,0,0,0,74.535,324.577Zm0,75.337A37.066,37.066,0,1,1,111.6,362.847,37.112,37.112,0,0,1,74.535,399.914Z" transform="translate(-36.257 -324.577)" fill="#2b2b2b"/>
        </g>
        <g id="Group_97" data-name="Group 97" transform="translate(16.853 14.983)">
          <path id="Path_215" data-name="Path 215" d="M69.645,335.212a23.3,23.3,0,0,0-21.416,14.146h1.317a22.072,22.072,0,0,1,40.19,0h1.326A23.311,23.311,0,0,0,69.645,335.212Zm20.091,32.422a22.066,22.066,0,0,1-40.19,0H48.22a23.292,23.292,0,0,0,42.85,0Z" transform="translate(-48.22 -335.212)" fill="#2b2b2b"/>
        </g>
      </g>
      <g id="Group_101" data-name="Group 101" transform="translate(8.836 5.985)">
        <g id="Group_99" data-name="Group 99">
          <path id="Path_216" data-name="Path 216" d="M46.369,344.384l-1.23-.594.347-.714a1.521,1.521,0,0,0,.113-.94,1.3,1.3,0,0,0-.707-.9,1.324,1.324,0,0,0-.9-.08,1.4,1.4,0,0,0-.892.771l-.571,1.2v.008l3.615,1.727.008-.008.225-.458Zm-1.35-1.567-.362.748-1.421-.683-.008-.008.314-.651a.9.9,0,0,1,.4-.465.747.747,0,0,1,.707-.049l.031.017a.7.7,0,0,1,.33.337A.857.857,0,0,1,45.02,342.817Z" transform="translate(-42.529 -323.803)" fill="#2b2b2b"/>
          <path id="Path_217" data-name="Path 217" d="M48.389,339.921c-.707-.048-1.059-.072-1.068-.08a1.364,1.364,0,0,0,.032-.5,1.282,1.282,0,0,0-.555-.923,1.257,1.257,0,0,0-.875-.217,1.423,1.423,0,0,0-1,.626l-.747,1.093v.008l3.309,2.257h.008l.289-.425v-.008l-1.126-.771.427-.627c.063.009.49.048,1.269.113l.3.024.347-.514v-.008Zm-1.71.08-.466.683-1.3-.892-.008-.008.41-.595a.98.98,0,0,1,.466-.4.769.769,0,0,1,.707.056l.032.024a.766.766,0,0,1,.272.386A.861.861,0,0,1,46.678,340Z" transform="translate(-41.857 -324.995)" fill="#2b2b2b"/>
          <path id="Path_218" data-name="Path 218" d="M50.28,337.87l-1.109,1.2-.892-.819.875-.957-.385-.354-.885.948-.892-.82,1.109-1.2-.385-.354h-.008l-1.462,1.583,2.949,2.723H49.2l1.461-1.583v-.007Z" transform="translate(-41.009 -326.093)" fill="#2b2b2b"/>
          <path id="Path_219" data-name="Path 219" d="M51.891,332.492h-.007l-.514.393.795,3.454-1.591-.859c-1-.555-1.51-.835-1.526-.835l-.514.386v.007l2.417,3.2h.008l.442-.33-.008-.016-1.768-2.33h.008l2.651,1.445a.842.842,0,0,0,.168.089l.362-.265v-.017l-.723-3.116,1.775,2.322.008.008.434-.33v-.017Z" transform="translate(-40.074 -327.326)" fill="#2b2b2b"/>
          <path id="Path_220" data-name="Path 220" d="M52.951,331.423v-.009l-.466.249v.007L54.4,335.2v.007l.465-.248v-.009Z" transform="translate(-38.459 -327.767)" fill="#2b2b2b"/>
          <path id="Path_221" data-name="Path 221" d="M58.187,332.073l-.844-2.233h-.015l-.482.178v.016l.892,2.354a1.085,1.085,0,0,1,.072.538.793.793,0,0,1-.53.658l-.362.137a.722.722,0,0,1-.232.056.8.8,0,0,1-.555-.161,1.123,1.123,0,0,1-.378-.562l-.859-2.289h-.007l-.483.176-.007.017.907,2.385a1.622,1.622,0,0,0,.425.635,1.531,1.531,0,0,0,.362.224,1.353,1.353,0,0,0,1.076-.007l.241-.089a1.463,1.463,0,0,0,.683-.49,1.371,1.371,0,0,0,.256-.868A2.055,2.055,0,0,0,58.187,332.073Z" transform="translate(-37.678 -328.41)" fill="#2b2b2b"/>
          <path id="Path_222" data-name="Path 222" d="M62.464,328.833l-.008-.008-.635.1-.907,3.43H60.9l-1-1.5c-.634-.964-.955-1.447-.964-1.454l-.635.1-.007.008.651,3.952.007.009.538-.089.008-.008-.473-2.892L60.7,333.01a.633.633,0,0,0,.1.152l.449-.072.008-.008.811-3.092h.008l.473,2.884.008.008.538-.089.007-.009Z" transform="translate(-36.081 -328.825)" fill="#2b2b2b"/>
          <path id="Path_223" data-name="Path 223" d="M68.228,329.722a1.823,1.823,0,0,0-1.278-.779h-.007a1.836,1.836,0,0,0-1.117.217l-.2.128a2.035,2.035,0,0,0-.8,1.367v.016A1.943,1.943,0,0,0,65,331.755a2.018,2.018,0,0,0,.273.442,1.845,1.845,0,0,0,2.322.425l.4.506.4-.321V332.8l-.393-.49a2.012,2.012,0,0,0,.224-2.587Zm-.161,1.326-.008.041a1.371,1.371,0,0,1-.385.811l-.29-.354-.4.321.273.345a1.354,1.354,0,0,1-.723.121,1.335,1.335,0,0,1-.844-.451,1.487,1.487,0,0,1-.345-1.157,1.528,1.528,0,0,1,.425-.875,1.322,1.322,0,0,1,2.041.168A1.454,1.454,0,0,1,68.067,331.048Z" transform="translate(-33.419 -328.783)" fill="#2b2b2b"/>
          <path id="Path_224" data-name="Path 224" d="M72.59,330.446l-.49-.152h-.008l-.771,2.4a1.04,1.04,0,0,1-.273.473.8.8,0,0,1-.82.184l-.376-.12a.983.983,0,0,1-.21-.1.82.82,0,0,1-.337-.473,1.116,1.116,0,0,1,.056-.668l.738-2.329v-.017l-.49-.152-.015.009-.771,2.426a1.669,1.669,0,0,0-.056.771,1.482,1.482,0,0,0,.144.395,1.38,1.38,0,0,0,.844.666l.249.08a1.429,1.429,0,0,0,.835.039,1.4,1.4,0,0,0,.747-.521,2.039,2.039,0,0,0,.289-.635l.724-2.272Z" transform="translate(-31.812 -328.55)" fill="#2b2b2b"/>
          <path id="Path_225" data-name="Path 225" d="M74.929,331.306l-.49.4L71.611,334.1l.506.265.707-.6,1.686.89-.063.731a.48.48,0,0,0-.017.193l.507.273h.007l.362-3.687c.048-.418.063-.627.063-.627Zm-.362,2.771-1.3-.683.892-.747c.4-.345.6-.514.611-.514Z" transform="translate(-30.641 -327.811)" fill="#2b2b2b"/>
          <path id="Path_226" data-name="Path 226" d="M77.686,333.181l-.425-.313-2.394,3.222v.007l1.823,1.35L77,337.03v-.008l-1.4-1.036Z" transform="translate(-29.309 -327.172)" fill="#2b2b2b"/>
          <path id="Path_227" data-name="Path 227" d="M79.71,334.767,76.971,337.7v.008l.386.354,2.739-2.933v-.007Z" transform="translate(-28.449 -326.396)" fill="#2b2b2b"/>
          <path id="Path_228" data-name="Path 228" d="M80.881,336.01l-.4.337v.008l.692.811-2.643,2.265v.008l.345.4,2.651-2.274.69.811h.008l.393-.345Z" transform="translate(-27.813 -325.888)" fill="#2b2b2b"/>
          <path id="Path_229" data-name="Path 229" d="M84.469,340.876q-.085-.011-1.9-.12l.361-.892c.234-.562.354-.852.362-.885l-.362-.569-.842,2.1a1.744,1.744,0,0,1-.121.28l-1.63,1.028-.008.008.289.466h.017l1.63-1.028,2.563.176h.008Z" transform="translate(-27.079 -324.906)" fill="#2b2b2b"/>
        </g>
        <g id="Group_100" data-name="Group 100" transform="translate(1.486 44.481)">
          <path id="Path_230" data-name="Path 230" d="M47.624,363.265l-.771-1.076h-.008l-3.253,2.33-.008.007.3.418H43.9l1.109-.787.465.642a1.4,1.4,0,0,0,.764.555,1.27,1.27,0,0,0,1.124-.178,1.307,1.307,0,0,0,.507-.747A1.429,1.429,0,0,0,47.624,363.265Zm-.554,1.462-.032.024a.748.748,0,0,1-.458.128.842.842,0,0,1-.658-.361l-.483-.675,1.286-.916h.007l.418.586a.93.93,0,0,1,.217.578A.747.747,0,0,1,47.071,364.728Z" transform="translate(-43.584 -359.667)" fill="#2b2b2b"/>
          <path id="Path_231" data-name="Path 231" d="M49.506,365.558l-.916-.957h-.008l-2.9,2.764v.016l.352.369h.008l.989-.948.53.555c-.024.056-.145.466-.369,1.213a1.427,1.427,0,0,0-.089.3l.434.449h.008l.168-.586c.193-.683.29-1.028.3-1.037a1.339,1.339,0,0,0,1.5-.209,1.344,1.344,0,0,0,.393-.811A1.449,1.449,0,0,0,49.506,365.558Zm-.345,1.526-.032.024a.726.726,0,0,1-.434.193.844.844,0,0,1-.7-.265l-.579-.594,1.141-1.093h.015l.5.523a.991.991,0,0,1,.3.538A.766.766,0,0,1,49.161,367.083Z" transform="translate(-42.726 -358.681)" fill="#2b2b2b"/>
          <path id="Path_232" data-name="Path 232" d="M51.981,368.471l.33-.41-1.686-1.35-2.506,3.142L49.8,371.2l.33-.417-1.278-1.02.764-.948,1.012.811v-.008l.33-.4v-.008l-1.012-.8.755-.955Z" transform="translate(-41.731 -357.819)" fill="#2b2b2b"/>
          <path id="Path_233" data-name="Path 233" d="M56.275,370.413l-.562-.314-2.844,2.122-.008-.008.161-1.8q.158-1.712.145-1.736l-.554-.313-.017.007-1.951,3.5.007.007.475.266h.007l1.43-2.556-.265,3a.961.961,0,0,0-.007.2l.393.216.008-.007,2.57-1.912-1.421,2.563v.007l.475.266h.015l1.953-3.5Z" transform="translate(-40.698 -357.143)" fill="#2b2b2b"/>
          <path id="Path_234" data-name="Path 234" d="M56.287,370.292l-1.447,3.743v.009l.49.184h.008l1.438-3.743v-.008Z" transform="translate(-38.983 -356.355)" fill="#2b2b2b"/>
          <path id="Path_235" data-name="Path 235" d="M60.2,371.506l-.008.008-.6,2.441a1.129,1.129,0,0,1-.241.49.825.825,0,0,1-.811.241l-.378-.1a.884.884,0,0,1-.225-.08.8.8,0,0,1-.361-.451,1.125,1.125,0,0,1,.007-.675l.586-2.37L58.161,371l-.5-.121-.008.008-.61,2.474a1.7,1.7,0,0,0-.008.772,1.589,1.589,0,0,0,.169.385,1.379,1.379,0,0,0,.892.611l.258.056a1.439,1.439,0,0,0,.827-.008,1.361,1.361,0,0,0,.707-.571,1.853,1.853,0,0,0,.248-.651l.571-2.313v-.016Z" transform="translate(-38.102 -356.115)" fill="#2b2b2b"/>
          <path id="Path_236" data-name="Path 236" d="M65.147,371.879l-.642-.032-1.647,3.142-.642-1.688c-.4-1.076-.61-1.615-.618-1.631l-.642-.031-.008.007-.232,3.993v.008l.547.032.007-.008.169-2.923h.008l1.076,2.827c.039.12.063.176.063.176l.451.032.015-.016,1.478-2.836-.168,2.923.007.008.538.032.017-.009.232-4Z" transform="translate(-36.581 -355.805)" fill="#2b2b2b"/>
          <path id="Path_237" data-name="Path 237" d="M70.516,374.163a2.012,2.012,0,0,0-.618-2.523,1.855,1.855,0,0,0-1.469-.321v.008a1.762,1.762,0,0,0-.989.562l-.144.185a1.992,1.992,0,0,0-.314,1.55v.008a2,2,0,0,0,.514.981,2.3,2.3,0,0,0,.4.33,1.854,1.854,0,0,0,1.341.224,1.781,1.781,0,0,0,.989-.571l.547.347.273-.434V374.5Zm-.442-.282-.393-.241-.273.434.371.241a1.358,1.358,0,0,1-.651.345,1.344,1.344,0,0,1-.94-.152,1.509,1.509,0,0,1-.7-.981,1.449,1.449,0,0,1,.121-.964,1.317,1.317,0,0,1,1.984-.506,1.463,1.463,0,0,1,.579.892l.008.039A1.438,1.438,0,0,1,70.074,373.881Z" transform="translate(-34.037 -355.951)" fill="#2b2b2b"/>
          <path id="Path_238" data-name="Path 238" d="M74.2,372.081l-.875-2.209-.017-.008-.473.193-.008.008.931,2.346a1.162,1.162,0,0,1,.089.538.8.8,0,0,1-.521.659l-.362.152a2.15,2.15,0,0,1-.232.056.817.817,0,0,1-.555-.154,1.139,1.139,0,0,1-.386-.554l-.9-2.274-.008-.007-.482.192v.008l.94,2.37a1.6,1.6,0,0,0,.442.635,1.555,1.555,0,0,0,.361.217,1.4,1.4,0,0,0,1.076-.024l.241-.1a1.452,1.452,0,0,0,.675-.5,1.352,1.352,0,0,0,.242-.876A1.97,1.97,0,0,0,74.2,372.081Z" transform="translate(-32.621 -356.53)" fill="#2b2b2b"/>
          <path id="Path_239" data-name="Path 239" d="M75.319,369.03c-.328-.258-.5-.386-.506-.386l-.425.256.1.627.579,3.656.49-.29-.145-.923,1.631-.981.586.442a.732.732,0,0,0,.169.113l.489-.3Zm0,2.37-.185-1.141c-.08-.523-.128-.788-.12-.788l1.567,1.174Z" transform="translate(-30.992 -357.028)" fill="#2b2b2b"/>
          <path id="Path_240" data-name="Path 240" d="M80.467,368.777h-.008l-1.35,1.1-2.2-2.7H76.9l-.4.328v.009l2.539,3.109,1.758-1.438Z" transform="translate(-30.129 -357.627)" fill="#2b2b2b"/>
          <path id="Path_241" data-name="Path 241" d="M78.883,365.388h-.008l-.369.369,2.851,2.836.369-.378Z" transform="translate(-29.309 -358.359)" fill="#2b2b2b"/>
          <path id="Path_242" data-name="Path 242" d="M80.911,364.329l.675-.835-.41-.33h-.008L79.5,365.236l.41.33.666-.827,2.715,2.192.338-.409Z" transform="translate(-28.903 -359.269)" fill="#2b2b2b"/>
          <path id="Path_243" data-name="Path 243" d="M85.629,363.756l-1.655-1-1-2.361-.347.569c.017.056.273.644.755,1.76l-.964.08c-.6.048-.916.073-.94.08l-.354.579h.008l2.248-.2a2.823,2.823,0,0,1,.314-.024l1.647,1h.016l.282-.466Z" transform="translate(-28.239 -360.399)" fill="#2b2b2b"/>
        </g>
      </g>
    </g>
    <g id="Group_108" data-name="Group 108" transform="translate(5.372 24.312)">
      <g id="Group_105" data-name="Group 105" transform="translate(0 6.233)">
        <g id="Group_103" data-name="Group 103" transform="translate(5.052)">
          <path id="Path_244" data-name="Path 244" d="M57.9,356.833,57.659,346.4h3.254v15.239c-1.15,0-2.272.014-3.394-.015-.145,0-.332-.207-.418-.362-1.3-2.329-2.6-4.656-3.864-7.006-.641-1.195-1.2-2.433-1.889-3.64V361.61H48.32c-.014-.231-.038-.428-.038-.625,0-4.657.007-9.315-.013-13.971,0-.521.116-.728.673-.7.857.045,1.717.035,2.575,0a1.077,1.077,0,0,1,1.135.628c1.733,3.216,3.754,6.279,5.073,9.712C57.76,356.749,57.876,356.808,57.9,356.833Z" transform="translate(-41.77 -346.237)" fill="#2b2b2b"/>
          <path id="Path_245" data-name="Path 245" d="M72.8,352.138a5.877,5.877,0,0,0-3.607-4.931,11.435,11.435,0,0,0-3.757-.923c-1.769-.1-3.556.125-5.334.176-.562.017-.721.225-.721.771.034,2.291.017,4.571.017,6.852,0,2.306.017,4.612-.017,6.919,0,.52.21.672.679.672,1.829,0,3.657.092,5.477-.017a7.778,7.778,0,0,0,4.939-1.913C72.762,357.69,73.174,355.015,72.8,352.138Zm-5.368,6c-1.3,1.057-2.86,1.057-4.5.948-.008-.268-.024-.469-.024-.662-.008-2.894.008-5.787-.034-8.672-.008-.671.218-.906.838-.847a14.6,14.6,0,0,1,2.734.3,3.792,3.792,0,0,1,2.7,3.288C69.45,354.637,69.274,356.667,67.437,358.142Z" transform="translate(-37.226 -346.259)" fill="#2b2b2b"/>
          <path id="Path_246" data-name="Path 246" d="M88.366,361.648c-1.19,0-2.292.02-3.391-.023-.161-.007-.386-.286-.451-.482-.317-.961-.621-1.929-.865-2.909a.647.647,0,0,0-.749-.58c-1.062.013-2.126.024-3.187-.007a.669.669,0,0,0-.768.575c-.255.958-.54,1.907-.782,2.868a.632.632,0,0,1-.744.572c-.947-.038-1.895-.011-2.956-.011.238-.861.438-1.654.676-2.434,1.21-3.983,2.441-7.958,3.639-11.945.2-.672.478-1.031,1.261-.962a18.9,18.9,0,0,0,2.711.006.968.968,0,0,1,1.162.8c.7,2.4,1.444,4.781,2.181,7.167.611,1.978,1.237,3.952,1.851,5.93C88.094,360.661,88.213,361.112,88.366,361.648Zm-5.4-6.568-1.712-6.114-1.609,6.114Z" transform="translate(-31.058 -346.241)" fill="#2b2b2b"/>
          <path id="Path_247" data-name="Path 247" d="M74.143,353.983c0,2.327-.016,4.658.011,6.985.006.534-.139.724-.687.689a17.672,17.672,0,0,0-2.17,0c-.533.03-.706-.137-.7-.685.03-2.169.013-4.34.013-6.51,0-2.465.015-4.929-.011-7.393-.007-.562.165-.775.727-.751.723.032,1.448.03,2.17,0,.509-.02.658.182.654.679-.021,2.327-.01,4.657-.01,6.986Z" transform="translate(-32.642 -346.236)" fill="#2b2b2b"/>
          <path id="Path_248" data-name="Path 248" d="M43.67,361.643v-.73c0-4.612.011-9.225-.014-13.837,0-.607.183-.8.768-.759a17.613,17.613,0,0,0,1.965,0c.556-.028.735.175.733.741-.021,4.318-.011,8.637-.011,12.955a11.326,11.326,0,0,1-.017,1.219c-.015.147-.2.389-.314.392C45.769,361.655,44.758,361.643,43.67,361.643Z" transform="translate(-43.656 -346.237)" fill="#2b2b2b"/>
        </g>
        <g id="Group_104" data-name="Group 104" transform="translate(0 5.76)">
          <path id="Path_249" data-name="Path 249" d="M85.913,350.347l.488,1.5H87.98l-1.277.928.488,1.5-1.277-.928-1.277.928.488-1.5-1.277-.928h1.579Z" transform="translate(-22.175 -350.347)" fill="#2b2b2b"/>
          <path id="Path_250" data-name="Path 250" d="M42.137,350.347l.488,1.5H44.2l-1.277.928.488,1.5-1.277-.928-1.277.928.488-1.5-1.277-.928h1.579Z" transform="translate(-40.07 -350.347)" fill="#2b2b2b"/>
        </g>
      </g>
      <g id="Group_107" data-name="Group 107" transform="translate(22.667)">
        <path id="Path_251" data-name="Path 251" d="M59.746,364.048a2.362,2.362,0,0,1-1.74-.587c-.91-.9-.9-1.984.228-2.585A5.127,5.127,0,0,1,59.7,360.4c1.161-.22,2.332-.392,3.5-.564a8.177,8.177,0,0,1,.968-.037c1.275-.039,2.553-.034,3.822-.139.432-.037.824-.411,1.262-.53a11.41,11.41,0,0,1,2.888-.606c.741,0,1.085.885,1.512,1.468a9.953,9.953,0,0,1,.571.844c.111.186.289.461.224.59-.077.158-.375.22-.586.292a1.782,1.782,0,0,0-.652.283l.479.137v.678c-.754-.1-1.258.514-1.943.7-.624.17-.516,1.482.108,1.936a4.614,4.614,0,0,1,.479.461c-.086.086-.179.251-.256.244a1.838,1.838,0,0,1-.954-.192c-.365-.3-.568-.793-.913-1.128-.458-.445-.986-.817-1.554-1.275-.418.617-.765,1.1-1.076,1.609-.049.082.024.278.1.383a3.749,3.749,0,0,0,.409.44l-.063.163H66.631l.375-2.536c-.6-.162-1.245-.338-1.9-.509-.079-.021-.23-.035-.245,0a6.591,6.591,0,0,0-.655,1.559c-.038.214.4.545.662.768a3.023,3.023,0,0,0,.685.332c-.041.069-.075.192-.121.2-.386.038-.889.221-1.143.048-.811-.555-1.83-1.052-1.43-2.344a2.075,2.075,0,0,0-2.184,1.734c.617.251.617.251.547.757-1.013.142-1.46-.217-1.495-1.214-.011-.3,0-.607,0-.911a2.92,2.92,0,0,0,.423-.5c.316-.611.6-1.237.893-1.861.107-.234.189-.48.282-.72l-.128-.206c-.9.131-1.813.2-2.692.416a1.016,1.016,0,0,0-.744,1.206c.07.552.448.773.978.841A1.044,1.044,0,0,1,59.746,364.048Z" transform="translate(-55.672 -335.012)" fill="#2b2b2b"/>
        <g id="Group_106" data-name="Group 106">
          <path id="Path_252" data-name="Path 252" d="M56.167,341.834h.458q.013.01.513,1.135l.527,1.176h0l1.037-2.312h.461l.007.006v2.86l-.007.006h-.389l0-.006v-2.091h0l-.934,2.086-.007.007h-.323a.811.811,0,0,1-.058-.125l-.883-1.968h0V344.7l0,.006h-.39l-.007-.006v-2.86Z" transform="translate(-56.16 -341.834)" fill="#2b2b2b"/>
          <path id="Path_253" data-name="Path 253" d="M60.677,341.834s.061.139.17.421l1,2.447,0,0h-.41a.494.494,0,0,1-.058-.132l-.2-.486H59.812l-.249.618h-.406v0l.992-2.448.173-.42Zm-.709,1.872h1.051l-.523-1.295s-.076.178-.216.53Z" transform="translate(-54.935 -341.834)" fill="#2b2b2b"/>
          <path id="Path_254" data-name="Path 254" d="M61.918,341.835h.747a1.441,1.441,0,0,1,.94.349,1.523,1.523,0,0,1,.207.221,1.408,1.408,0,0,1,.29.854v.021a1.422,1.422,0,0,1-.434,1.02,1.535,1.535,0,0,1-.469.3,1.4,1.4,0,0,1-.517.1h-.764l-.006-.006v-2.858Zm.372.383v2.108h.345a1.072,1.072,0,0,0,.834-.369,1.045,1.045,0,0,0-.006-1.378.992.992,0,0,0-.241-.2,1.048,1.048,0,0,0-.244-.114,1.306,1.306,0,0,0-.385-.046h-.3Z" transform="translate(-53.809 -341.834)" fill="#2b2b2b"/>
          <path id="Path_255" data-name="Path 255" d="M64.407,341.834h1.544v.376H64.784v.869h.926v.373h-.926v.869h1.168v.379H64.407v-2.87Z" transform="translate(-52.789 -341.834)" fill="#2b2b2b"/>
          <path id="Path_256" data-name="Path 256" d="M67.741,341.834h.378v2.87h-.376v-2.87Z" transform="translate(-51.426 -341.834)" fill="#2b2b2b"/>
          <path id="Path_257" data-name="Path 257" d="M69.065,341.834h.407l1.376,2.051.125.19h0V341.84l.006-.006h.369l.006.006v2.86l-.006.006h-.409q-.106-.15-.782-1.169l-.726-1.075V344.7l0,.006h-.366l-.007-.006v-2.86Z" transform="translate(-50.887 -341.834)" fill="#2b2b2b"/>
        </g>
      </g>
    </g>
  </g>
</svg>
