<svg xmlns="http://www.w3.org/2000/svg" width="133.17" height="129.675" viewBox="0 0 133.17 129.675">
  <g id="Group_50" data-name="Group 50" transform="translate(-2158 -1960.023)">
    <g id="Group_39" data-name="Group 39" transform="translate(2158 1960.023)">
      <path id="Path_111" data-name="Path 111" d="M102.659,62.293A75.144,75.144,0,0,1,127.368,67c6,2.334,6.668,3.408,5.075,9.409-6.52,24.19-22.041,40.638-44.713,50.158-10.595,4.445-21.634,4.668-31.34-3.223-1.445-1.185-2.889-.889-4.519-.778-18.745,1.26-34.3-5.075-45.454-20.374C-.51,92.706-1.214,81.667,1.453,70.479,7.566,44.808,23.532,26.322,44.8,11.8A82.225,82.225,0,0,1,70.023.391c3.667-.963,6-.37,8.446,2.964,10.817,14.707,14,31.6,15.151,49.2a43.05,43.05,0,0,1-.037,6.557c-.222,2.667.556,3.741,3.408,3.26A32.093,32.093,0,0,1,102.659,62.293Zm-17.3-32.858c-1.445,3.556-.519,6.705-.741,9.78-.111,1.667-.259,3.593-2.149,3.741-2.445.185-2.482-2.074-2.482-3.779A91,91,0,0,0,75.616,13.06c-2.556-8.3-3.371-9.224-11.15-5.964C35.645,19.136,15.419,39.436,6.417,69.776c-5.038,17.04.519,31.006,15.114,40.675,11.817,7.816,22.56,7.3,33.155-1.667,8-6.779,18.522-26.265,20.115-36.822.778-5.3,3.075-10.3,3.371-15.707.111-1.926.63-3.779,2.815-3.593,2.593.222,2.556,2.334,2.112,4.334L80.877,67.219c-3.186,14.262-8.15,27.672-17.411,39.3-3.371,4.223-7.779,7.261-11.632,11.039a25.18,25.18,0,0,0,5.631-.852,21.747,21.747,0,0,0,2.408-.963c11.632-5.223,18.411-15.04,22.671-26.265C89.8,70.072,90.768,50.142,85.359,29.434Zm-6,76.126a16.558,16.558,0,0,0,9.965-6.038,3.158,3.158,0,0,1,3.927-.963c1.074.482.963,1.667.7,2.7-.778,3-10.928,10.224-13.114,8.594-4.7-3.556-5.594,1.148-7.928,2.7a52.646,52.646,0,0,0-5.779,4.519c-1.667,1.482-5.594,1.741-4.964,3.816.7,2.371,4.334,2.778,6.964,3.408a18.153,18.153,0,0,0,3.482.259c11.595.037,21.264-4.964,30.006-12,11.669-9.335,20.486-20.708,24.894-35.229.926-3.075.63-5.075-2.815-6.335a70.345,70.345,0,0,0-29.154-4c-2.26.148-2.889,1.408-3.223,3.371-.815,4.853-1.445,9.743-2.964,14.484A82.331,82.331,0,0,1,79.358,105.561Z" transform="translate(-0.014 0.026)" fill="#2b2b2b"/>
      <path id="Path_112" data-name="Path 112" d="M174.839,167.717A57.248,57.248,0,0,1,165.1,195.4c-1.752,2.663-3.5,4.416-6.588,2.523-3.294-1.962-3.084-4.626-1.192-7.71,4.275-7.079,7.57-14.438,8.2-22.919.28-3.575.14-8.551,5.958-7.92C177.362,160.008,173.577,165.054,174.839,167.717Z" transform="translate(-102.374 -110.365)" fill="#2b2b2b"/>
      <path id="Path_113" data-name="Path 113" d="M148.75,149c-2.874.35-4.7-1.752-4.275-3.855a192.96,192.96,0,0,1,11.565-34.975c.771-1.752,3.014-2.1,5.117-1.262,2.173.911,3.084,2.733,2.383,4.626-3.785,10.794-6.308,22.078-11.565,32.381C151.343,147.463,150.993,149.215,148.75,149Z" transform="translate(-94.893 -75.385)" fill="#2b2b2b"/>
      <path id="Path_114" data-name="Path 114" d="M137.679,230.6c3.645.981,5.257,3.575,3.575,7.289-4.486,9.742-9.813,18.994-17.943,26.213-2.243,1.963-4.7,4.205-7.78,1.051-2.874-2.944-.491-4.976,1.4-6.939,6.939-7.149,12.686-15,15.98-24.461C133.614,231.862,135.086,230.67,137.679,230.6Z" transform="translate(-76.563 -158.325)" fill="#2b2b2b"/>
      <path id="Path_115" data-name="Path 115" d="M45.611,146.533c1.682-10.3,6.518-18.994,13.247-26.774,1.682-1.963,3.785-3.575,6.378-1.4s2.663,5.046.561,7.219c-6.238,6.518-9.672,14.3-11.565,22.989-.561,2.593-2.173,4.766-5.117,4.205C45.681,152.14,44.98,149.547,45.611,146.533Z" transform="translate(-13.59 -80.417)" fill="#2b2b2b"/>
      <path id="Path_116" data-name="Path 116" d="M111.1,146.788A160.724,160.724,0,0,1,125.6,118.612a3.61,3.61,0,0,1,5.046-1.332,3.851,3.851,0,0,1,1.892,5.537q-6.939,14.4-14.158,28.737c-.981,1.962-2.944,3.5-5.467,2.243C110.395,152.465,110.745,150.152,111.1,146.788Z" transform="translate(-73.331 -80.461)" fill="#2b2b2b"/>
      <path id="Path_117" data-name="Path 117" d="M92.732,195.873c-2.944,7.5-5.817,14.859-8.761,22.218-.981,2.523-2.243,4.976-3.084,7.57-.841,2.663-2.593,3.294-5.046,2.8-2.8-.561-3.575-2.874-3.014-5.046a113.475,113.475,0,0,1,12.406-30.209,3.322,3.322,0,0,1,4.205-1.612A5.038,5.038,0,0,1,92.732,195.873Z" transform="translate(-47.824 -131.784)" fill="#2b2b2b"/>
      <path id="Path_118" data-name="Path 118" d="M115.44,216.139c-3.5-.07-5.607-1.752-4.556-4.065,4.626-10.443,9.672-20.746,14.859-30.909.911-1.752,3.294-1.822,5.257-.911,2.1.981,2.453,2.944,1.752,4.906A190.672,190.672,0,0,1,118.8,213.9C117.963,215.018,116.141,215.579,115.44,216.139Z" transform="translate(-73.22 -123.472)" fill="#2b2b2b"/>
      <path id="Path_119" data-name="Path 119" d="M87.464,97.414c-4.836.35-5.046-2.243-4.626-5.327.771-6.378,15.84-22.919,22.218-24.251,2.1-.421,3.785,0,5.046,1.822,1.332,1.963,1.051,3.855-.631,5.117-7.99,5.888-15.139,12.476-19.7,21.447C89.286,96.993,87.815,97.2,87.464,97.414Z" transform="translate(-55.515 -45.691)" fill="#2b2b2b"/>
      <path id="Path_120" data-name="Path 120" d="M81.8,139.751c1.682-12.406,8.621-21.027,16.681-28.877,1.4-1.4,3.5-1.4,5.046.491,1.472,1.822,2.453,3.925.561,5.888a68.905,68.905,0,0,0-15,24.952c-.771,2.1-2.663,2.733-4.7,2.243C81.59,143.747,82.571,140.943,81.8,139.751Z" transform="translate(-54.261 -75.152)" fill="#2b2b2b"/>
      <path id="Path_121" data-name="Path 121" d="M56.441,195.393c1.4-9.252,3.715-18.153,8.971-26.143,1.752-2.593,3.785-3.364,6.168-2.1s3.154,3.434,1.542,6.238c-4.416,7.92-8.2,16.121-7.78,25.583.14,3.154-2.173,4.766-4.766,4.205C56.652,202.332,55.951,198.967,56.441,195.393Z" transform="translate(-36.854 -114.536)" fill="#2b2b2b"/>
      <path id="Path_122" data-name="Path 122" d="M55.01,241.291c-.771,4.836,2.243,10.724,2.8,17.032.28,3.014,1.752,6.518-2.243,7.64-4.346,1.192-5.4-2.663-6.378-5.817a61.111,61.111,0,0,1-2.243-24.391c.35-3.224.35-7.289,5.187-6.588,4.135.561,3.715,4.065,3.224,7.149C55.22,237.437,55.22,238.558,55.01,241.291Z" transform="translate(-13.947 -157.7)" fill="#2b2b2b"/>
      <path id="Path_123" data-name="Path 123" d="M161.491,37.447c0,2.874-1.051,4.135-3.224,4.906A50.116,50.116,0,0,0,137.45,56.371c-1.892,2.033-4,4-7.009,1.612-3.224-2.523-1.4-4.556.28-6.939,6.168-8.481,14.789-13.387,24.391-16.751C158.407,33.1,161.07,34.082,161.491,37.447Z" transform="translate(-87.374 -10.094)" fill="#2b2b2b"/>
      <path id="Path_124" data-name="Path 124" d="M26.287,202.293c-.14-6.659.7-13.107,4-19.064,1.472-2.733,3.014-5.677,6.8-3.785,3.364,1.612,2.383,4.416,1.332,7.079-2.663,7.219-4.556,14.579-3.715,22.429.35,3.224.421,6.448-3.785,6.8s-4.626-2.874-4.626-6.1C26.217,207.2,26.287,204.746,26.287,202.293Z" transform="translate(-7.863 -123.056)" fill="#2b2b2b"/>
      <path id="Path_125" data-name="Path 125" d="M189.7,98.352c-.21,4.626-.28,9.322-.631,13.948-.21,2.944-1.472,5.677-4.906,5.327-3.294-.28-4.205-3.084-4.065-6.1.421-9.042.981-18.083,1.4-27.125.14-2.663,1.332-4.275,3.925-4.205,2.453.07,4.135,1.472,4.135,4.135.07,4.626,0,9.322,0,13.948C189.556,98.352,189.626,98.352,189.7,98.352Z" transform="translate(-115.737 -55.256)" fill="#2b2b2b"/>
      <path id="Path_126" data-name="Path 126" d="M162.82,64.34c-.911,1.682-2.033,3.855-3.224,5.958-3.434,5.817-6.8,11.7-10.443,17.452-1.472,2.313-3.434,4.416-6.729,2.874-3.5-1.682-2.733-4.7-1.4-7.009,4.416-7.5,9.182-14.719,13.808-22.078,1.4-2.243,3.5-2.313,5.747-1.682C162.539,60.414,162.679,62.1,162.82,64.34Z" transform="translate(-92.706 -40.369)" fill="#2b2b2b"/>
      <path id="Path_127" data-name="Path 127" d="M97.868,255.249c-3.715,7.289-7.99,15.139-14.158,21.8-1.752,1.892-4,1.472-5.888-.28a3.932,3.932,0,0,1-.631-5.257c4.275-6.659,8.691-13.177,13.107-19.7,1.121-1.682,2.874-2.874,4.906-2.033C97.1,250.553,98.288,252.095,97.868,255.249Z" transform="translate(-50.501 -168.026)" fill="#2b2b2b"/>
      <path id="Path_128" data-name="Path 128" d="M287.806,261.836c-.771,1.542-1.472,3.925-2.944,5.817a53.455,53.455,0,0,1-15.77,14.158c-2.663,1.612-5.888,2.313-7.85-1.262-1.752-3.294.631-5.327,3.084-6.588,6.588-3.294,11.144-8.551,15.28-14.438,1.332-1.962,3.084-3.154,5.537-2.173A3.872,3.872,0,0,1,287.806,261.836Z" transform="translate(-174.516 -171.91)" fill="#2b2b2b"/>
      <path id="Path_129" data-name="Path 129" d="M215.647,317.022c-3.434.28-5.747-.421-6.168-3.434-.35-2.593,1.262-3.925,3.645-4.626a54.292,54.292,0,0,0,20.326-10.093c1.962-1.612,4.205-1.752,5.887.14,1.822,2.1,1.612,4.486-.561,6.518A41.992,41.992,0,0,1,215.647,317.022Z" transform="translate(-141.612 -204.677)" fill="#2b2b2b"/>
      <path id="Path_130" data-name="Path 130" d="M319.724,213.283c-2.383,7.57-5.747,15.42-12.686,21.307-2.243,1.892-4.205,2.523-6.448.421-2.313-2.173-1.542-4.486.35-6.448a46.487,46.487,0,0,0,10.794-18.924c.841-2.8,2.733-4.346,5.467-3.364C319.935,207.185,320.355,209.778,319.724,213.283Z" transform="translate(-208.282 -139.273)" fill="#2b2b2b"/>
      <path id="Path_131" data-name="Path 131" d="M285.13,226.923c-.28,6.939-14.719,22.779-20.536,23.48-1.682.21-3.434,0-4.135-1.822-.841-2.173-.981-4.275,1.262-5.887,6.308-4.556,11.635-9.813,15-17.032.981-2.173,3.224-2.874,5.677-2.173A3.431,3.431,0,0,1,285.13,226.923Z" transform="translate(-173.181 -149.738)" fill="#2b2b2b"/>
    </g>
  </g>
</svg>
