<svg xmlns="http://www.w3.org/2000/svg" width="73.724" height="73.725" viewBox="0 0 73.724 73.725">
  <path id="ic_local_phone_24px" d="M17.827,34.906A62.046,62.046,0,0,0,44.818,61.9l9.011-9.011a4.072,4.072,0,0,1,4.178-.983,46.721,46.721,0,0,0,14.622,2.335,4.108,4.108,0,0,1,4.1,4.1V72.629a4.108,4.108,0,0,1-4.1,4.1A69.623,69.623,0,0,1,3,7.1,4.108,4.108,0,0,1,7.1,3H21.431a4.108,4.108,0,0,1,4.1,4.1,46.53,46.53,0,0,0,2.335,14.622A4.11,4.11,0,0,1,26.838,25.9Z" transform="translate(-3 -3)" fill="#2b2b2b"/>
</svg>
