<svg id="Group_49" data-name="Group 49" xmlns="http://www.w3.org/2000/svg" width="117.819" height="135.652" viewBox="0 0 117.819 135.652">
  <g id="Group_40" data-name="Group 40">
    <path id="Path_132" data-name="Path 132" d="M445.584,85.155a4.775,4.775,0,0,0,.155,2.247c.387,1.821.659,3.642.93,5.463.387,2.4.7,4.843,1.007,7.245.155,1.278.232,2.6.426,3.874.31,1.976.232,3.99.542,5.966a24.512,24.512,0,0,1,.155,5.579,20.022,20.022,0,0,1-1.976,6.935,37.59,37.59,0,0,1-9.918,12.514,1.942,1.942,0,0,1-2.906.039,37.728,37.728,0,0,1-8.523-9.841,22.553,22.553,0,0,1-3.409-14.257c.155-1.86.194-3.719.465-5.579.349-2.325.426-4.688.891-7.012a6.427,6.427,0,0,1,.271-1.9c.116-.194.155-.542-.155-.62-.232-.077-.349.194-.465.387-1.511,2.092-3.1,4.107-4.765,6.083-2.518,2.983-5.114,5.85-7.865,8.562a82.742,82.742,0,0,1-8.02,7.167,1.992,1.992,0,0,1-2.6-.116c-.969-.969-1.976-1.937-2.944-2.944a1.99,1.99,0,0,1-.039-2.751,1.935,1.935,0,0,1,2.789-.194,10.393,10.393,0,0,1,1.162,1.085c.387.465.659.465,1.124.039,2.944-2.6,5.734-5.308,8.446-8.136a130.641,130.641,0,0,0,8.485-9.957,101.914,101.914,0,0,0,5.966-8.717c.116-.194.232-.426.349-.62-.31-.232-.465,0-.62.116a165.338,165.338,0,0,1-13.172,10.693,90.015,90.015,0,0,1-9.414,6.238,4.57,4.57,0,0,1-4.455.155.678.678,0,0,1-.426-.7c0-.426,0-.852-.039-1.278,0-.542.077-.736.736-.775a5.585,5.585,0,0,0,1.976-.891,70.384,70.384,0,0,0,7.4-4.727c.387-.271.736-.542,1.085-.775a.9.9,0,0,1,.775-.155c1.085.155,1.627-.31,1.782-1.395a1.11,1.11,0,0,1,.426-.736c3.719-2.751,7.245-5.734,10.693-8.833.155-.155.426-.387.426-.542-.039-.31-.426-.271-.659-.349a5.884,5.884,0,0,1-4.649-5.928,8.642,8.642,0,0,1,.736-3.564c.077-.194.349-.349.194-.581-.155-.194-.465-.116-.659-.039-1.627.542-3.293,1.046-4.882,1.666-2.325.852-4.61,1.743-6.9,2.634-3.293,1.317-6.509,2.673-9.686,4.223a36.868,36.868,0,0,0-6.16,3.448,20.311,20.311,0,0,0-5.579,6.974,24.022,24.022,0,0,0-2.053,5.075c-.039.155-.232.349-.039.5.194.116.349,0,.5-.116,3.409-1.976,6.819-3.913,10.189-5.889,2.325-1.356,4.61-2.712,6.935-4.029a2.563,2.563,0,0,1,2.6.077,2.245,2.245,0,0,1,.542,2.363A2.648,2.648,0,0,1,401.5,89.8l-16.969,9.763c-.116.077-.31.155-.349.271-.039.232.232.232.349.349.31.232.736.155,1.085.232a26.875,26.875,0,0,0,6.586.542,1.742,1.742,0,0,1,1.7.775c.5.736,1.085,1.433,1.666,2.17.155.194.465.426.349.7-.116.31-.465.116-.736.155-.62.077-1.2.155-1.821.194-.271,0-.581.039-.62-.349a.632.632,0,0,1,.465-.659,1.376,1.376,0,0,1,.387-.077c.465.077.852-.116.852-.62,0-.465-.5-.5-.852-.542a1.8,1.8,0,0,0-1.976,1.511c-.077.659-.387.736-.93.736a35.217,35.217,0,0,1-10.034-1.55c-.93-.271-1.821-.581-2.712-.891a1.761,1.761,0,0,1-1.24-1.821,14.777,14.777,0,0,1,.775-4.3,41.59,41.59,0,0,1,2.17-6.044c2.518-5.5,6.16-9.879,11.739-12.591,5.075-2.441,10.228-4.727,15.5-6.78,2.634-1.007,5.269-1.976,7.9-2.867.232-.077.542-.039.5-.387,0-.31-.31-.271-.542-.349-3.835-1.278-7.632-2.712-11.39-4.223-3.138-1.279-6.276-2.634-9.337-4.068-3.371-1.588-6.7-3.216-9.3-6.005a30.078,30.078,0,0,1-5.075-7.748,47.171,47.171,0,0,1-2.751-8.175,8.215,8.215,0,0,1-.232-1.666c-.155-1.937.426-2.208,1.9-2.712a49.827,49.827,0,0,1,7.09-1.743,32.292,32.292,0,0,1,10.034-.155,19.483,19.483,0,0,1,8.485,3.371c3.448,2.4,6.9,4.765,10.228,7.361a.712.712,0,0,0,.581.194,5.686,5.686,0,0,0-.775-2.092c-1.395-3.1-2.634-6.238-3.8-9.414-1.162-3.216-2.17-6.509-3.177-9.8-.465-1.588-.814-3.254-1.2-4.882-.116-.5-.271-.7-.814-.387a2.149,2.149,0,0,1-2.751-.426,2.421,2.421,0,0,1,.31-2.789c.891-.891,1.782-1.782,2.634-2.673a2.01,2.01,0,0,1,2.208-.581,2.209,2.209,0,0,1,1.433,1.86c.542,2.48,1.124,4.959,1.821,7.4.542,1.937,1.085,3.874,1.7,5.773q1.627,5.056,3.6,10c.93,2.325,1.937,4.572,3.022,6.819a90.826,90.826,0,0,0,4.339,8.136,5.629,5.629,0,0,0,1.588,1.433c.349.271.426-.039.387-.271a8.213,8.213,0,0,0-.232-1.666c-.426-1.821-.659-3.642-.969-5.463-.31-1.937-.62-3.874-.852-5.811-.194-1.7-.387-3.371-.62-5.075-.31-2.325-.387-4.649-.659-6.974a19.806,19.806,0,0,1,.116-5.656,24.077,24.077,0,0,1,1.472-5.191,33.416,33.416,0,0,1,7.594-10.925,27.443,27.443,0,0,1,2.712-2.48,2.015,2.015,0,0,1,2.944-.039,40.536,40.536,0,0,1,7.71,8.562,27.64,27.64,0,0,1,3.719,8.136,20.7,20.7,0,0,1,.465,7.555c-.194,1.7-.155,3.448-.465,5.153-.31,1.782-.232,3.6-.659,5.346a11.372,11.372,0,0,0-.194,1.976c-.116,1.472-.465,2.867-.581,4.339-.077.7-.232,1.395-.349,2.092a2.883,2.883,0,0,0,.039,1.511c.62-.891,1.162-1.666,1.7-2.441A188.685,188.685,0,0,1,460.306,27.08a94.22,94.22,0,0,1,10.887-11,37.981,37.981,0,0,1,6.121-4.339,2.157,2.157,0,0,1,2.557.271c.93.891,1.86,1.821,2.789,2.751a2.029,2.029,0,0,1,.039,2.983,2.087,2.087,0,0,1-2.944-.116c-.426-.387-.814-.775-1.2-1.2-.31-.349-.62-.31-1.007-.077a58.476,58.476,0,0,0-9.143,7.826c-2.6,2.673-5.036,5.5-7.361,8.407q-4.242,5.346-8.136,10.925c-.232.349-.62.581-.581,1.162.542-.077.852-.5,1.24-.775,4.727-3.719,9.569-7.284,14.606-10.538a15.442,15.442,0,0,1,2.4-1.2c.387-.194.5-.116.465.349a1.546,1.546,0,0,0,2.363,1.55c.387-.155.891-.542,1.124-.039s-.349.736-.736.969a91.659,91.659,0,0,0-8.949,5.424c-3.448,2.441-6.819,5-10.073,7.71-3.681,3.022-7.206,6.2-10.654,9.492a2.614,2.614,0,0,0-.852,2.053A11.042,11.042,0,0,1,442.485,64c-.155.426-.078.7.465.736a32.243,32.243,0,0,1,4.61.891,4.927,4.927,0,0,0,2.208-.465c1.9-.542,3.8-1.162,5.7-1.782,3.719-1.24,7.361-2.634,11-4.107,2.789-1.124,5.54-2.286,8.213-3.6a34.249,34.249,0,0,0,7.245-4.107,20.165,20.165,0,0,0,5.036-6.509,24.151,24.151,0,0,0,2.092-5.075c.039-.194.31-.387.078-.542-.194-.155-.426,0-.581.116-2.286,1.317-4.533,2.634-6.819,3.952-.814.465-1.55.969-2.6.387a2.054,2.054,0,0,1-.155-3.526c2.479-1.472,4.959-2.867,7.439-4.3.194-.116.581-.116.465-.426-.039-.155-.387-.31-.581-.349-2.828-.426-5.618-.969-8.485-.581-.7.116-1.434-.077-2.092.31-.194-.271-.039-.5-.039-.736a1.574,1.574,0,0,0-2.247-1.472c-.387.155-.891.659-1.2.116-.31-.581.426-.7.814-.969a.7.7,0,0,0,.271-.194c.349-1.085.775-.426,1.124-.039.581.581,1.085,1.24,1.666,1.86.232.271.426.7.891.271s.116-.7-.116-1.007c-.542-.62-1.124-1.278-1.7-1.937,1.356-.542,2.17.155,2.867,1.085.232.349.5.581.891.155.194-.232.271-.426.039-.7-.232-.232-.426-.465-.62-.7a.669.669,0,0,0,.116-.155,4.77,4.77,0,0,0,2.557.039,13.915,13.915,0,0,1,4.184.349c1.24.232,2.518.426,3.758.736a28.625,28.625,0,0,1,4.378,1.356,1.733,1.733,0,0,1,1.085,1.627,14.351,14.351,0,0,1-.775,4.455,37.471,37.471,0,0,1-2.17,6.044c-2.286,4.959-5.424,9.182-10.344,11.855-2.673,1.433-5.463,2.712-8.252,3.952-3.874,1.7-7.787,3.254-11.7,4.727-1.588.62-3.254,1.124-4.882,1.666-.232.077-.5.077-.5.387.039.271.271.271.5.31,5.5,1.821,10.848,3.913,16.156,6.238a84.857,84.857,0,0,1,9.957,4.92,22.426,22.426,0,0,1,7.632,8.291,41.123,41.123,0,0,1,3.642,8.872,16.2,16.2,0,0,1,.736,3.564c.116,1.9-.31,2.247-2.015,2.789a48.68,48.68,0,0,1-7.012,1.7,32.463,32.463,0,0,1-8.213.349,20.539,20.539,0,0,1-10.383-3.6c-2.363-1.588-4.688-3.177-7.012-4.843-.271-.194-1.046-.387-.387-1.046.232-.232-.039-.426-.31-.465a.876.876,0,0,1-.814-.852c0-.5-.155-.62-.581-.736-.5-.155-.852-.349-.659.465.039.116,0,.31-.116.349-.155.116-.271-.077-.387-.155-2.092-1.588-4.145-3.216-6.16-4.92C448.761,87.829,447.211,86.511,445.584,85.155ZM433.419,123.51h0v-4.184a2.064,2.064,0,0,1,1.317-2.015c.194-.077.426-.194.542.077.232.62.775.5,1.24.465.542-.039.7.194.852.62a3.5,3.5,0,0,1,.155,1.085v8.1c0,.232-.077.542.194.659.271.077.387-.232.542-.387.93-1.085,1.86-2.208,2.673-3.371a20.549,20.549,0,0,0,4.029-12.165c0-.891-.232-1.782-.271-2.673a72.446,72.446,0,0,0-.659-7.632,8.941,8.941,0,0,0-.116-1.433c-.349-1.511-.387-3.1-.7-4.61s-.465-3.061-.736-4.572c-.349-1.937-.775-3.874-1.2-5.811-.387-1.7-.775-3.409-1.2-5.114a1.025,1.025,0,0,0-.542-.659,12.638,12.638,0,0,1-3.719-3.448c-.194-.232-.465-.426-.659-.155a18.627,18.627,0,0,0-1.55,2.015c-.852,1.937-1.821,3.836-2.828,5.7a18.619,18.619,0,0,0-1.472,2.906,39.32,39.32,0,0,0-.969,4.727c-.349,1.9-.659,3.8-.93,5.734-.349,2.557-.7,5.153-.969,7.748-.232,1.976-.194,3.99-.426,5.966a16.853,16.853,0,0,0,.814,7.322,27.334,27.334,0,0,0,5.966,9.763c.116.116.194.387.426.232.194-.116.155-.349.155-.5C433.419,126.416,433.419,124.944,433.419,123.51ZM391.19,34.558a34.1,34.1,0,0,0-5.618.581,7.737,7.737,0,0,0-1.007.194c-.155.077-.465.116-.465.387,0,.232.271.232.426.31,2.441,1.433,4.882,2.789,7.284,4.223a2.031,2.031,0,0,1,.891,2.828,1.973,1.973,0,0,1-2.479.93c-.852-.465-1.7-.93-2.557-1.433-1.743-1.007-3.448-1.976-5.191-2.983-.194-.116-.387-.271-.581-.116s.039.31.077.5a19.269,19.269,0,0,0,1.588,4.068,20.838,20.838,0,0,0,6.083,7.981,45.645,45.645,0,0,0,8.911,4.727c2.751,1.278,5.579,2.4,8.446,3.526s5.734,2.17,8.64,3.138c1.9.62,3.758,1.24,5.656,1.821a4.765,4.765,0,0,0,2.131.426c1.588-.271,3.138-.736,4.765-.891.31-.039.542-.194.426-.5-.271-.542-.271-1.162-.7-1.666-1.821-2.247-3.487-4.572-5.075-6.974-1.395-2.092-2.518-4.378-4.649-6.005-3.409-2.6-6.625-5.424-10.112-7.865-1.743-1.24-3.526-2.4-5.269-3.6A19.569,19.569,0,0,0,391.19,34.558Zm46.3-12.359c0,2.053.039,3.99,0,5.928a1.643,1.643,0,0,1-.736,1.278,2.122,2.122,0,0,1-2.131.232,2.026,2.026,0,0,1-1.2-2.015c0-2.557-.039-5.114-.039-7.71,0-3.99.039-8.02.039-12.01,0-.232.116-.62-.232-.7-.232-.077-.387.232-.542.426a32.617,32.617,0,0,0-4.145,5.85,19.2,19.2,0,0,0-2.48,8.872,30.562,30.562,0,0,0,.194,3.254c.194,2.053.232,4.145.5,6.2.194,1.666.349,3.332.62,4.959.387,2.673.814,5.346,1.317,7.981.387,1.937.775,3.913,1.162,5.85.039.232-.039.542.271.62s.426-.232.62-.426a6.372,6.372,0,0,1,9.647.077c.155.155.271.426.581.349.232-.077.194-.349.232-.542.31-1.356.659-2.712.891-4.107.5-2.789,1.007-5.579,1.433-8.368.387-2.48.7-5,.969-7.477.232-2.092.194-4.184.465-6.276a16.125,16.125,0,0,0-.155-4.3,20,20,0,0,0-1.356-4.727,28.891,28.891,0,0,0-5.037-7.671c-.155-.194-.349-.542-.581-.465-.349.077-.232.5-.232.775,0,3.835.039,7.71.039,11.545,0,.5.31,1.24-.659,1.317-.078,0-.155.194-.155.349-.039.5-.271.775-.852.659-.349-.039-.426.232-.465.5-.039.349.232.349.465.426A1.771,1.771,0,0,0,437.487,22.2Zm49.435,77.678c-3.293-1.9-6.547-3.758-9.763-5.656-2.673-1.55-5.385-3.1-8.058-4.688-.581-.349-1.317-.775-.7-1.7.116-.194-.039-.349-.116-.5a.465.465,0,0,1,.039-.581c.232-.232.387,0,.542.155s.349.31.542.155c.271-.194.116-.426-.039-.62-.232-.31-.194-.426.194-.542a1.641,1.641,0,0,1,.969-.039,13.2,13.2,0,0,1,2.325,1.2c3.022,1.743,6.083,3.487,9.1,5.269,2.131,1.24,4.223,2.441,6.354,3.681.232.116.465.387.736.155.232-.194-.039-.387-.116-.581a27.387,27.387,0,0,0-3.1-6.857,17.179,17.179,0,0,0-6.16-6.2c-1.86-1.046-3.758-1.976-5.7-2.867-3.1-1.472-6.276-2.789-9.492-4.068-2.363-.93-4.765-1.782-7.129-2.673-1.2-.426-2.48-.814-3.681-1.24-.194-.077-.465-.155-.62.039-.194.232.077.387.155.542a8.93,8.93,0,0,1,.7,4.378,5.183,5.183,0,0,1-1.395,3.216,6.418,6.418,0,0,1-3.293,1.976c-.232.077-.5.077-.62.31s.077.349.232.465c2.906,2.557,5.889,5.037,8.911,7.477,1.124.891,2.441,1.511,3.138,2.867a.863.863,0,0,0,.852.465,1.117,1.117,0,0,1,.775.271c2.053,1.433,4.107,2.867,6.2,4.223a18.637,18.637,0,0,0,7.71,2.983,27.46,27.46,0,0,0,9.066-.387A2.636,2.636,0,0,0,486.922,99.877ZM439.231,59.159a8.909,8.909,0,0,0-1.821-5.346c-1.24-1.472-2.634-1.472-3.874,0a7.541,7.541,0,0,0-1.55,3.6,8.51,8.51,0,0,0,1.24,6.857c1.433,2.015,3.061,2.015,4.61-.116A9.707,9.707,0,0,0,439.231,59.159ZM424.276,77.988A9.952,9.952,0,0,0,431.792,74a4.039,4.039,0,0,0,1.007-2.828c-.194-1.86-2.286-2.325-3.719-2.17a10.166,10.166,0,0,0-4.649,1.743A7.675,7.675,0,0,0,421.06,75a2.014,2.014,0,0,0,1.124,2.6A4.294,4.294,0,0,0,424.276,77.988Zm22.316-.039h.387c2.634-.039,3.6-1.55,2.48-3.952a8.168,8.168,0,0,0-3.642-3.681,7.977,7.977,0,0,0-5.579-1.2,2.455,2.455,0,0,0-1.7,3.835A9.512,9.512,0,0,0,446.592,77.949ZM460.229,93.64a.376.376,0,0,1-.155.426c-.194.155-.349,0-.465-.155-.232-.31-.426-.62-.659-.891a.369.369,0,0,0-.5-.116c-.194.116-.155.31-.039.5.31.426.62.852.969,1.278a.7.7,0,0,0,.891.155c1.046-.465,1.124-.891.465-1.782-.194-.232-.349-.465-.542-.7-.155-.194-.31-.465-.581-.232-.31.232-.077.465.077.7C459.841,93.1,460.074,93.369,460.229,93.64ZM435.473,66.172a1.216,1.216,0,0,0-1.24,1.627.512.512,0,0,0,.542.465c.31,0,.387-.194.387-.465s-.039-.62.426-.62c.387,0,.736,0,.659-.542C436.17,66.133,435.782,66.21,435.473,66.172Zm-1.007-45.987c-.039.271-.039.542.349.581s.542-.116.581-.465a.592.592,0,0,1,.736-.62.423.423,0,0,0,.5-.465c.039-.387-.232-.426-.5-.465A1.345,1.345,0,0,0,434.465,20.184ZM437.565,69c-.039-.271.116-.7-.426-.736-.5-.039-.5.271-.5.62,0,.387-.232.5-.581.465-.271-.039-.465.039-.465.387a.511.511,0,0,0,.426.581A1.2,1.2,0,0,0,437.565,69Z" transform="translate(-376.637 0.001)" fill="#2b2b2b"/>
    <path id="Path_133" data-name="Path 133" d="M623.015,117.6a2.852,2.852,0,0,1-1.612,2.79,22.81,22.81,0,0,1-4.713,2.48,3.2,3.2,0,0,1-2.728-5.7,36.923,36.923,0,0,1,5.085-2.852C620.72,113.628,623.015,115.426,623.015,117.6Z" transform="translate(-524.391 -71.06)" fill="#2b2b2b"/>
    <path id="Path_134" data-name="Path 134" d="M425.028,262.881a6.86,6.86,0,0,1-1.55-1.8c-.186-.248-.744-.62-.434-.93a1.8,1.8,0,0,1,1.488-.558c.682.062.434.62.434.992A4.714,4.714,0,0,1,425.028,262.881Z" transform="translate(-394.232 -159.946)" fill="#2b2b2b"/>
    <path id="Path_135" data-name="Path 135" d="M529.721,278.681a20.945,20.945,0,0,1,0,2.79,3.182,3.182,0,0,1-3.411,2.6,3.327,3.327,0,0,1-3.039-3.1q-.093-2.418,0-4.837A3.012,3.012,0,0,1,526.5,273.1a3.088,3.088,0,0,1,3.286,2.976c0,.93,0,1.8-.062,2.6Z" transform="translate(-467.662 -170.681)" fill="#2b2b2b"/>
    <path id="Path_136" data-name="Path 136" d="M427.5,117.786a3.112,3.112,0,0,1,4.465-2.976,40.344,40.344,0,0,1,4.527,2.542,2.918,2.918,0,0,1,1.426,3.038,3.314,3.314,0,0,1-2.108,2.666c-1.3.558-2.294,0-3.287-.5-1.178-.558-2.232-1.3-3.411-1.984A2.964,2.964,0,0,1,427.5,117.786Z" transform="translate(-408.485 -71.263)" fill="#2b2b2b"/>
  </g>
</svg>
