<svg id="Component_43_1" data-name="Component 43 – 1" xmlns="http://www.w3.org/2000/svg" width="34.6" height="34.6" viewBox="0 0 34.6 34.6">
  <circle id="Ellipse_36" data-name="Ellipse 36" cx="17.3" cy="17.3" r="17.3" fill="#009ada"/>
  <path id="Path_260" data-name="Path 260" d="M-1541.506,101.91a11.089,11.089,0,0,0,1.2.054,8.824,8.824,0,0,0,4.071-1.058,9.668,9.668,0,0,0,1.243-.841,4.324,4.324,0,0,1-2.291-.7A4.354,4.354,0,0,1-1539.1,97a5.591,5.591,0,0,0,.785.065h.165l.524-.011c.321-.057.48-.1.48-.131a2.717,2.717,0,0,1-.612-.2,4.32,4.32,0,0,1-1.539-.95,4.467,4.467,0,0,1-1.331-3.209,4.425,4.425,0,0,0,1.943.524V93.06a3.6,3.6,0,0,1-.862-.785,4.6,4.6,0,0,1-1.038-2.947,4.689,4.689,0,0,1,.568-2.128,13.407,13.407,0,0,0,2.936,2.629,14.766,14.766,0,0,0,4.245,1.758,14.126,14.126,0,0,0,1.943.239,4.389,4.389,0,0,1-.131-1,4.273,4.273,0,0,1,1.341-3.153,4.377,4.377,0,0,1,3.1-1.255,4.618,4.618,0,0,1,3.209,1.363,6.876,6.876,0,0,0,1-.251,9.074,9.074,0,0,0,1.812-.808,5.646,5.646,0,0,1-.971,1.681,5.721,5.721,0,0,1-.927.72v.054a7.392,7.392,0,0,0,2.466-.7h.021a9.982,9.982,0,0,1-.982,1.21,7.394,7.394,0,0,1-1.221,1.06v.774a12.419,12.419,0,0,1-.731,3.994,13.158,13.158,0,0,1-3.657,5.4,12.361,12.361,0,0,1-8.151,2.979A12.268,12.268,0,0,1-1541.506,101.91Z" transform="translate(1548.041 -77.854)" fill="#fff"/>
</svg>
