<svg id="ic_account_circle_24px" xmlns="http://www.w3.org/2000/svg" width="68.487" height="68.487" viewBox="0 0 68.487 68.487">
  <path id="ic_account_circle_24px-2" data-name="ic_account_circle_24px" d="M36.243,2A34.243,34.243,0,1,0,70.487,36.243,34.256,34.256,0,0,0,36.243,2Zm0,10.273A10.273,10.273,0,1,1,25.97,22.546,10.259,10.259,0,0,1,36.243,12.273Zm0,48.626A24.657,24.657,0,0,1,15.7,49.872c.1-6.814,13.7-10.547,20.546-10.547,6.814,0,20.443,3.733,20.546,10.547A24.657,24.657,0,0,1,36.243,60.9Z" transform="translate(-2 -2)" fill="#aac939"/>
</svg>
