<svg id="Group_113" data-name="Group 113" xmlns="http://www.w3.org/2000/svg" width="76.549" height="76.549" viewBox="0 0 76.549 76.549">
  <g id="Group_89" data-name="Group 89">
    <g id="Group_87" data-name="Group 87">
      <path id="Path_187" data-name="Path 187" d="M74.531,260.635a38.275,38.275,0,1,0,38.275,38.274A38.313,38.313,0,0,0,74.531,260.635Zm0,75.093a36.818,36.818,0,1,1,36.819-36.819A36.858,36.858,0,0,1,74.531,335.728Z" transform="translate(-36.257 -260.635)" fill="#2b2b2b"/>
    </g>
    <g id="Group_88" data-name="Group 88" transform="translate(12.234 11.835)">
      <path id="Path_188" data-name="Path 188" d="M70.981,270.493a25,25,0,0,1,24.545,20.371h1.486a26.441,26.441,0,0,0-52.072,0h1.485A25.014,25.014,0,0,1,70.981,270.493Zm0,49.966a25.014,25.014,0,0,1-24.555-20.371H44.941a26.442,26.442,0,0,0,52.072,0H95.526A25,25,0,0,1,70.981,320.458Z" transform="translate(-44.941 -269.036)" fill="#2b2b2b"/>
    </g>
  </g>
  <g id="Group_94" data-name="Group 94" transform="translate(6.468 26.515)">
    <g id="Group_93" data-name="Group 93">
      <g id="Group_90" data-name="Group 90" transform="translate(23.913)">
        <path id="Path_189" data-name="Path 189" d="M58.142,279.456h3.406v.01l-2.606,3.988h2.591l.006.008v.592l-.006.01H57.822v-.01l2.606-3.994H58.142l-.006-.006v-.589Z" transform="translate(-57.822 -279.456)" fill="#2b2b2b"/>
        <path id="Path_190" data-name="Path 190" d="M60.95,279.456h2.475l0,0v.6H61.554v1.395h1.483l0,0v.6l0,0H61.554v1.395h1.874v.6l0,0H60.95l0,0v-4.6Z" transform="translate(-56.545 -279.456)" fill="#2b2b2b"/>
        <path id="Path_191" data-name="Path 191" d="M63.343,279.456H64.86A1.637,1.637,0,0,1,66.1,280a1.5,1.5,0,0,1,.361.969,1.464,1.464,0,0,1-.52,1.121,1.519,1.519,0,0,1-.49.289q0,.017.617,1.066l.352.6-.006.007H65.7a2.239,2.239,0,0,1-.175-.3q-.666-1.171-.714-1.268h-.875v1.564l-.006.01h-.589l-.01-.01v-4.588Zm.595.614v1.81h.951a1,1,0,0,0,.78-.375.863.863,0,0,0,.183-.514v-.041a.864.864,0,0,0-.4-.707,1.119,1.119,0,0,0-.683-.183h-.824Z" transform="translate(-55.569 -279.456)" fill="#2b2b2b"/>
        <path id="Path_192" data-name="Path 192" d="M68.092,279.456h.01a2.16,2.16,0,0,1,1.6.714,2.371,2.371,0,0,1-.11,3.292,2.16,2.16,0,0,1-2.978.013,2.376,2.376,0,0,1-.378-.465,2.336,2.336,0,0,1-.355-1.247v-.013a2.335,2.335,0,0,1,.73-1.706l.211-.173A2.149,2.149,0,0,1,68.092,279.456Zm-1.6,2.3a1.743,1.743,0,0,0,.566,1.295,1.557,1.557,0,0,0,2.323-.265,1.753,1.753,0,0,0,.327-1v-.042a1.731,1.731,0,0,0-.449-1.164,1.551,1.551,0,0,0-2.4.1A1.776,1.776,0,0,0,66.487,281.757Z" transform="translate(-54.527 -279.456)" fill="#2b2b2b"/>
      </g>
      <g id="Group_91" data-name="Group 91" transform="translate(0 8.364)">
        <path id="Path_193" data-name="Path 193" d="M44.123,285.45h.01a3.161,3.161,0,0,1,2.347,1.044,3.541,3.541,0,0,1,.5.7q-.038.034-.8.441a3.534,3.534,0,0,0-.385-.537,2.242,2.242,0,0,0-3.337.01,2.685,2.685,0,0,0,.194,3.812,2.248,2.248,0,0,0,1.437.549h.1a2.232,2.232,0,0,0,1.56-.687,2.951,2.951,0,0,0,.437-.592l.8.421v.02a4.218,4.218,0,0,1-.427.63,3.182,3.182,0,0,1-4.845.02,3.584,3.584,0,0,1-.868-2.347v-.028a3.549,3.549,0,0,1,.882-2.357A3.171,3.171,0,0,1,44.123,285.45Z" transform="translate(-40.848 -285.37)" fill="#2b2b2b"/>
        <path id="Path_194" data-name="Path 194" d="M46.021,285.45h.886l.01.014v3h3v-3l.014-.014h.892l.014.014v6.913l-.014.014h-.886l-.01-.014v-3H46.917v3l-.01.014h-.886l-.014-.014v-6.913Z" transform="translate(-38.739 -285.37)" fill="#2b2b2b"/>
        <path id="Path_195" data-name="Path 195" d="M53.68,285.45h.014a3.258,3.258,0,0,1,2.413,1.076,3.577,3.577,0,0,1-.166,4.959,3.255,3.255,0,0,1-4.486.02,3.637,3.637,0,0,1-.569-.7,3.517,3.517,0,0,1-.535-1.878v-.018a3.522,3.522,0,0,1,1.1-2.57l.317-.261A3.246,3.246,0,0,1,53.68,285.45Zm-2.419,3.466a2.62,2.62,0,0,0,.854,1.948,2.346,2.346,0,0,0,3.5-.4,2.635,2.635,0,0,0,.493-1.507V288.9a2.609,2.609,0,0,0-.679-1.754,2.334,2.334,0,0,0-3.612.151A2.676,2.676,0,0,0,51.261,288.916Z" transform="translate(-36.963 -285.37)" fill="#2b2b2b"/>
        <path id="Path_196" data-name="Path 196" d="M55.977,285.45h.9l.006.006v6.021H59.9l0,0v.906l0,0H55.977l-.006,0v-6.931Z" transform="translate(-34.666 -285.37)" fill="#2b2b2b"/>
        <path id="Path_197" data-name="Path 197" d="M59.406,285.45h3.726l0,.006v.91h-2.82v2.1h2.233l0,0v.9l0,.006H60.316v2.1h2.82v.91l0,0H59.406l-.006,0v-6.931Z" transform="translate(-33.264 -285.37)" fill="#2b2b2b"/>
        <path id="Path_198" data-name="Path 198" d="M65.015,285.393H65.1a2.357,2.357,0,0,1,1.061.261,2.845,2.845,0,0,1,.328.209,2.958,2.958,0,0,1,.255.218,2.724,2.724,0,0,1,.266.323,2.372,2.372,0,0,1,.128.208l-.826.407a1.146,1.146,0,0,0-.18-.247,1.543,1.543,0,0,0-2.109-.09.976.976,0,0,0-.185.256.965.965,0,0,0-.114.451v.032a.6.6,0,0,0,.241.509,1.377,1.377,0,0,0,.209.137,3.818,3.818,0,0,0,.731.271c.239.069.528.141.868.213a2.975,2.975,0,0,1,.473.172,2.246,2.246,0,0,1,.385.241,2.294,2.294,0,0,1,.307.313,1.851,1.851,0,0,1,.375,1.124v.024a2.031,2.031,0,0,1-.365,1.151,1.847,1.847,0,0,1-.223.27,2.437,2.437,0,0,1-.361.285,2.347,2.347,0,0,1-.331.17,2.639,2.639,0,0,1-1.03.209,2.538,2.538,0,0,1-1.5-.483,3.079,3.079,0,0,1-.256-.218,2.9,2.9,0,0,1-.266-.293,3.151,3.151,0,0,1-.227-.351,1.567,1.567,0,0,1-.094-.194l.828-.385a1.874,1.874,0,0,0,.21.351,1.419,1.419,0,0,0,.189.214,1.76,1.76,0,0,0,.3.227,1.636,1.636,0,0,0,.806.214h.034a1.661,1.661,0,0,0,.806-.21,1.5,1.5,0,0,0,.218-.161,1.233,1.233,0,0,0,.189-.232,1.146,1.146,0,0,0,.162-.578.914.914,0,0,0-.409-.778,1.288,1.288,0,0,0-.213-.114,2.385,2.385,0,0,0-.517-.142,6.562,6.562,0,0,1-1.451-.465,1.6,1.6,0,0,1-1-1.507,1.9,1.9,0,0,1,.441-1.223,2.019,2.019,0,0,1,.3-.3,2.377,2.377,0,0,1,.342-.223,2.17,2.17,0,0,1,.387-.156A2.584,2.584,0,0,1,65.015,285.393Z" transform="translate(-31.933 -285.393)" fill="#2b2b2b"/>
        <path id="Path_199" data-name="Path 199" d="M66.263,285.45h4.6l.006.006v.9l-.006.006H69.023v6.021l-.006,0h-.91l0,0v-6.021h-1.84l0-.006v-.9Z" transform="translate(-30.46 -285.37)" fill="#2b2b2b"/>
        <path id="Path_200" data-name="Path 200" d="M70.163,285.45h3.728l0,.006v.91h-2.82v2.1h2.233l0,0v.9l0,.006H71.075v2.1H73.9v.91l0,0H70.163l0,0v-6.931Z" transform="translate(-28.866 -285.37)" fill="#2b2b2b"/>
        <path id="Path_201" data-name="Path 201" d="M73.767,285.45h2.285a2.457,2.457,0,0,1,1.868.826,2.246,2.246,0,0,1,.545,1.459,2.208,2.208,0,0,1-.782,1.688,2.3,2.3,0,0,1-.74.437q0,.023.93,1.607l.53.91-.008.01H77.319a3.185,3.185,0,0,1-.261-.455q-1.006-1.764-1.076-1.912H74.663v2.357l-.008.014h-.888l-.014-.014v-6.913Zm.9.926V289.1H76.1a1.511,1.511,0,0,0,1.175-.565,1.3,1.3,0,0,0,.275-.772V287.7a1.3,1.3,0,0,0-.6-1.066,1.683,1.683,0,0,0-1.028-.276H74.677Z" transform="translate(-27.397 -285.37)" fill="#2b2b2b"/>
        <path id="Path_202" data-name="Path 202" d="M80.921,285.45h.014a3.255,3.255,0,0,1,2.413,1.076,3.575,3.575,0,0,1-.165,4.959,3.255,3.255,0,0,1-4.486.02,3.581,3.581,0,0,1-.569-.7,3.5,3.5,0,0,1-.535-1.878v-.018a3.516,3.516,0,0,1,1.1-2.57l.317-.261A3.241,3.241,0,0,1,80.921,285.45ZM78.5,288.916a2.62,2.62,0,0,0,.854,1.948,2.344,2.344,0,0,0,3.5-.4,2.624,2.624,0,0,0,.493-1.507V288.9a2.608,2.608,0,0,0-.678-1.754,2.334,2.334,0,0,0-3.612.151A2.667,2.667,0,0,0,78.5,288.916Z" transform="translate(-25.827 -285.37)" fill="#2b2b2b"/>
        <path id="Path_203" data-name="Path 203" d="M83.217,285.45h.906l0,.006v6.021h3.011l.006,0v.906l-.006,0H83.217l0,0v-6.931Z" transform="translate(-23.53 -285.37)" fill="#2b2b2b"/>
      </g>
      <g id="Group_92" data-name="Group 92" transform="translate(16.694 19.941)">
        <path id="Path_204" data-name="Path 204" d="M54.414,293.611h.007a1.662,1.662,0,0,1,1.2.514,1.762,1.762,0,0,1,.28.373l.028.054c-.237.124-.376.2-.421.216a1.3,1.3,0,0,0-.41-.468,1.18,1.18,0,0,0-.679-.22,1.224,1.224,0,0,0-.968.482,1.378,1.378,0,0,0-.286.835,1.352,1.352,0,0,0,.44,1,1.213,1.213,0,0,0,.814.313,1.2,1.2,0,0,0,.906-.416,1.351,1.351,0,0,0,.3-.569h-.9l-.006-.007v-.456l0,0v-.006h1.417l.007.007a3.111,3.111,0,0,1-.046.492,1.792,1.792,0,0,1-.247.625,1.7,1.7,0,0,1-1.44.809,1.693,1.693,0,0,1-1.145-.455A1.807,1.807,0,0,1,52.7,295.4v-.01a1.814,1.814,0,0,1,.566-1.324,1.783,1.783,0,0,1,1.15-.458Z" transform="translate(-52.698 -293.611)" fill="#2b2b2b"/>
        <path id="Path_205" data-name="Path 205" d="M55.636,293.611H56.1l0,0v3.1h1.551l0,0v.466l0,0h-2.02l0,0v-3.573Z" transform="translate(-51.498 -293.611)" fill="#2b2b2b"/>
        <path id="Path_206" data-name="Path 206" d="M57.4,293.611h.456l.006.008V295.8a1.017,1.017,0,0,0,.134.582.714.714,0,0,0,.411.31.851.851,0,0,0,.21.027h.349a.715.715,0,0,0,.647-.379,1.011,1.011,0,0,0,.106-.473v-2.243l.008-.008h.459l.007.008v2.12a1.8,1.8,0,0,1-.076.616,1.222,1.222,0,0,1-.489.642,1.29,1.29,0,0,1-.718.192h-.235a1.223,1.223,0,0,1-.9-.335,1.24,1.24,0,0,1-.228-.3,1.446,1.446,0,0,1-.158-.666v-2.27Z" transform="translate(-50.777 -293.611)" fill="#2b2b2b"/>
        <path id="Path_207" data-name="Path 207" d="M59.707,293.611h2.37l0,0v.466l0,0h-.948v3.106h-.469l0,0v-3.1h-.948l0,0v-.466Z" transform="translate(-49.834 -293.611)" fill="#2b2b2b"/>
        <path id="Path_208" data-name="Path 208" d="M61.717,293.611h1.92l0,0v.469H62.186v1.083H63.34v.465l0,0H62.186v1.082H63.64v.469l0,0h-1.92l0,0v-3.573Z" transform="translate(-49.012 -293.611)" fill="#2b2b2b"/>
        <path id="Path_209" data-name="Path 209" d="M63.574,293.611h.509l1.716,2.557.156.237h0v-2.785l.008-.008h.459l.007.008v3.563l-.007.007h-.509q-.131-.186-.975-1.457l-.9-1.34v2.789l0,.007h-.458l-.007-.007v-3.563Z" transform="translate(-48.255 -293.611)" fill="#2b2b2b"/>
        <path id="Path_210" data-name="Path 210" d="M67.081,293.611H69l0,0v.466l0,0H67.55v1.083h1.179v.469H67.55v1.551l0,0h-.466l0,0v-3.573Z" transform="translate(-46.82 -293.611)" fill="#2b2b2b"/>
        <path id="Path_211" data-name="Path 211" d="M68.835,293.611h1.178a1.266,1.266,0,0,1,.962.425,1.16,1.16,0,0,1,.282.752,1.143,1.143,0,0,1-.4.871,1.179,1.179,0,0,1-.382.224q0,.013.479.828l.275.47-.006,0h-.555a1.678,1.678,0,0,1-.134-.235c-.345-.606-.531-.934-.555-.985H69.3v1.216l-.006.007h-.456l-.007-.007v-3.563Zm.462.478v1.4h.738a.784.784,0,0,0,.606-.29.675.675,0,0,0,.141-.4v-.032a.674.674,0,0,0-.307-.549.873.873,0,0,0-.53-.142H69.3Z" transform="translate(-46.104 -293.611)" fill="#2b2b2b"/>
        <path id="Path_212" data-name="Path 212" d="M70.936,293.611h1.92l0,0v.469H71.4v1.083h1.154v.465l0,0H71.4v1.082h1.454v.469l0,0h-1.92l0,0v-3.573Z" transform="translate(-45.244 -293.611)" fill="#2b2b2b"/>
        <path id="Path_213" data-name="Path 213" d="M72.789,293.611h1.92l0,0v.469H73.258v1.083h1.154v.465l0,0H73.258v1.082h1.454v.469l0,0h-1.92l0,0v-3.573Z" transform="translate(-44.486 -293.611)" fill="#2b2b2b"/>
      </g>
    </g>
  </g>
</svg>
